<?xml version="1.0" encoding="UTF-8" standalone="yes"?>
<svg width="512" height="512" viewBox="0 0 512 512" version="1.2" baseProfile="tiny-ps" xmlns="http://www.w3.org/2000/svg">
  <title>bimi-svg-tiny-12-ps</title>
  <g>
    <path d="M 425.00,290.00 L 403.00,290.00 L 394.46,289.94 L 391.89,289.89 L 390.72,289.86 L 388.46,289.80 L 387.46,289.76 L 385.56,289.68 L 384.77,289.64 L 383.29,289.55 L 382.74,289.50 L 381.74,289.40 L 381.45,289.35 L 381.00,289.24 L 381.00,289.19 L 381.30,288.72 L 381.76,288.30 L 382.10,288.05 L 383.72,286.98 L 384.75,286.46 L 387.35,285.46 L 388.40,285.21 L 389.02,285.11 L 390.33,284.91 L 391.12,284.83 L 392.80,284.68 L 393.80,284.61 L 395.94,284.50 L 397.21,284.45 L 399.89,284.35 L 401.47,284.31 L 404.81,284.23 L 406.75,284.19 L 425.00,283.84 M 134.50,221.02 L 130.00,223.61 L 127.88,224.80 L 126.27,225.69 L 125.44,226.14 L 123.76,227.04 L 122.97,227.46 L 121.43,228.27 L 120.78,228.60 L 118.05,229.83 L 116.78,230.23 L 115.55,230.58 L 115.04,230.68 L 114.10,230.81 L 113.78,230.78 L 113.06,230.73 L 112.35,230.69 L 111.89,230.67 L 109.79,230.59 L 108.43,230.54 L 105.52,230.44 L 103.88,230.39 L 100.50,230.30 L 98.75,230.25 L 86.00,229.94 L 86.00,221.00 Z" fill="rgb(13,239,248)"/>
    <path d="M 117.61,230.32 L 115.12,231.66 L 110.01,234.40 L 107.38,235.80 L 102.23,238.54 L 99.92,239.76 L 97.66,240.95 L 96.62,241.49 L 94.62,242.54 L 93.73,243.00 L 92.03,243.88 L 91.31,244.25 L 89.97,244.94 L 89.45,245.20 L 88.53,245.66 L 88.24,245.79 L 87.78,246.00 L 87.75,246.00 L 87.35,245.77 L 87.11,245.38 L 87.00,245.07 L 86.79,244.37 L 86.70,243.90 L 86.53,242.90 L 86.46,242.28 L 86.32,240.97 L 86.27,240.20 L 86.17,238.59 L 86.13,237.67 L 86.06,235.75 L 86.05,234.68 L 86.02,232.47 L 86.01,231.25 L 86.01,229.94 L 98.75,230.25 L 100.50,230.30 L 103.88,230.39 L 105.52,230.44 L 108.43,230.54 L 109.79,230.59 L 111.89,230.67 L 112.35,230.69 L 113.06,230.73 L 113.78,230.78 L 114.10,230.81 L 115.04,230.68 L 115.55,230.58 L 116.78,230.23 L 118.05,229.83 L 120.78,228.60 L 121.20,228.38 Z" fill="rgb(53,213,178)"/>
    <path d="M 433.83,216.31 L 434.54,217.16 L 434.92,217.81 L 435.07,218.28 L 435.35,219.34 L 435.46,220.13 L 435.65,221.90 L 435.72,223.16 L 435.78,224.49 L 435.81,225.26 L 435.86,226.88 L 435.88,227.82 L 435.92,229.79 L 435.93,230.91 L 435.95,233.25 L 435.96,234.57 L 435.98,237.33 L 435.98,238.87 L 435.99,242.08 L 435.99,243.86 L 436.00,247.55 L 436.00,249.60 L 436.00,253.82 L 436.00,293.65 L 433.69,295.83 L 431.37,298.00 L 83.37,298.00 L 78.00,292.39 L 78.00,219.61 L 80.69,216.80 L 83.37,214.00 L 431.65,214.00 M 235.24,217.52 L 224.52,217.53 L 213.85,217.54 L 208.60,217.54 L 198.16,217.56 L 193.06,217.57 L 182.93,217.59 L 178.02,217.60 L 168.30,217.62 L 163.62,217.63 L 154.38,217.66 L 149.98,217.67 L 141.31,217.70 L 137.22,217.72 L 129.21,217.76 L 125.48,217.77 L 118.21,217.81 L 114.88,217.84 L 108.44,217.88 L 105.55,217.90 L 100.01,217.95 L 97.61,217.98 L 95.28,218.00 L 94.21,218.01 L 92.13,218.04 L 91.19,218.06 L 89.39,218.08 L 88.60,218.10 L 87.07,218.13 L 86.42,218.14 L 85.20,218.17 L 84.70,218.19 L 83.77,218.22 L 83.43,218.23 L 82.82,218.27 L 82.64,218.28 L 82.35,218.32 L 82.33,218.33 L 82.14,219.14 L 82.01,220.26 L 81.95,221.08 L 81.84,222.88 L 81.78,224.00 L 81.67,226.38 L 81.62,227.76 L 81.52,230.62 L 81.48,232.21 L 81.39,235.46 L 81.36,237.21 L 81.21,244.44 L 81.17,248.28 L 81.09,256.01 L 81.07,259.81 L 81.06,267.28 L 81.08,270.65 L 81.11,273.94 L 81.13,275.45 L 81.18,278.36 L 81.21,279.65 L 81.29,282.08 L 81.33,283.09 L 81.43,284.96 L 81.48,285.64 L 82.17,293.93 L 91.34,294.28 L 92.02,294.30 L 92.47,294.31 L 93.44,294.33 L 94.03,294.34 L 95.28,294.36 L 96.01,294.37 L 97.52,294.39 L 98.38,294.40 L 102.05,294.44 L 104.25,294.45 L 108.89,294.49 L 111.55,294.50 L 117.08,294.53 L 120.15,294.54 L 126.50,294.56 L 129.95,294.57 L 137.03,294.58 L 140.82,294.59 L 148.57,294.60 L 152.66,294.61 L 161.00,294.62 L 165.36,294.62 L 174.20,294.63 L 178.79,294.63 L 188.07,294.63 L 192.85,294.63 L 202.49,294.62 L 207.42,294.62 L 227.40,294.61 L 237.64,294.59 L 258.23,294.57 L 268.55,294.55 L 289.15,294.51 L 299.24,294.48 L 309.29,294.46 L 314.22,294.45 L 324.02,294.42 L 328.80,294.40 L 338.28,294.37 L 342.88,294.36 L 351.96,294.32 L 356.33,294.31 L 364.94,294.27 L 369.04,294.26 L 377.11,294.22 L 380.91,294.20 L 388.36,294.16 L 391.82,294.14 L 398.56,294.10 L 401.65,294.08 L 407.62,294.04 L 410.28,294.02 L 415.41,293.97 L 417.62,293.95 L 421.82,293.90 L 423.54,293.88 L 425.20,293.86 L 425.93,293.85 L 427.33,293.82 L 427.93,293.81 L 429.06,293.79 L 429.52,293.78 L 430.36,293.75 L 430.68,293.74 L 431.23,293.72 L 431.40,293.70 L 431.65,293.68 L 431.67,293.67 L 431.77,293.36 L 431.83,292.95 L 431.86,292.65 L 431.97,291.22 L 432.02,290.16 L 432.12,287.84 L 432.16,286.40 L 432.25,283.35 L 432.28,281.59 L 432.34,277.93 L 432.37,275.93 L 432.42,271.82 L 432.43,269.64 L 432.48,260.64 L 432.48,256.00 L 432.47,246.72 L 432.43,242.36 L 432.39,238.07 L 432.37,236.07 L 432.31,232.17 L 432.28,230.41 L 432.21,227.04 L 432.16,225.60 L 432.07,222.89 L 432.02,221.84 L 431.92,219.94 L 431.86,219.35 L 431.80,218.81 L 431.77,218.64 L 431.70,218.37 L 431.67,218.33 L 431.36,218.28 L 430.92,218.25 L 430.57,218.23 L 429.80,218.20 L 429.30,218.19 L 428.23,218.16 L 427.58,218.14 L 426.20,218.11 L 425.40,218.10 L 423.74,218.07 L 422.81,218.06 L 420.87,218.03 L 419.80,218.01 L 417.59,217.99 L 416.39,217.98 L 411.34,217.93 L 408.45,217.90 L 402.45,217.86 L 399.12,217.84 L 392.25,217.79 L 388.52,217.77 L 380.87,217.74 L 376.78,217.72 L 368.43,217.69 L 364.02,217.67 L 355.06,217.64 L 350.38,217.63 L 340.89,217.61 L 335.98,217.60 L 326.05,217.58 L 320.94,217.57 L 310.65,217.55 L 305.40,217.54 L 294.84,217.53 L 289.48,217.53 L 267.88,217.52 L 257.00,217.52 Z" fill="rgb(56,255,5)"/>
    <path d="M 391.90,289.90 L 390.73,289.87 L 388.47,289.81 L 387.47,289.78 L 385.57,289.71 L 384.78,289.67 L 383.31,289.59 L 382.75,289.54 L 381.76,289.45 L 381.47,289.40 L 381.02,289.30 L 381.02,289.25 L 381.03,289.25 L 381.45,289.35 L 381.74,289.40 L 382.74,289.50 L 383.29,289.55 L 384.77,289.64 L 385.56,289.68 L 387.46,289.76 L 388.46,289.80 L 390.72,289.86 L 391.89,289.89 L 394.46,289.94 L 403.00,290.00 L 394.46,289.94 M 406.75,284.19 L 404.81,284.23 L 401.47,284.31 L 399.89,284.35 L 397.21,284.45 L 395.94,284.50 L 393.80,284.61 L 392.80,284.68 L 391.12,284.83 L 390.33,284.91 L 389.02,285.11 L 388.40,285.21 L 387.35,285.46 L 385.13,286.31 L 385.22,286.26 L 386.23,285.65 L 388.36,284.40 L 389.52,283.75 L 398.00,279.00 L 425.00,279.00 L 425.00,283.84 Z" fill="rgb(71,179,255)"/>
    <path d="M 391.89,289.90 L 390.72,289.87 L 388.46,289.81 L 387.47,289.78 L 385.57,289.71 L 384.78,289.67 L 383.30,289.59 L 382.74,289.54 L 381.75,289.45 L 381.46,289.40 L 381.01,289.30 L 381.01,289.25 L 381.30,288.94 L 381.47,288.81 L 381.02,289.25 L 381.02,289.30 L 381.47,289.40 L 381.76,289.45 L 382.75,289.54 L 383.31,289.59 L 384.78,289.67 L 385.57,289.71 L 387.47,289.78 L 388.47,289.81 L 390.73,289.87 L 391.90,289.90 L 394.46,289.94 L 403.00,290.00 L 394.46,289.94 M 398.17,279.00 L 408.99,273.00 L 425.00,273.00 L 425.00,279.00 Z" fill="rgb(124,121,254)"/>
    <path d="M 141.47,254.14 L 141.63,254.48 L 141.69,254.88 L 141.79,255.82 L 141.81,256.45 L 141.84,257.82 L 141.83,258.61 L 141.79,260.26 L 141.74,261.13 L 141.64,262.86 L 141.58,263.78 L 141.56,264.13 L 141.50,264.76 L 141.48,264.97 L 141.44,265.31 L 141.42,265.37 L 141.38,265.42 L 141.36,265.35 L 141.32,265.12 L 141.30,264.91 L 141.23,263.78 L 141.19,262.82 L 141.02,260.68 L 140.82,259.57 L 140.68,259.17 L 140.37,258.46 L 140.17,258.24 L 139.72,257.88 L 139.45,257.82 L 138.68,257.59 L 138.41,257.38 L 138.41,257.22 L 138.48,256.85 L 138.64,256.57 L 139.04,255.94 L 139.37,255.50 L 140.59,254.28 L 141.30,253.96 M 276.75,252.22 L 277.28,252.39 L 277.58,252.59 L 278.20,253.05 L 278.54,253.40 L 279.19,254.13 L 279.37,254.49 L 279.34,254.62 L 279.18,254.87 L 278.96,254.98 L 278.43,255.18 L 278.03,255.28 L 277.37,255.52 L 277.11,255.74 L 276.64,256.24 L 276.47,256.62 L 276.16,257.47 L 276.05,258.05 L 275.85,259.32 L 275.79,260.14 L 275.68,261.52 L 275.62,262.24 L 275.59,262.49 L 275.54,262.92 L 275.51,263.02 L 275.46,263.16 L 275.44,263.12 L 275.38,262.95 L 275.35,262.75 L 275.29,262.27 L 275.26,261.91 L 275.18,261.11 L 275.13,260.59 L 275.04,259.45 L 274.98,258.76 L 274.87,256.66 L 274.89,255.46 L 274.93,254.96 L 275.06,254.02 L 275.16,253.65 L 275.39,252.99 L 275.54,252.76 L 275.87,252.37 L 276.07,252.28 L 276.50,252.17 Z" fill="rgb(217,225,0)"/>
    <path d="M 391.89,289.90 L 390.72,289.87 L 388.46,289.81 L 387.46,289.78 L 385.57,289.71 L 384.77,289.67 L 383.30,289.59 L 382.74,289.54 L 381.75,289.45 L 381.46,289.40 L 381.01,289.30 L 381.01,289.25 L 381.03,289.23 L 381.01,289.25 L 381.01,289.30 L 381.46,289.40 L 381.75,289.45 L 382.74,289.54 L 383.30,289.59 L 384.78,289.67 L 385.57,289.71 L 387.47,289.78 L 388.46,289.81 L 390.72,289.87 L 391.89,289.90 L 394.46,289.94 L 403.00,290.00 L 394.46,289.94 M 424.42,265.67 L 424.51,265.90 L 424.67,266.44 L 424.73,266.85 L 424.83,267.75 L 424.87,268.36 L 424.93,269.69 L 424.95,270.55 L 424.98,272.39 L 424.99,273.00 L 409.00,273.00 L 412.96,270.82 L 415.03,269.70 L 417.03,268.61 L 417.92,268.14 L 419.62,267.24 L 420.33,266.87 L 421.65,266.20 L 422.14,265.96 L 423.01,265.55 L 423.25,265.46 L 424.20,265.43 Z" fill="rgb(184,57,253)"/>
    <path d="M 273.25,238.28 L 274.46,238.81 L 275.07,239.28 L 276.34,240.38 L 277.05,241.20 L 278.56,243.02 L 279.47,244.25 L 280.68,245.96 L 281.05,246.58 L 281.64,247.65 L 281.69,247.88 L 281.70,248.07 L 281.64,248.07 L 281.48,248.03 L 281.33,247.91 L 281.00,247.62 L 280.77,247.37 L 280.25,246.81 L 279.93,246.42 L 279.06,245.70 L 278.31,245.37 L 277.82,245.27 L 276.76,245.12 L 276.10,245.10 L 274.68,245.11 L 273.81,245.17 L 269.00,245.50 L 269.00,241.75 L 269.08,239.79 L 269.24,238.92 L 269.40,238.66 L 269.79,238.23 L 270.10,238.13 L 270.81,238.00 L 271.31,238.00 M 209.82,238.41 L 212.52,238.84 L 213.72,239.22 L 216.01,240.11 L 216.90,240.72 L 218.50,242.07 L 218.95,242.92 L 219.47,244.02 L 219.57,244.51 L 219.47,244.65 L 219.18,244.88 L 218.87,244.93 L 218.14,245.00 L 217.58,245.00 L 216.19,245.17 L 215.59,245.43 L 214.50,246.07 L 214.27,246.47 L 213.81,247.15 L 213.52,247.34 L 213.37,247.30 L 213.06,247.13 L 212.87,246.91 L 212.46,246.36 L 212.20,245.94 L 211.27,244.86 L 210.44,244.43 L 209.74,244.34 L 208.99,244.27 L 208.51,244.27 L 207.49,244.27 L 206.85,244.30 L 205.49,244.36 L 204.66,244.42 L 202.89,244.54 L 201.84,244.62 L 199.33,244.80 L 197.90,244.88 L 197.31,244.91 L 196.20,244.94 L 195.75,244.95 L 194.92,244.94 L 194.60,244.91 L 193.55,244.76 L 193.34,244.61 L 193.09,244.24 L 193.18,243.96 L 193.81,242.72 L 194.42,241.96 L 194.81,241.62 L 196.56,240.36 L 197.68,239.88 L 200.07,239.02 L 201.41,238.75 L 204.16,238.31 L 205.58,238.25 L 208.44,238.25 M 172.57,237.93 L 173.51,238.24 L 173.94,238.51 L 174.75,239.14 L 175.08,239.58 L 175.69,240.54 L 175.90,241.15 L 176.69,243.46 L 176.90,244.37 L 176.82,244.60 L 176.53,244.93 L 176.16,244.97 L 175.27,245.00 L 174.56,245.00 L 172.65,245.29 L 171.67,245.72 L 171.50,246.00 L 171.08,246.52 L 170.80,246.71 L 170.24,247.00 L 170.00,247.00 L 169.20,246.71 L 168.67,246.27 L 168.50,246.00 L 167.49,245.29 L 166.46,245.00 L 165.92,245.00 L 164.87,244.93 L 164.49,244.76 L 164.46,244.57 L 164.50,244.11 L 164.66,243.71 L 165.09,242.80 L 165.44,242.12 L 166.60,240.37 L 167.50,239.42 L 167.98,239.06 L 168.98,238.42 L 169.50,238.22 L 170.54,237.89 L 171.06,237.84 L 172.08,237.82 M 339.52,238.07 L 340.34,238.29 L 340.56,238.57 L 340.89,239.28 L 340.94,239.91 L 341.00,241.38 L 341.00,242.50 L 341.00,243.65 L 340.99,244.11 L 340.95,244.98 L 340.91,245.31 L 340.81,245.91 L 340.73,246.11 L 340.55,246.47 L 340.41,246.56 L 339.73,246.71 L 339.14,246.49 L 338.50,246.23 L 338.11,246.04 L 337.26,245.61 L 336.75,245.34 L 335.46,244.51 L 334.82,243.91 L 334.61,243.56 L 334.24,242.84 L 334.14,242.41 L 334.00,241.49 L 334.00,240.95 L 334.10,239.35 L 334.31,238.66 L 334.55,238.46 L 335.12,238.15 L 335.60,238.08 L 336.70,238.00 L 337.50,238.00 M 409.00,240.86 L 408.88,242.52 L 408.51,243.21 L 408.01,243.42 L 407.46,243.62 L 407.08,243.69 L 406.23,243.84 L 405.68,243.90 L 404.48,244.01 L 403.72,244.07 L 402.11,244.19 L 401.13,244.25 L 396.75,244.67 L 394.94,244.97 L 393.23,245.28 L 392.57,245.45 L 391.42,245.78 L 391.13,245.93 L 390.06,246.44 L 389.57,246.58 L 389.41,246.55 L 389.15,246.43 L 389.09,246.26 L 389.00,245.85 L 389.00,245.54 L 388.76,244.80 L 388.33,244.45 L 387.96,244.33 L 387.08,244.13 L 386.45,244.08 L 385.05,244.00 L 384.12,244.00 L 380.46,243.67 L 379.53,243.43 L 379.16,243.28 L 378.47,242.95 L 378.22,242.75 L 377.79,242.34 L 377.67,242.11 L 377.51,241.63 L 377.53,241.36 L 377.65,240.82 L 377.81,240.52 L 378.22,239.92 L 378.54,239.61 L 379.93,238.80 L 380.61,238.60 L 381.05,238.52 L 381.99,238.36 L 382.58,238.31 L 383.84,238.20 L 384.61,238.16 L 386.25,238.09 L 387.23,238.06 L 389.30,238.02 L 390.52,238.01 L 393.08,238.00 L 409.00,238.00 M 297.89,237.97 L 299.16,238.24 L 299.89,238.69 L 301.26,240.14 L 301.77,241.33 L 301.82,241.93 L 301.76,243.11 L 301.52,243.58 L 300.87,244.41 L 300.32,244.58 L 299.17,244.98 L 298.52,245.25 L 297.23,245.82 L 296.75,246.08 L 295.83,246.44 L 295.42,246.38 L 295.30,246.16 L 295.10,245.59 L 295.06,245.07 L 295.00,243.86 L 295.00,242.98 L 295.35,240.20 L 295.92,238.88 L 296.35,238.50 L 297.30,237.95 M 361.67,238.19 L 366.00,238.47 L 367.83,238.67 L 369.58,238.87 L 370.33,238.98 L 371.74,239.21 L 372.28,239.33 L 373.26,239.58 L 373.55,239.70 L 374.00,239.95 L 374.00,240.07 L 373.54,241.09 L 372.86,242.00 L 372.43,242.43 L 371.28,243.17 L 370.19,243.53 L 369.44,243.65 L 367.80,243.86 L 366.73,243.92 L 364.40,244.00 L 362.93,244.00 L 359.74,244.07 L 357.93,244.19 L 357.23,244.28 L 355.97,244.48 L 355.59,244.60 L 355.00,244.85 L 355.00,245.00 L 354.89,245.53 L 354.69,245.68 L 354.17,245.90 L 353.77,245.89 L 352.86,245.81 L 352.28,245.66 L 351.01,245.27 L 350.25,244.97 L 349.21,244.39 L 348.69,243.89 L 348.51,243.58 L 348.20,242.91 L 348.12,242.49 L 348.00,241.58 L 348.00,238.00 L 354.85,238.00 M 245.72,238.52 L 248.39,238.62 L 249.64,238.79 L 252.07,239.23 L 253.13,239.58 L 255.12,240.38 L 255.89,240.92 L 258.09,242.73 L 258.60,243.26 L 258.75,243.47 L 259.00,243.85 L 259.00,243.97 L 258.86,244.23 L 258.62,244.34 L 258.03,244.57 L 257.61,244.68 L 255.62,245.04 L 254.43,245.14 L 252.01,245.28 L 250.97,245.24 L 249.99,245.18 L 249.61,245.11 L 248.93,244.96 L 248.74,244.84 L 247.61,244.62 L 246.26,244.53 L 245.36,244.52 L 243.42,244.52 L 242.31,244.56 L 240.01,244.65 L 238.79,244.73 L 236.18,244.88 L 234.74,244.96 L 234.15,244.98 L 233.06,245.00 L 232.63,245.00 L 231.85,244.97 L 231.56,244.93 L 230.66,244.73 L 230.52,244.54 L 230.42,244.07 L 230.55,243.73 L 231.97,241.93 L 233.50,240.90 L 234.50,240.47 L 236.63,239.69 L 237.84,239.40 L 240.36,238.88 L 241.69,238.74 L 244.38,238.52 M 144.22,238.14 L 145.36,238.30 L 145.89,238.49 L 146.92,238.93 L 147.35,239.25 L 148.15,239.93 L 148.42,240.35 L 148.87,241.24 L 148.92,241.74 L 148.91,242.79 L 148.69,243.36 L 148.40,243.92 L 148.13,244.13 L 147.53,244.51 L 147.09,244.64 L 146.10,244.86 L 145.43,244.92 L 143.97,245.00 L 143.03,245.00 L 141.20,244.95 L 140.19,244.87 L 139.79,244.79 L 139.07,244.62 L 138.81,244.50 L 138.36,244.22 L 138.23,244.04 L 138.04,243.65 L 138.04,243.41 L 138.09,242.88 L 138.21,242.56 L 138.50,241.89 L 138.74,241.49 L 139.26,240.65 L 139.60,240.17 L 140.90,238.92 L 141.93,238.39 L 142.49,238.27 L 143.64,238.10 M 312.02,238.22 L 312.92,238.56 L 313.40,238.80 L 315.32,239.96 L 316.16,240.66 L 317.72,242.12 L 318.13,242.77 L 318.48,243.41 L 318.52,243.67 L 318.51,244.15 L 318.35,244.32 L 318.03,244.50 L 317.70,244.58 L 316.95,244.74 L 316.45,244.80 L 314.16,245.00 L 308.00,245.00 L 308.00,241.50 L 308.08,239.62 L 308.26,238.80 L 308.45,238.56 L 308.92,238.18 L 309.30,238.10 L 310.18,238.00 L 310.81,238.00 M 110.79,238.11 L 111.70,238.19 L 113.61,238.49 L 114.62,238.82 L 115.04,239.09 L 115.83,239.70 L 116.20,240.13 L 116.91,241.10 L 117.29,241.75 L 119.18,245.00 L 108.00,245.00 L 108.00,241.44 L 108.07,239.41 L 108.25,238.60 L 108.49,238.39 L 109.07,238.09 L 109.59,238.08 Z" fill="rgb(186,149,1)"/>
    <path d="M 207.26,271.80 L 212.10,271.84 L 214.81,271.90 L 216.49,272.00 L 217.34,272.13 L 217.64,272.22 L 218.15,272.43 L 218.28,272.56 L 218.44,272.85 L 218.39,273.02 L 218.20,273.39 L 217.98,273.60 L 217.45,274.05 L 217.05,274.30 L 216.17,274.83 L 215.60,275.13 L 214.37,275.74 L 213.63,276.08 L 211.31,277.06 L 210.27,277.35 L 208.25,277.80 L 207.26,277.84 L 205.26,277.78 L 204.18,277.56 L 201.93,277.00 L 200.62,276.53 L 197.88,275.40 L 196.47,274.64 L 196.00,274.28 L 195.22,273.58 L 195.08,273.27 L 195.00,272.67 L 195.24,272.43 L 195.79,272.24 L 196.50,272.12 L 197.01,272.08 L 198.12,271.99 L 198.82,271.95 L 200.30,271.89 L 201.17,271.86 L 202.98,271.82 L 204.00,271.81 L 206.11,271.80 M 247.46,271.60 L 249.50,271.66 L 250.44,271.71 L 252.24,271.83 L 253.00,271.91 L 258.50,272.50 L 254.88,274.75 L 252.41,276.08 L 251.05,276.53 L 248.28,277.29 L 246.85,277.45 L 243.98,277.62 L 242.59,277.48 L 239.86,277.04 L 238.62,276.58 L 235.91,275.43 L 234.50,274.66 L 234.02,274.30 L 233.22,273.60 L 233.07,273.29 L 232.95,272.71 L 233.18,272.49 L 234.03,272.19 L 235.07,272.02 L 235.78,271.94 L 237.32,271.81 L 238.22,271.76 L 240.11,271.66 L 241.13,271.63 L 245.38,271.56 M 314.24,272.19 L 314.46,272.35 L 314.82,272.74 L 314.90,273.08 L 315.00,273.86 L 315.00,274.44 L 314.97,275.45 L 314.89,275.80 L 314.65,276.39 L 314.40,276.57 L 313.81,276.86 L 313.32,276.92 L 312.22,277.00 L 311.43,277.00 L 309.56,276.93 L 308.75,276.77 L 308.53,276.61 L 308.18,276.24 L 308.13,275.93 L 308.11,275.24 L 308.18,274.75 L 308.49,273.66 L 308.85,273.11 L 309.12,272.91 L 309.74,272.56 L 310.18,272.45 L 311.13,272.25 L 311.75,272.19 L 313.48,272.10 M 391.97,272.13 L 392.75,272.19 L 394.62,272.44 L 395.51,272.69 L 395.82,272.89 L 396.34,273.32 L 396.50,273.62 L 396.76,274.30 L 396.82,274.75 L 396.92,275.62 L 396.87,275.93 L 396.71,276.45 L 396.49,276.61 L 395.95,276.87 L 395.50,276.92 L 394.48,277.00 L 393.74,277.00 L 391.35,276.87 L 390.26,276.62 L 389.91,276.38 L 389.33,275.82 L 389.19,275.40 L 389.00,274.44 L 389.00,273.77 L 389.15,272.82 L 389.43,272.41 L 389.70,272.29 L 390.35,272.12 L 390.85,272.11 M 374.00,277.00 L 360.93,277.00 L 356.65,276.99 L 354.34,276.98 L 353.43,276.96 L 351.75,276.92 L 351.12,276.88 L 349.98,276.78 L 349.58,276.71 L 348.88,276.56 L 348.66,276.45 L 348.30,276.21 L 348.22,276.05 L 348.10,275.32 L 348.18,274.76 L 348.51,273.82 L 348.92,273.27 L 349.23,273.04 L 349.94,272.59 L 350.42,272.40 L 351.46,272.05 L 352.11,271.91 L 353.53,271.64 L 354.39,271.54 L 356.21,271.35 L 357.30,271.28 L 359.57,271.17 L 360.90,271.13 L 363.67,271.07 L 365.25,271.06 L 374.00,271.00 M 339.17,272.08 L 340.08,272.24 L 340.36,272.41 L 340.79,272.82 L 340.88,273.16 L 341.00,273.94 L 341.00,274.50 L 340.97,275.38 L 340.89,275.71 L 340.70,276.28 L 340.52,276.48 L 340.12,276.80 L 339.82,276.88 L 339.16,277.00 L 338.72,277.00 L 336.48,276.55 L 334.95,275.88 L 334.30,275.45 L 333.11,274.55 L 332.78,274.11 L 332.51,273.68 L 332.47,273.48 L 332.44,273.09 L 332.54,272.93 L 333.08,272.57 L 333.70,272.36 L 334.11,272.27 L 335.98,272.00 L 337.06,272.00 M 297.25,272.19 L 299.42,272.44 L 300.43,272.68 L 300.76,272.87 L 301.33,273.29 L 301.49,273.60 L 301.75,274.28 L 301.82,274.75 L 301.91,275.60 L 301.87,275.90 L 301.73,276.42 L 301.54,276.58 L 301.08,276.85 L 300.70,276.91 L 299.84,277.00 L 299.22,277.00 L 297.14,276.58 L 295.74,275.93 L 295.13,275.50 L 293.98,274.58 L 293.60,274.08 L 293.00,273.08 L 293.00,272.61 L 293.34,272.36 L 293.86,272.23 L 294.25,272.19 L 296.08,272.11 M 275.69,270.70 L 275.76,270.94 L 275.88,271.49 L 275.92,271.88 L 275.98,272.73 L 275.98,273.25 L 275.98,274.85 L 275.92,275.37 L 275.74,276.25 L 275.51,276.49 L 274.94,276.86 L 274.45,276.93 L 273.30,277.00 L 272.43,277.00 L 270.56,276.93 L 269.75,276.77 L 269.53,276.61 L 269.18,276.24 L 269.13,275.93 L 269.11,275.24 L 269.18,274.75 L 270.04,272.97 L 271.15,272.27 L 272.00,272.15 L 273.98,271.56 L 275.03,270.97 L 275.23,270.65 L 275.52,270.50 M 184.83,272.12 L 185.45,272.34 L 186.63,272.87 L 187.09,273.28 L 187.90,274.18 L 188.11,274.75 L 188.43,275.66 L 188.46,275.97 L 188.44,276.49 L 188.27,276.65 L 187.79,276.89 L 187.34,276.94 L 186.29,277.00 L 185.50,277.00 L 183.89,276.88 L 182.99,276.69 L 182.63,276.52 L 181.95,276.15 L 181.68,275.90 L 181.18,275.34 L 180.99,274.99 L 180.54,273.98 L 180.41,273.47 L 180.44,273.27 L 180.57,272.91 L 180.72,272.77 L 181.10,272.52 L 181.38,272.41 L 183.46,272.01 M 160.49,272.04 L 161.36,272.15 L 161.52,272.30 L 161.67,272.65 L 161.53,272.97 L 161.12,273.70 L 160.76,274.25 L 159.87,275.27 L 159.26,275.69 L 157.94,276.43 L 157.24,276.65 L 155.84,277.00 L 155.24,276.98 L 154.14,276.81 L 153.82,276.49 L 153.54,275.49 L 153.59,274.48 L 153.73,273.94 L 154.16,273.00 L 154.61,272.55 L 154.96,272.40 L 155.73,272.15 L 156.27,272.09 L 157.46,272.00 L 158.24,272.00 M 130.18,272.27 L 131.15,272.70 L 131.40,273.02 L 131.76,273.71 L 131.69,274.14 L 131.38,275.04 L 130.96,275.54 L 130.04,276.42 L 129.50,276.65 L 128.39,276.97 L 127.83,276.93 L 126.73,276.72 L 126.26,276.42 L 125.37,275.69 L 125.07,275.13 L 124.52,273.65 L 124.56,272.93 L 124.80,272.69 L 125.42,272.27 L 125.97,272.16 L 127.23,272.00 L 128.11,272.00 M 112.86,272.10 L 113.42,272.27 L 113.58,272.44 L 113.84,272.83 L 113.87,273.13 L 113.88,273.79 L 113.82,274.25 L 113.39,275.49 L 112.94,275.93 L 111.91,276.67 L 111.31,276.82 L 110.10,276.97 L 109.58,276.78 L 108.63,276.21 L 108.41,275.62 L 108.15,274.11 L 108.35,273.28 L 108.63,272.97 L 109.30,272.42 L 109.80,272.25 L 110.92,272.00 L 111.63,272.00 M 148.35,272.28 L 148.63,272.49 L 149.03,272.98 L 148.98,273.36 L 148.72,274.22 L 148.36,274.80 L 147.40,275.99 L 146.81,276.33 L 145.59,276.84 L 144.98,276.84 L 143.78,276.68 L 143.28,276.34 L 142.37,275.50 L 142.12,274.82 L 141.75,273.55 L 141.76,272.99 L 141.94,272.82 L 142.42,272.51 L 142.87,272.42 L 143.94,272.26 L 144.73,272.18 L 147.24,272.11 Z" fill="rgb(199,68,87)"/>
    <path d="M 251.74,276.37 L 250.68,276.83 L 250.22,276.96 L 248.04,277.49 L 247.01,277.66 L 246.00,277.82 L 245.57,277.86 L 244.77,277.92 L 244.50,277.91 L 240.51,277.15 L 242.59,277.48 L 243.98,277.62 L 246.85,277.45 L 248.28,277.29 L 251.05,276.53 L 252.23,276.14 M 207.24,277.84 L 207.24,277.84 L 207.17,277.84 M 208.24,277.81 L 207.60,277.83 L 208.25,277.80 M 213.62,276.09 L 211.30,277.06 L 210.26,277.36 L 208.88,277.66 L 210.27,277.35 L 211.31,277.06 L 213.62,276.08 M 204.13,277.55 L 204.13,277.55 L 203.97,277.51 M 160.41,274.75 L 159.58,275.72 L 159.00,276.08 L 157.76,276.72 L 157.10,276.88 L 155.78,277.11 L 155.19,277.04 L 154.46,276.86 L 155.24,276.98 L 155.84,277.00 L 157.24,276.65 L 157.94,276.43 L 159.26,275.69 L 159.87,275.27 L 160.66,274.37 M 129.59,276.63 L 128.94,276.94 L 128.62,276.99 L 127.97,277.02 L 127.64,276.94 L 127.43,276.86 L 127.83,276.93 L 128.39,276.97 L 129.50,276.65 L 129.73,276.55 M 182.63,276.52 L 182.99,276.69 L 183.89,276.88 L 185.50,277.00 L 185.44,277.00 L 183.55,276.89 L 182.63,276.66 L 182.29,276.43 L 182.01,276.19 M 274.45,276.93 L 274.94,276.86 L 275.51,276.49 L 275.74,276.25 L 275.92,275.37 L 275.98,274.85 L 275.98,273.25 L 275.98,272.73 L 275.92,271.88 L 275.88,271.49 L 275.76,270.94 L 275.69,270.70 L 275.52,270.50 L 275.23,270.65 L 275.03,270.97 L 273.98,271.56 L 272.00,272.15 L 271.15,272.27 L 270.04,272.97 L 269.18,274.75 L 269.11,275.24 L 269.13,275.93 L 269.18,276.24 L 269.53,276.61 L 269.75,276.77 L 270.56,276.93 L 272.43,277.00 L 268.90,277.00 L 269.20,271.75 L 269.31,270.05 L 269.38,269.13 L 269.43,268.76 L 269.67,267.52 L 269.90,267.16 L 270.44,266.60 L 270.90,266.46 L 271.96,266.26 L 272.75,266.19 L 276.00,265.87 L 276.00,277.00 L 273.30,277.00 M 299.22,277.00 L 299.19,277.00 L 299.04,276.96 M 313.32,276.92 L 313.81,276.86 L 314.40,276.57 L 314.65,276.39 L 314.89,275.80 L 314.97,275.45 L 315.00,274.44 L 315.00,277.00 L 312.22,277.00 M 352.52,266.12 L 353.30,266.34 L 353.61,266.54 L 354.17,266.98 L 354.40,267.31 L 354.82,268.02 L 355.00,268.50 L 355.72,269.91 L 356.42,270.49 L 357.07,270.65 L 357.77,270.80 L 358.23,270.84 L 359.24,270.93 L 359.87,270.95 L 361.24,270.98 L 362.08,270.99 L 363.89,271.00 L 374.00,271.00 L 365.25,271.06 L 363.67,271.07 L 360.90,271.13 L 359.57,271.17 L 357.30,271.28 L 356.21,271.35 L 354.39,271.54 L 353.53,271.64 L 352.11,271.91 L 351.46,272.05 L 350.42,272.40 L 349.94,272.59 L 349.23,273.04 L 348.92,273.27 L 348.51,273.82 L 348.18,274.76 L 348.10,275.32 L 348.22,276.05 L 348.30,276.21 L 348.66,276.45 L 348.88,276.56 L 349.58,276.71 L 349.98,276.78 L 351.12,276.88 L 351.75,276.92 L 353.43,276.96 L 354.34,276.98 L 356.65,276.99 L 360.93,277.00 L 348.00,277.00 L 348.00,271.50 L 348.01,269.70 L 348.03,268.73 L 348.05,268.34 L 348.20,267.05 L 348.39,266.70 L 348.86,266.18 L 349.29,266.09 L 350.27,266.00 L 351.02,266.00 M 393.74,277.00 L 393.47,277.00 L 393.19,276.97 M 148.27,274.99 L 147.97,275.63 L 147.80,275.80 L 146.96,276.43 L 146.41,276.65 L 145.27,277.00 L 144.77,277.00 L 143.12,276.60 L 142.72,276.22 L 142.56,275.91 L 142.38,275.50 L 143.28,276.34 L 143.78,276.68 L 144.98,276.84 L 145.59,276.84 L 146.81,276.33 L 147.40,275.99 L 148.33,274.84 M 395.50,276.92 L 395.95,276.87 L 396.49,276.61 L 396.71,276.45 L 396.87,275.93 L 396.92,275.62 L 396.82,274.75 L 396.76,274.30 L 396.50,273.62 L 396.34,273.32 L 395.82,272.89 L 395.51,272.69 L 394.62,272.44 L 392.75,272.19 L 391.97,272.13 L 390.85,272.11 L 390.35,272.12 L 389.70,272.29 L 389.43,272.41 L 389.41,272.44 L 389.43,272.28 L 389.62,271.13 L 389.76,270.46 L 390.30,268.34 L 390.70,267.40 L 390.98,267.11 L 391.60,266.62 L 392.06,266.48 L 393.08,266.26 L 393.79,266.19 L 397.00,265.87 L 397.00,277.00 L 394.48,277.00 M 300.09,276.98 L 299.87,277.00 L 299.84,277.00 M 187.34,276.94 L 187.79,276.89 L 188.27,276.65 L 188.44,276.49 L 188.46,275.97 L 188.43,275.66 L 188.11,274.75 L 188.09,274.69 L 188.98,277.00 L 186.29,277.00 M 200.62,276.53 L 201.92,276.99 L 201.84,276.97 L 200.50,276.50 L 200.33,276.41 M 334.30,275.45 L 334.95,275.88 L 336.48,276.55 L 337.88,276.83 L 336.79,276.72 L 335.59,276.47 L 335.24,276.33 L 334.58,275.82 L 334.00,275.22 M 301.18,276.80 L 301.17,276.80 L 301.18,276.79 M 112.74,276.33 L 112.44,276.49 L 111.74,276.75 L 111.42,276.80 L 111.91,276.67 L 112.94,275.93 L 113.06,275.81 M 340.28,276.71 L 340.19,276.74 L 340.34,276.62 M 153.82,276.49 L 153.75,276.42 L 153.66,275.90 M 237.26,276.00 L 236.84,275.84 L 236.72,275.77 M 181.68,275.90 L 181.70,275.92 L 181.65,275.88 L 181.63,275.84 M 214.71,275.59 L 214.37,275.74 L 214.81,275.52 M 142.36,275.45 L 142.26,275.23 L 142.23,275.10 M 302.00,271.50 L 302.00,272.76 L 301.99,273.28 L 301.97,274.24 L 301.95,274.62 L 301.87,275.26 L 301.82,274.75 L 301.75,274.28 L 301.49,273.60 L 301.33,273.29 L 300.76,272.87 L 300.43,272.68 L 299.42,272.44 L 297.25,272.19 L 296.08,272.11 L 294.25,272.19 L 293.86,272.23 L 293.34,272.36 L 293.00,272.61 L 293.00,273.08 L 293.52,273.94 L 292.81,273.27 L 292.08,272.35 L 290.69,270.42 L 290.14,269.35 L 289.67,267.69 L 289.97,266.92 L 290.49,266.67 L 291.07,266.44 L 291.47,266.35 L 292.33,266.20 L 292.87,266.15 L 294.03,266.06 L 294.73,266.03 L 296.21,266.00 L 302.00,266.00 M 112.38,266.62 L 112.96,266.92 L 113.12,267.25 L 113.39,268.06 L 113.44,268.75 L 113.50,270.33 L 113.50,271.50 L 113.49,272.35 L 113.42,272.27 L 112.86,272.10 L 111.63,272.00 L 110.92,272.00 L 109.80,272.25 L 109.30,272.42 L 108.63,272.97 L 108.35,273.28 L 108.15,274.11 L 108.28,274.89 L 108.16,274.50 L 108.10,273.62 L 108.08,271.66 L 108.18,270.36 L 108.43,268.33 L 108.68,267.44 L 108.88,267.17 L 109.33,266.73 L 109.68,266.63 L 110.46,266.50 L 111.00,266.50 M 133.61,269.20 L 132.72,272.13 L 131.88,274.06 L 131.54,274.58 L 131.69,274.14 L 131.76,273.71 L 131.40,273.02 L 131.15,272.70 L 130.18,272.27 L 128.11,272.00 L 127.23,272.00 L 125.97,272.16 L 125.42,272.27 L 124.80,272.69 L 124.56,272.93 L 124.52,273.65 L 124.75,274.28 L 124.53,273.97 L 123.97,272.75 L 123.02,270.60 L 122.56,269.43 L 122.41,268.97 L 122.19,268.10 L 122.17,267.77 L 122.22,267.17 L 122.36,266.95 L 122.70,266.56 L 123.00,266.43 L 123.68,266.21 L 124.15,266.15 L 125.18,266.05 L 125.84,266.02 L 127.26,266.00 L 134.25,266.00 M 183.00,266.25 L 184.02,266.67 L 184.48,267.15 L 185.36,268.29 L 185.82,269.20 L 186.28,270.18 L 186.53,270.77 L 187.05,272.02 L 187.33,272.75 L 187.88,274.16 L 187.09,273.28 L 186.63,272.87 L 185.45,272.34 L 184.83,272.12 L 183.46,272.01 L 181.38,272.41 L 181.10,272.52 L 180.72,272.77 L 180.57,272.91 L 180.44,273.27 L 180.42,273.43 L 179.76,271.77 L 179.35,270.64 L 179.21,270.16 L 178.80,268.48 L 178.84,267.92 L 179.08,266.97 L 179.46,266.70 L 180.37,266.28 L 181.09,266.20 M 341.00,271.50 L 341.00,272.69 L 340.99,273.19 L 340.97,273.76 L 340.88,273.16 L 340.79,272.82 L 340.36,272.41 L 340.08,272.24 L 339.17,272.08 L 337.06,272.00 L 335.98,272.00 L 334.11,272.27 L 333.70,272.36 L 333.08,272.57 L 332.54,272.93 L 332.44,273.09 L 332.46,273.39 L 331.99,272.82 L 331.16,271.70 L 329.54,269.44 L 328.96,268.51 L 328.43,267.63 L 328.26,267.30 L 328.00,266.71 L 328.00,266.57 L 328.51,266.35 L 329.32,266.22 L 329.91,266.17 L 331.20,266.07 L 331.98,266.04 L 333.61,266.00 L 341.00,266.00 M 231.74,266.20 L 232.94,266.52 L 233.57,266.76 L 236.15,267.91 L 237.29,268.70 L 240.97,270.67 L 243.34,271.32 L 244.52,271.32 L 246.87,271.09 L 248.08,270.64 L 250.51,269.53 L 251.78,268.65 L 253.79,267.39 L 254.94,266.82 L 255.46,266.65 L 256.46,266.40 L 256.94,266.39 L 257.89,266.44 L 258.38,266.56 L 260.23,267.32 L 261.00,267.96 L 261.00,268.24 L 260.69,269.14 L 260.20,269.87 L 259.84,270.28 L 258.11,272.05 L 257.66,272.41 L 253.00,271.91 L 252.24,271.83 L 250.44,271.71 L 249.50,271.66 L 247.46,271.60 L 245.38,271.56 L 241.13,271.63 L 240.11,271.66 L 238.22,271.76 L 237.32,271.81 L 235.78,271.94 L 235.07,272.02 L 234.03,272.19 L 233.18,272.49 L 232.95,272.71 L 233.07,273.29 L 233.22,273.60 L 233.34,273.70 L 232.55,273.20 L 231.37,272.14 L 230.25,271.07 L 229.77,270.51 L 228.88,269.38 L 228.54,268.80 L 226.89,266.00 L 230.14,266.00 M 194.21,266.21 L 195.66,266.36 L 196.38,266.63 L 197.78,267.28 L 198.35,267.79 L 200.41,269.48 L 201.75,270.39 L 202.40,270.73 L 203.69,271.35 L 204.32,271.54 L 205.34,271.80 L 204.00,271.81 L 202.98,271.82 L 201.17,271.86 L 200.30,271.89 L 198.82,271.95 L 198.12,271.99 L 197.01,272.08 L 196.50,272.12 L 195.79,272.24 L 195.24,272.43 L 195.00,272.67 L 195.08,273.21 L 194.98,273.14 L 194.05,272.25 L 192.35,270.46 L 191.84,269.66 L 191.41,268.89 L 191.31,268.55 L 191.19,267.91 L 191.27,267.67 L 192.34,266.56 L 193.51,266.20 M 141.92,257.30 L 141.95,257.92 L 142.00,259.23 L 142.00,266.00 L 145.50,266.00 L 147.51,266.07 L 148.33,266.29 L 148.55,266.56 L 148.88,267.23 L 148.94,267.84 L 149.00,269.24 L 149.00,270.30 L 148.76,272.64 L 148.63,272.49 L 148.35,272.28 L 147.24,272.11 L 144.73,272.18 L 143.94,272.26 L 142.87,272.42 L 142.42,272.51 L 141.94,272.82 L 141.82,272.94 L 141.65,271.42 L 141.57,270.45 L 141.44,268.36 L 141.37,267.09 L 141.25,264.37 L 141.19,262.75 L 141.18,262.71 L 141.19,262.82 L 141.23,263.78 L 141.30,264.91 L 141.32,265.12 L 141.36,265.35 L 141.38,265.42 L 141.42,265.37 L 141.44,265.31 L 141.48,264.97 L 141.50,264.76 L 141.56,264.13 L 141.58,263.78 L 141.64,262.86 L 141.74,261.13 L 141.79,260.26 L 141.83,258.61 L 141.84,257.82 L 141.81,256.45 L 141.81,256.34 M 159.81,266.42 L 160.53,266.60 L 161.86,267.03 L 162.42,267.37 L 162.56,267.61 L 162.76,268.13 L 162.75,268.50 L 162.65,269.32 L 162.51,269.88 L 161.63,272.39 L 161.59,272.47 L 161.52,272.30 L 161.36,272.15 L 160.49,272.04 L 158.24,272.00 L 157.46,272.00 L 156.27,272.09 L 155.73,272.15 L 154.96,272.40 L 154.61,272.55 L 154.23,272.93 L 154.31,272.61 L 154.69,271.45 L 155.51,269.15 L 155.93,268.24 L 156.35,267.38 L 156.53,267.08 L 156.90,266.56 L 157.05,266.47 L 158.43,266.29 M 220.27,266.30 L 220.68,266.63 L 220.81,266.88 L 221.00,267.42 L 221.00,267.78 L 220.46,270.03 L 219.60,271.56 L 218.95,272.29 L 218.42,272.81 L 218.28,272.56 L 218.15,272.43 L 217.64,272.22 L 217.34,272.13 L 216.49,272.00 L 214.81,271.90 L 212.10,271.84 L 208.13,271.81 L 209.16,271.57 L 209.74,271.33 L 210.90,270.77 L 211.47,270.38 L 212.60,269.53 L 213.16,269.00 L 215.88,266.98 L 217.65,266.18 L 218.41,266.06 L 219.81,266.02 M 138.68,257.59 L 139.45,257.82 L 139.72,257.88 L 140.15,258.22 L 139.75,258.00 L 139.46,258.00 L 138.76,257.91 L 138.49,257.75 L 138.45,257.60 L 138.45,257.41 M 140.79,254.08 L 140.92,254.13 L 140.59,254.28 L 139.37,255.50 L 139.04,255.94 L 138.97,256.06 L 139.00,256.00 L 139.68,254.89 L 140.09,254.39 L 140.28,254.26 L 140.63,254.06 M 314.90,273.08 L 314.82,272.74 L 314.46,272.35 L 314.24,272.19 L 313.48,272.10 L 311.75,272.19 L 311.13,272.25 L 310.18,272.45 L 309.74,272.56 L 309.12,272.91 L 308.85,273.11 L 308.49,273.66 L 308.18,274.75 L 308.11,275.24 L 308.13,275.93 L 308.18,276.24 L 308.53,276.61 L 308.75,276.77 L 309.56,276.93 L 311.43,277.00 L 308.00,277.00 L 308.00,266.00 L 315.00,266.00 L 315.00,273.86 Z" fill="rgb(222,39,53)"/>
    <path d="M 279.86,244.75 L 280.98,246.26 L 282.08,247.76 L 282.57,248.46 L 283.51,249.81 L 283.87,250.37 L 284.52,251.41 L 284.70,251.75 L 284.95,252.31 L 284.89,252.37 L 284.42,252.61 L 283.84,252.87 L 283.44,253.04 L 281.60,253.80 L 280.50,254.22 L 279.28,254.71 L 279.34,254.62 L 279.37,254.49 L 279.19,254.13 L 278.54,253.40 L 278.20,253.05 L 277.58,252.59 L 277.28,252.39 L 276.75,252.22 L 276.50,252.17 L 276.07,252.28 L 275.87,252.37 L 275.54,252.76 L 275.39,252.99 L 275.16,253.65 L 275.06,254.02 L 274.93,254.96 L 274.89,255.46 L 274.87,256.66 L 274.98,258.76 L 275.04,259.45 L 275.13,260.59 L 275.18,261.11 L 275.26,261.91 L 275.29,262.27 L 275.35,262.75 L 275.38,262.95 L 275.44,263.12 L 275.46,263.16 L 275.51,263.02 L 275.54,262.92 L 275.59,262.49 L 275.62,262.24 L 275.68,261.52 L 275.79,260.14 L 275.85,259.32 L 276.05,258.05 L 276.16,257.47 L 276.47,256.62 L 276.64,256.24 L 277.11,255.74 L 277.37,255.52 L 278.03,255.28 L 278.25,255.22 L 277.35,255.81 L 277.04,256.21 L 276.52,257.09 L 276.35,257.73 L 276.06,259.14 L 275.93,260.13 L 275.36,264.50 L 274.93,259.00 L 274.78,257.25 L 274.69,256.29 L 274.63,255.91 L 274.38,254.64 L 274.18,254.29 L 273.69,253.78 L 273.30,253.70 L 272.41,253.64 L 271.75,253.69 L 269.00,253.88 L 269.00,245.94 L 269.00,245.50 L 273.81,245.17 L 274.68,245.11 L 276.10,245.10 L 276.76,245.12 L 277.82,245.27 L 278.31,245.37 L 279.06,245.70 L 279.93,246.42 L 280.25,246.81 L 280.77,247.37 L 281.00,247.62 L 281.33,247.91 L 281.48,248.03 L 281.64,248.07 L 281.70,248.07 L 281.69,247.88 L 281.64,247.65 L 281.05,246.58 L 280.68,245.96 L 279.54,244.35 M 140.70,259.05 L 140.84,259.43 L 141.02,260.52 L 141.19,262.75 L 141.02,260.60 L 140.84,259.51 L 140.71,259.13 L 140.48,258.59 M 301.87,243.71 L 301.90,244.56 L 301.93,246.31 L 301.90,247.25 L 301.83,249.24 L 301.77,250.33 L 301.74,250.77 L 301.56,252.24 L 301.40,252.64 L 301.03,253.24 L 300.73,253.32 L 300.04,253.35 L 299.54,253.25 L 297.69,253.35 L 296.58,253.81 L 296.27,254.17 L 295.96,254.63 L 295.80,254.97 L 295.49,255.71 L 295.35,256.14 L 294.82,258.04 L 294.69,259.00 L 294.61,259.47 L 294.56,259.54 L 294.55,259.45 L 294.52,259.21 L 294.52,258.98 L 294.51,258.46 L 294.51,258.09 L 294.53,256.39 L 294.57,255.19 L 294.66,252.58 L 294.73,251.00 L 294.97,246.48 L 295.06,245.06 L 295.06,245.07 L 295.10,245.59 L 295.30,246.16 L 295.42,246.38 L 295.83,246.44 L 296.75,246.08 L 297.23,245.82 L 298.52,245.25 L 299.17,244.98 L 300.32,244.58 L 300.87,244.41 L 301.52,243.58 L 301.76,243.11 L 301.78,242.80 M 148.90,243.45 L 148.94,244.18 L 149.00,245.73 L 149.00,246.62 L 148.99,248.62 L 148.97,249.71 L 148.94,250.15 L 148.81,251.63 L 148.66,252.06 L 148.29,252.72 L 147.97,252.85 L 147.24,253.00 L 146.70,253.00 L 144.48,253.39 L 143.39,254.08 L 143.03,254.68 L 142.40,256.06 L 142.24,257.06 L 142.00,259.25 L 142.00,259.23 L 141.95,257.92 L 141.92,257.30 L 141.80,256.29 L 141.73,255.82 L 141.56,255.10 L 141.46,254.78 L 141.22,254.36 L 141.09,254.19 L 140.79,254.08 L 140.63,254.06 L 140.28,254.26 L 140.09,254.39 L 139.68,254.89 L 139.00,256.00 L 138.79,256.40 L 138.57,256.91 L 138.53,256.70 L 138.69,256.10 L 138.55,254.48 L 137.77,253.74 L 137.01,253.50 L 135.64,252.58 L 135.27,251.57 L 135.37,250.78 L 135.52,249.95 L 135.66,249.44 L 136.00,248.37 L 136.25,247.74 L 136.79,246.40 L 137.13,245.63 L 137.87,244.00 L 138.04,243.64 L 138.04,243.65 L 138.23,244.04 L 138.36,244.22 L 138.81,244.50 L 139.07,244.62 L 139.79,244.79 L 140.19,244.87 L 141.20,244.95 L 143.03,245.00 L 143.97,245.00 L 145.43,244.92 L 146.10,244.86 L 147.09,244.64 L 147.53,244.51 L 148.13,244.13 L 148.40,243.92 L 148.69,243.36 L 148.84,242.98 M 140.40,258.42 L 140.41,258.45 L 140.30,258.33 M 230.55,243.73 L 230.42,244.07 L 230.52,244.54 L 230.66,244.73 L 231.56,244.93 L 231.85,244.97 L 232.63,245.00 L 233.06,245.00 L 234.15,244.98 L 234.74,244.96 L 236.18,244.88 L 238.79,244.73 L 240.01,244.65 L 242.31,244.56 L 242.73,244.55 L 242.73,244.55 L 239.24,245.69 L 238.18,246.25 L 237.73,246.55 L 236.91,247.18 L 236.62,247.50 L 236.05,248.21 L 235.76,248.67 L 235.17,249.64 L 234.89,250.17 L 233.84,252.41 L 233.55,253.42 L 232.94,255.40 L 232.62,256.14 L 232.47,256.25 L 232.16,256.30 L 231.96,256.09 L 231.54,255.52 L 231.24,255.04 L 229.75,253.60 L 228.49,253.00 L 227.92,253.00 L 226.93,252.91 L 226.51,252.73 L 226.40,252.57 L 226.27,252.18 L 226.31,251.88 L 226.43,251.23 L 226.57,250.77 L 227.74,247.80 L 228.67,246.04 L 229.22,245.27 L 230.36,243.79 L 230.94,243.24 M 316.45,244.80 L 316.95,244.74 L 317.70,244.58 L 318.03,244.50 L 318.35,244.32 L 318.51,244.15 L 318.52,243.67 L 318.49,243.50 L 319.32,244.54 L 319.92,245.34 L 321.16,247.01 L 321.84,247.97 L 325.04,252.44 L 322.78,253.28 L 320.52,253.58 L 318.90,253.37 L 318.22,253.05 L 316.45,252.30 L 315.70,252.07 L 315.48,252.09 L 315.15,252.25 L 315.08,252.49 L 315.00,253.05 L 315.00,253.50 L 314.96,254.28 L 314.85,254.50 L 314.54,254.82 L 314.24,254.81 L 313.52,254.67 L 312.95,254.42 L 311.66,253.82 L 310.75,253.34 L 309.22,252.37 L 308.58,251.64 L 308.40,251.09 L 308.12,249.82 L 308.06,248.83 L 308.02,247.78 L 308.01,247.13 L 308.00,245.77 L 308.00,245.00 L 314.16,245.00 M 389.15,246.43 L 389.41,246.55 L 389.57,246.58 L 390.06,246.44 L 391.13,245.93 L 391.42,245.78 L 392.57,245.45 L 393.23,245.28 L 394.94,244.97 L 396.75,244.67 L 397.00,244.64 L 397.00,248.03 L 396.91,249.94 L 396.75,250.92 L 396.61,251.28 L 396.29,251.92 L 396.07,252.14 L 395.57,252.50 L 395.25,252.60 L 393.50,253.26 L 392.24,253.82 L 391.76,254.07 L 390.59,254.69 L 390.20,254.79 L 389.56,254.82 L 389.38,254.52 L 389.22,254.17 L 389.17,253.90 L 389.08,253.30 L 389.06,252.89 L 389.02,252.00 L 389.01,251.44 L 389.00,250.23 L 389.00,245.85 L 389.09,246.26 M 119.60,246.71 L 119.98,247.70 L 120.41,248.83 L 120.58,249.30 L 120.89,250.16 L 121.01,250.51 L 121.34,251.69 L 121.32,252.06 L 121.15,252.66 L 120.88,252.88 L 120.20,253.27 L 119.66,253.52 L 118.47,253.86 L 117.42,254.02 L 116.81,254.07 L 114.24,254.14 L 108.50,253.50 L 108.21,245.75 L 108.18,245.00 L 118.91,245.00 M 348.20,242.91 L 348.51,243.58 L 348.69,243.89 L 349.21,244.39 L 350.25,244.97 L 351.01,245.27 L 352.28,245.66 L 352.86,245.81 L 353.77,245.89 L 354.17,245.90 L 354.69,245.68 L 354.89,245.53 L 354.91,245.45 L 355.15,249.00 L 355.24,250.24 L 355.26,250.75 L 355.30,251.68 L 355.28,252.05 L 355.22,252.71 L 355.15,252.95 L 354.96,253.38 L 354.81,253.51 L 354.46,253.73 L 354.21,253.77 L 353.65,253.82 L 353.28,253.79 L 352.49,253.70 L 351.98,253.62 L 350.91,253.42 L 350.25,253.29 L 349.02,252.87 L 348.49,252.33 L 348.34,251.80 L 348.21,251.23 L 348.16,250.85 L 348.08,250.03 L 348.06,249.52 L 348.02,248.41 L 348.01,247.74 L 348.00,246.29 L 348.00,241.58 L 348.12,242.49 M 259.25,244.38 L 259.70,245.18 L 260.56,246.86 L 260.94,247.84 L 261.68,249.89 L 262.02,251.06 L 262.36,252.55 L 262.34,253.18 L 262.15,253.35 L 261.62,253.62 L 261.12,253.67 L 259.94,253.73 L 259.04,253.73 L 257.01,253.62 L 256.06,253.40 L 255.72,253.17 L 255.10,252.61 L 254.85,252.15 L 254.36,251.11 L 254.08,250.35 L 252.38,247.41 L 250.80,245.92 L 249.82,245.41 L 248.05,244.70 L 248.74,244.84 L 248.93,244.96 L 249.61,245.11 L 249.99,245.18 L 250.97,245.24 L 252.01,245.28 L 254.43,245.14 L 255.62,245.04 L 257.61,244.68 L 258.03,244.57 L 258.62,244.34 L 258.86,244.23 L 258.97,244.02 M 202.39,245.10 L 200.66,245.90 L 200.13,246.40 L 199.31,247.47 L 199.25,248.10 L 199.39,249.40 L 199.84,250.11 L 200.66,251.66 L 200.91,252.39 L 200.82,252.46 L 200.63,252.56 L 200.40,252.62 L 199.86,252.77 L 199.49,252.86 L 197.77,253.23 L 196.74,253.42 L 194.88,253.67 L 193.96,253.70 L 193.62,253.63 L 193.04,253.43 L 192.83,253.25 L 192.48,252.82 L 192.36,252.50 L 192.05,250.11 L 192.20,248.11 L 192.42,247.06 L 192.95,244.98 L 193.20,244.40 L 193.34,244.61 L 193.55,244.76 L 194.60,244.91 L 194.92,244.94 L 195.75,244.95 L 196.20,244.94 L 197.31,244.91 L 197.90,244.88 L 199.33,244.80 L 201.84,244.62 L 202.89,244.54 L 204.66,244.42 L 205.49,244.36 L 205.62,244.36 M 176.37,242.40 L 176.61,243.02 L 177.11,244.31 L 177.39,245.08 L 178.38,247.89 L 178.91,249.59 L 179.11,250.30 L 179.45,251.62 L 179.53,252.07 L 179.62,252.81 L 179.55,252.92 L 179.05,253.28 L 178.48,253.42 L 178.04,253.43 L 177.04,253.42 L 176.36,253.36 L 174.84,253.21 L 173.86,253.08 L 173.22,252.29 L 172.76,251.19 L 172.59,250.50 L 171.88,248.68 L 171.32,248.10 L 171.00,248.12 L 170.33,248.37 L 169.96,248.81 L 169.20,249.90 L 168.79,250.75 L 168.31,251.66 L 168.04,252.01 L 167.47,252.65 L 167.14,252.88 L 166.46,253.28 L 166.06,253.40 L 165.22,253.58 L 164.74,253.60 L 162.85,253.42 L 162.47,253.20 L 162.35,253.02 L 162.16,252.62 L 162.14,252.34 L 162.14,251.72 L 162.21,251.32 L 162.40,250.44 L 162.56,249.88 L 162.93,248.70 L 163.18,247.98 L 163.73,246.44 L 164.07,245.53 L 164.47,244.64 L 164.49,244.76 L 164.87,244.93 L 165.92,245.00 L 166.46,245.00 L 167.49,245.29 L 168.50,246.00 L 168.67,246.27 L 169.20,246.71 L 170.00,247.00 L 170.24,247.00 L 170.80,246.71 L 171.08,246.52 L 171.50,246.00 L 171.67,245.72 L 172.65,245.29 L 174.56,245.00 L 175.27,245.00 L 176.16,244.97 L 176.53,244.93 L 176.82,244.60 L 176.90,244.37 L 176.69,243.46 L 176.16,241.91 M 220.26,245.33 L 220.50,246.11 L 220.69,246.87 L 220.69,247.19 L 220.62,247.80 L 220.48,248.03 L 219.11,248.92 L 217.79,249.04 L 217.04,248.87 L 215.48,248.41 L 214.72,247.99 L 213.63,247.27 L 213.81,247.15 L 214.27,246.47 L 214.50,246.07 L 215.59,245.43 L 216.19,245.17 L 217.58,245.00 L 218.14,245.00 L 218.87,244.93 L 219.18,244.88 L 219.47,244.65 L 219.57,244.51 L 219.47,244.05 M 340.99,251.96 L 340.96,253.27 L 340.90,255.77 L 340.85,256.77 L 340.75,258.57 L 340.69,259.13 L 340.63,259.63 L 340.60,259.78 L 340.53,260.00 L 340.50,260.00 L 340.15,259.30 L 340.00,258.28 L 340.00,257.62 L 339.60,255.65 L 338.98,254.53 L 338.55,254.12 L 337.63,253.42 L 337.11,253.28 L 336.04,253.15 L 335.51,253.36 L 334.74,253.35 L 334.39,252.89 L 334.28,252.36 L 334.18,251.77 L 334.14,251.38 L 334.08,250.54 L 334.06,250.02 L 334.02,248.90 L 334.01,248.23 L 334.00,246.81 L 334.00,241.49 L 334.14,242.41 L 334.24,242.84 L 334.61,243.56 L 334.82,243.91 L 335.46,244.51 L 336.75,245.34 L 337.26,245.61 L 338.11,246.04 L 338.50,246.23 L 339.14,246.49 L 339.73,246.71 L 340.41,246.56 L 340.55,246.47 L 340.73,246.11 L 340.81,245.91 L 340.91,245.31 L 340.95,244.98 L 340.99,244.11 L 341.00,243.65 L 341.00,242.50 L 341.00,249.00 M 210.44,244.43 L 211.27,244.86 L 212.20,245.94 L 212.20,245.94 L 211.20,244.99 L 210.34,244.42 M 404.61,244.00 L 405.68,243.90 L 406.23,243.84 L 407.08,243.69 L 407.46,243.62 L 408.01,243.42 L 408.51,243.21 L 408.88,242.52 L 409.00,240.86 L 409.00,244.00 M 114.03,238.40 L 115.44,239.15 L 116.07,239.86 L 116.69,240.64 L 117.00,241.13 L 117.61,242.18 L 117.93,242.83 L 117.96,242.90 L 117.29,241.75 L 116.91,241.10 L 116.20,240.13 L 115.83,239.70 L 115.04,239.09 L 114.62,238.82 L 113.61,238.49 L 111.70,238.19 L 110.79,238.11 L 109.59,238.08 L 109.07,238.09 L 108.49,238.39 L 108.25,238.60 L 108.07,239.41 L 108.02,240.80 L 107.92,238.00 L 111.43,238.00 M 256.47,241.37 L 257.69,242.40 L 257.70,242.41 L 255.97,240.99 M 195.81,240.90 L 196.18,240.60 L 196.40,240.48 M 209.25,238.20 L 211.11,238.43 L 211.99,238.64 L 213.70,239.10 L 214.47,239.42 L 214.79,239.64 L 213.72,239.22 L 212.52,238.84 L 209.82,238.41 L 208.44,238.25 L 205.58,238.25 L 204.16,238.31 L 201.41,238.75 L 200.07,239.02 L 197.68,239.88 L 196.78,240.26 L 197.51,239.86 L 198.28,239.56 L 199.88,238.99 L 200.76,238.78 L 202.56,238.40 L 203.51,238.29 L 207.37,238.01 M 274.74,238.91 L 275.17,239.25 L 276.10,240.17 L 275.07,239.28 L 274.46,238.81 L 274.02,238.62 M 299.69,238.50 L 300.62,239.04 L 300.93,239.42 L 301.24,240.12 L 299.89,238.69 L 299.27,238.31 M 296.35,238.50 L 295.92,238.88 L 295.48,239.91 L 295.55,239.34 L 295.59,239.14 L 295.65,238.80 L 295.68,238.75 L 296.63,238.11 L 297.13,238.04 M 313.04,238.48 L 314.56,239.34 L 315.09,239.82 L 313.40,238.80 L 312.92,238.56 L 312.28,238.31 M 146.09,238.27 L 146.79,238.53 L 147.08,238.73 L 147.62,239.20 L 147.84,239.52 L 148.00,239.80 L 147.35,239.25 L 146.92,238.93 L 145.89,238.49 L 145.36,238.30 L 144.84,238.23 M 173.69,238.24 L 174.44,238.74 L 174.70,239.11 L 173.94,238.51 L 173.51,238.24 L 173.35,238.18 M 269.67,238.36 L 269.69,238.32 L 269.73,238.30 M 270.53,238.05 L 270.75,238.00 L 270.81,238.00 M 309.30,238.10 L 308.92,238.18 L 308.45,238.56 L 308.26,238.80 L 308.08,239.62 L 308.00,241.50 L 308.00,238.00 L 310.18,238.00 M 340.94,239.91 L 340.89,239.28 L 340.56,238.57 L 340.34,238.29 L 339.52,238.07 L 337.50,238.00 L 341.00,238.00 L 341.00,241.38 M 336.70,238.00 L 335.60,238.08 L 335.12,238.15 L 334.55,238.46 L 334.31,238.66 L 334.10,239.35 L 334.00,240.95 L 334.00,238.00 Z" fill="rgb(211,97,1)"/>
    <path d="M 512.00,512.00 L 0.00,512.00 L 0.00,0.00 L 512.00,0.00 M 83.37,214.00 L 80.69,216.80 L 78.00,219.61 L 78.00,292.39 L 83.37,298.00 L 431.37,298.00 L 433.69,295.83 L 436.00,293.65 L 436.00,253.82 L 436.00,249.60 L 436.00,247.55 L 435.99,243.86 L 435.99,242.08 L 435.98,238.87 L 435.98,237.33 L 435.96,234.57 L 435.95,233.25 L 435.93,230.91 L 435.92,229.79 L 435.88,227.82 L 435.86,226.88 L 435.81,225.26 L 435.78,224.49 L 435.72,223.16 L 435.65,221.90 L 435.46,220.13 L 435.35,219.34 L 435.07,218.28 L 434.92,217.81 L 434.54,217.16 L 433.83,216.31 L 431.65,214.00 M 267.88,217.52 L 289.48,217.53 L 294.84,217.53 L 305.40,217.54 L 310.65,217.55 L 320.94,217.57 L 326.05,217.58 L 335.98,217.60 L 340.89,217.61 L 350.38,217.63 L 355.06,217.64 L 364.02,217.67 L 368.43,217.69 L 376.78,217.72 L 380.87,217.74 L 388.52,217.77 L 392.25,217.79 L 399.12,217.84 L 402.45,217.86 L 408.45,217.90 L 411.34,217.93 L 416.39,217.98 L 417.59,217.99 L 419.80,218.01 L 420.87,218.03 L 422.81,218.06 L 423.74,218.07 L 425.40,218.10 L 426.20,218.11 L 427.58,218.14 L 428.23,218.16 L 429.30,218.19 L 429.80,218.20 L 430.57,218.23 L 430.92,218.25 L 431.36,218.28 L 431.67,218.33 L 431.70,218.37 L 431.77,218.64 L 431.80,218.81 L 431.86,219.35 L 431.92,219.94 L 432.02,221.84 L 432.07,222.89 L 432.16,225.60 L 432.21,227.04 L 432.28,230.41 L 432.31,232.17 L 432.37,236.07 L 432.39,238.07 L 432.43,242.36 L 432.47,246.72 L 432.48,256.00 L 432.48,260.64 L 432.43,269.64 L 432.42,271.82 L 432.37,275.93 L 432.34,277.93 L 432.28,281.59 L 432.25,283.35 L 432.16,286.40 L 432.12,287.84 L 432.02,290.16 L 431.97,291.22 L 431.86,292.65 L 431.83,292.95 L 431.77,293.36 L 431.67,293.67 L 431.65,293.68 L 431.40,293.70 L 431.23,293.72 L 430.68,293.74 L 430.36,293.75 L 429.52,293.78 L 429.06,293.79 L 427.93,293.81 L 427.33,293.82 L 425.93,293.85 L 425.20,293.86 L 423.54,293.88 L 421.82,293.90 L 417.62,293.95 L 415.41,293.97 L 410.28,294.02 L 407.62,294.04 L 401.65,294.08 L 398.56,294.10 L 391.82,294.14 L 388.36,294.16 L 380.91,294.20 L 377.11,294.22 L 369.04,294.26 L 364.94,294.27 L 356.33,294.31 L 351.96,294.32 L 342.88,294.36 L 338.28,294.37 L 328.80,294.40 L 324.02,294.42 L 314.22,294.45 L 309.29,294.46 L 299.24,294.48 L 289.15,294.51 L 268.55,294.55 L 258.23,294.57 L 237.64,294.59 L 227.40,294.61 L 207.42,294.62 L 202.49,294.62 L 192.85,294.63 L 188.07,294.63 L 178.79,294.63 L 174.20,294.63 L 165.36,294.62 L 161.00,294.62 L 152.66,294.61 L 148.57,294.60 L 140.82,294.59 L 137.03,294.58 L 129.95,294.57 L 126.50,294.56 L 120.15,294.54 L 117.08,294.53 L 111.55,294.50 L 108.89,294.49 L 104.25,294.45 L 102.05,294.44 L 98.38,294.40 L 97.52,294.39 L 96.01,294.37 L 95.28,294.36 L 94.03,294.34 L 93.44,294.33 L 92.47,294.31 L 92.02,294.30 L 91.34,294.28 L 82.17,293.93 L 81.48,285.64 L 81.43,284.96 L 81.33,283.09 L 81.29,282.08 L 81.21,279.65 L 81.18,278.36 L 81.13,275.45 L 81.11,273.94 L 81.08,270.65 L 81.06,267.28 L 81.07,259.81 L 81.09,256.01 L 81.17,248.28 L 81.21,244.44 L 81.36,237.21 L 81.39,235.46 L 81.48,232.21 L 81.52,230.62 L 81.62,227.76 L 81.67,226.38 L 81.78,224.00 L 81.84,222.88 L 81.95,221.08 L 82.01,220.26 L 82.14,219.14 L 82.33,218.33 L 82.35,218.32 L 82.64,218.28 L 82.82,218.27 L 83.43,218.23 L 83.77,218.22 L 84.70,218.19 L 85.20,218.17 L 86.42,218.14 L 87.07,218.13 L 88.60,218.10 L 89.39,218.08 L 91.19,218.06 L 92.13,218.04 L 94.21,218.01 L 95.28,218.00 L 97.61,217.98 L 100.01,217.95 L 105.55,217.90 L 108.44,217.88 L 114.88,217.84 L 118.21,217.81 L 125.48,217.77 L 129.21,217.76 L 137.22,217.72 L 141.31,217.70 L 149.98,217.67 L 154.38,217.66 L 163.62,217.63 L 168.30,217.62 L 178.02,217.60 L 182.93,217.59 L 193.06,217.57 L 198.16,217.56 L 208.60,217.54 L 213.85,217.54 L 224.52,217.53 L 235.24,217.52 L 257.00,217.52 M 423.25,265.46 L 423.01,265.55 L 422.14,265.96 L 421.65,266.20 L 420.33,266.87 L 419.62,267.24 L 417.92,268.14 L 417.03,268.61 L 415.03,269.70 L 412.96,270.82 L 408.19,273.45 L 405.76,274.80 L 400.69,277.64 L 398.17,279.06 L 393.36,281.80 L 392.20,282.47 L 390.03,283.72 L 388.98,284.33 L 387.07,285.44 L 386.15,285.98 L 384.58,286.92 L 383.84,287.36 L 382.67,288.09 L 382.14,288.42 L 381.44,288.88 L 381.01,289.25 L 381.01,289.30 L 381.46,289.40 L 381.75,289.45 L 382.74,289.54 L 383.30,289.59 L 384.77,289.67 L 385.57,289.71 L 387.46,289.78 L 388.46,289.81 L 390.72,289.87 L 391.89,289.90 L 394.46,289.94 L 403.00,290.00 L 425.00,290.00 L 425.00,275.94 L 424.99,273.53 L 424.98,272.39 L 424.95,270.55 L 424.93,269.69 L 424.87,268.36 L 424.83,267.75 L 424.73,266.85 L 424.67,266.44 L 424.51,265.90 L 424.42,265.67 L 424.20,265.43 M 241.86,238.75 L 240.70,238.86 L 238.58,239.27 L 237.55,239.50 L 235.69,240.16 L 234.79,240.53 L 233.18,241.46 L 232.40,241.95 L 231.02,243.15 L 230.36,243.79 L 229.22,245.27 L 228.67,246.04 L 227.74,247.80 L 226.57,250.77 L 226.43,251.23 L 226.31,251.88 L 226.27,252.18 L 226.40,252.57 L 226.51,252.73 L 226.93,252.91 L 227.92,253.00 L 228.49,253.00 L 228.64,253.07 L 228.59,253.06 L 228.34,253.07 L 227.85,253.16 L 227.62,253.31 L 227.18,253.70 L 226.99,254.00 L 226.62,254.94 L 226.42,255.82 L 226.34,256.35 L 226.07,258.68 L 226.04,259.93 L 226.03,262.40 L 226.14,263.38 L 226.26,264.29 L 226.35,264.63 L 226.54,265.21 L 226.67,265.33 L 227.00,265.55 L 227.29,265.63 L 227.95,265.78 L 228.36,265.84 L 230.19,265.99 L 231.18,265.98 L 233.10,265.91 L 233.80,265.78 L 234.44,265.65 L 234.63,265.56 L 234.93,265.37 L 234.92,265.25 L 234.76,264.57 L 234.53,263.79 L 234.37,263.28 L 233.63,260.94 L 233.17,259.59 L 231.63,256.04 L 230.55,254.38 L 231.24,255.04 L 231.54,255.52 L 231.96,256.09 L 232.16,256.30 L 232.47,256.25 L 232.62,256.14 L 232.94,255.40 L 233.55,253.42 L 233.84,252.41 L 234.89,250.17 L 235.17,249.64 L 235.76,248.67 L 236.05,248.21 L 236.62,247.50 L 236.91,247.18 L 237.73,246.55 L 238.18,246.25 L 239.24,245.69 L 242.73,244.55 L 244.08,244.32 L 246.55,244.43 L 247.74,244.58 L 249.82,245.41 L 250.80,245.92 L 252.38,247.41 L 254.08,250.35 L 254.36,251.11 L 254.85,252.15 L 255.10,252.61 L 255.72,253.17 L 256.06,253.40 L 257.01,253.62 L 258.15,253.68 L 258.03,253.72 L 257.66,254.16 L 256.96,255.26 L 256.62,256.20 L 256.28,257.21 L 256.10,257.82 L 255.73,259.13 L 255.52,259.91 L 255.09,261.58 L 254.87,262.50 L 254.79,262.87 L 254.59,264.13 L 254.64,264.52 L 254.85,265.18 L 255.13,265.40 L 255.80,265.78 L 256.32,266.00 L 257.42,266.41 L 256.94,266.39 L 256.46,266.40 L 255.46,266.65 L 254.94,266.82 L 253.79,267.39 L 251.78,268.65 L 250.51,269.53 L 248.08,270.64 L 246.87,271.09 L 244.52,271.32 L 243.34,271.32 L 240.97,270.67 L 237.29,268.70 L 236.15,267.91 L 233.57,266.76 L 232.94,266.52 L 231.74,266.20 L 230.14,266.00 L 226.89,266.00 L 228.54,268.80 L 228.88,269.38 L 229.77,270.51 L 230.25,271.07 L 231.37,272.14 L 232.55,273.20 L 235.37,275.00 L 236.84,275.84 L 239.95,277.04 L 244.50,277.91 L 244.77,277.92 L 245.57,277.86 L 246.00,277.82 L 247.01,277.66 L 248.04,277.49 L 250.22,276.96 L 250.68,276.83 L 251.74,276.37 L 252.29,276.11 L 253.46,275.44 L 254.65,274.72 L 257.00,272.95 L 258.11,272.05 L 259.84,270.28 L 260.20,269.87 L 260.69,269.14 L 261.00,268.24 L 261.00,267.96 L 260.23,267.32 L 259.22,266.91 L 259.66,266.94 L 260.49,266.94 L 260.83,266.83 L 261.46,266.55 L 261.70,266.29 L 262.16,265.70 L 262.32,265.28 L 262.62,264.35 L 262.72,263.75 L 262.89,262.47 L 262.94,261.68 L 263.00,260.02 L 263.00,259.03 L 262.92,256.52 L 262.76,255.37 L 262.60,254.98 L 262.23,254.33 L 261.93,254.12 L 261.25,253.77 L 260.89,253.68 L 261.12,253.67 L 261.62,253.62 L 262.15,253.35 L 262.34,253.18 L 262.36,252.55 L 262.02,251.06 L 261.68,249.89 L 260.94,247.84 L 260.56,246.86 L 259.70,245.18 L 259.25,244.38 L 258.23,243.04 L 257.69,242.40 L 256.47,241.37 L 255.84,240.89 L 254.39,240.13 L 253.63,239.79 L 251.91,239.29 L 251.01,239.07 L 248.98,238.80 L 245.55,238.61 L 244.25,238.60 M 218.41,266.06 L 217.65,266.18 L 215.88,266.98 L 213.16,269.00 L 212.60,269.53 L 211.47,270.38 L 210.90,270.77 L 209.74,271.33 L 209.16,271.57 L 207.98,271.84 L 207.39,271.94 L 206.18,271.91 L 205.57,271.86 L 204.32,271.54 L 203.69,271.35 L 202.40,270.73 L 201.75,270.39 L 200.41,269.48 L 198.35,267.79 L 197.78,267.28 L 196.38,266.63 L 195.66,266.36 L 194.21,266.21 L 193.51,266.20 L 192.34,266.56 L 191.27,267.67 L 191.19,267.91 L 191.31,268.55 L 191.41,268.89 L 191.84,269.66 L 192.35,270.46 L 194.05,272.25 L 194.98,273.14 L 197.17,274.76 L 200.50,276.50 L 201.84,276.97 L 204.13,277.55 L 205.23,277.77 L 207.24,277.84 L 208.24,277.81 L 210.26,277.36 L 211.30,277.06 L 213.62,276.09 L 214.71,275.59 L 216.61,274.36 L 217.51,273.72 L 218.95,272.29 L 219.60,271.56 L 220.46,270.03 L 221.00,267.78 L 221.00,267.42 L 220.81,266.88 L 220.68,266.63 L 220.27,266.30 L 219.81,266.02 M 175.82,253.76 L 175.48,254.13 L 174.89,254.99 L 174.76,255.58 L 174.63,256.86 L 174.78,257.61 L 174.80,259.60 L 174.38,260.60 L 173.94,260.96 L 172.89,261.56 L 172.11,261.73 L 170.38,261.98 L 169.24,261.98 L 167.38,261.93 L 166.64,261.74 L 166.48,261.50 L 166.26,260.90 L 166.30,260.36 L 166.44,259.10 L 166.59,258.14 L 166.84,256.12 L 166.84,255.19 L 166.74,254.88 L 166.46,254.34 L 166.20,254.17 L 165.60,253.87 L 165.16,253.75 L 163.41,253.77 L 162.32,254.29 L 161.79,254.82 L 160.74,256.07 L 160.21,257.00 L 159.15,259.04 L 158.60,260.37 L 157.94,262.00 L 157.60,262.90 L 157.47,263.27 L 157.10,264.55 L 157.11,264.96 L 157.27,265.64 L 157.54,265.85 L 158.21,266.21 L 158.47,266.29 L 158.43,266.29 L 157.05,266.47 L 156.90,266.56 L 156.53,267.08 L 156.35,267.38 L 155.93,268.24 L 155.51,269.15 L 154.69,271.45 L 154.31,272.61 L 153.80,274.67 L 153.71,275.12 L 153.64,275.82 L 153.75,276.42 L 154.10,276.77 L 155.19,277.04 L 155.78,277.11 L 157.10,276.88 L 157.76,276.72 L 159.00,276.08 L 159.58,275.72 L 160.41,274.75 L 160.81,274.13 L 161.63,272.39 L 162.51,269.88 L 162.65,269.32 L 162.75,268.50 L 162.76,268.13 L 162.56,267.61 L 162.42,267.37 L 161.86,267.03 L 160.53,266.60 L 160.38,266.56 L 160.45,266.56 L 162.36,266.64 L 163.60,266.65 L 166.22,266.67 L 167.68,266.65 L 170.68,266.62 L 172.20,266.58 L 175.24,266.50 L 176.66,266.44 L 179.39,266.32 L 180.54,266.25 L 180.76,266.24 L 180.37,266.28 L 179.46,266.70 L 179.08,266.97 L 178.84,267.92 L 178.80,268.48 L 179.21,270.16 L 179.35,270.64 L 179.76,271.77 L 180.55,273.75 L 180.84,274.45 L 181.37,275.44 L 181.65,275.88 L 182.29,276.43 L 182.63,276.66 L 183.55,276.89 L 185.44,277.00 L 188.98,277.00 L 187.33,272.75 L 187.05,272.02 L 186.53,270.77 L 186.28,270.18 L 185.82,269.20 L 185.36,268.29 L 184.48,267.15 L 184.02,266.67 L 183.00,266.25 L 181.24,266.20 L 182.64,266.11 L 183.34,266.02 L 183.98,265.94 L 184.18,265.90 L 184.52,265.81 L 184.57,265.77 L 184.65,265.00 L 184.46,264.13 L 184.27,263.56 L 183.83,262.36 L 183.53,261.69 L 182.91,260.31 L 182.55,259.60 L 181.05,256.78 L 180.33,255.68 L 179.62,254.67 L 179.31,254.31 L 178.72,253.72 L 178.50,253.64 L 176.78,253.43 M 393.79,266.19 L 393.08,266.26 L 392.06,266.48 L 391.60,266.62 L 390.98,267.11 L 390.70,267.40 L 390.30,268.34 L 389.76,270.46 L 389.62,271.13 L 389.43,272.28 L 389.35,272.83 L 389.29,273.75 L 389.26,274.61 L 389.64,275.74 L 389.92,276.22 L 390.98,276.73 L 393.47,277.00 L 397.00,277.00 L 397.00,265.87 M 301.92,257.03 L 301.78,255.58 L 301.66,255.07 L 301.37,254.18 L 301.15,253.90 L 300.68,253.43 L 300.42,253.33 L 300.73,253.32 L 301.03,253.24 L 301.40,252.64 L 301.56,252.24 L 301.74,250.77 L 301.77,250.33 L 301.83,249.24 L 301.90,247.25 L 301.93,246.31 L 301.90,244.56 L 301.87,243.71 L 301.72,242.24 L 301.64,241.55 L 301.39,240.47 L 300.93,239.42 L 300.62,239.04 L 299.69,238.50 L 299.19,238.27 L 298.11,238.05 L 297.58,237.98 L 296.63,238.11 L 295.68,238.75 L 295.65,238.80 L 295.59,239.14 L 295.55,239.34 L 295.47,239.95 L 295.40,240.62 L 295.22,242.66 L 295.14,243.77 L 294.97,246.48 L 294.73,251.00 L 294.66,252.58 L 294.57,255.19 L 294.53,256.39 L 294.51,258.09 L 294.51,258.46 L 294.52,258.98 L 294.52,259.21 L 294.55,259.45 L 294.56,259.54 L 294.61,259.47 L 294.69,259.00 L 294.82,258.04 L 295.35,256.14 L 295.49,255.71 L 295.80,254.97 L 295.96,254.63 L 296.27,254.17 L 296.58,253.81 L 297.69,253.35 L 297.94,253.34 L 297.53,253.46 L 297.05,253.81 L 296.16,254.63 L 295.84,255.19 L 295.30,256.39 L 295.22,257.10 L 294.92,259.55 L 294.73,260.84 L 294.63,261.32 L 294.41,262.16 L 294.29,262.42 L 294.01,262.84 L 293.84,262.89 L 293.47,262.88 L 293.24,262.72 L 292.73,262.30 L 292.42,261.94 L 291.74,261.12 L 291.32,260.56 L 290.44,259.35 L 289.90,258.60 L 288.52,256.77 L 287.68,255.74 L 287.29,255.32 L 285.80,253.90 L 285.13,253.53 L 283.81,253.04 L 283.31,253.09 L 283.44,253.04 L 283.84,252.87 L 284.42,252.61 L 284.89,252.37 L 284.95,252.31 L 284.70,251.75 L 284.52,251.41 L 283.87,250.37 L 283.51,249.81 L 282.57,248.46 L 282.08,247.76 L 280.98,246.26 L 279.86,244.75 L 277.61,241.92 L 277.09,241.29 L 276.19,240.26 L 275.17,239.25 L 274.74,238.91 L 273.40,238.37 L 271.31,238.00 L 270.75,238.00 L 270.01,238.17 L 269.69,238.32 L 269.32,239.11 L 269.25,239.37 L 269.15,240.08 L 269.10,240.47 L 269.05,241.48 L 269.03,242.03 L 269.01,243.41 L 269.00,245.94 L 269.00,253.88 L 271.12,253.73 L 270.60,254.29 L 270.22,254.97 L 270.05,255.40 L 269.44,257.34 L 269.26,258.47 L 268.97,260.78 L 268.99,261.86 L 269.13,263.91 L 269.41,264.61 L 269.63,264.99 L 269.84,265.15 L 270.31,265.47 L 270.62,265.59 L 272.01,266.00 L 274.69,266.00 L 272.75,266.19 L 271.96,266.26 L 270.90,266.46 L 270.44,266.60 L 269.90,267.16 L 269.67,267.52 L 269.43,268.76 L 269.38,269.13 L 269.31,270.05 L 269.20,271.75 L 268.90,277.00 L 276.00,277.00 L 276.00,265.87 L 275.66,265.91 L 275.48,263.60 L 275.93,260.13 L 276.06,259.14 L 276.35,257.73 L 276.52,257.09 L 277.04,256.21 L 277.35,255.81 L 278.32,255.18 L 278.88,254.87 L 280.50,254.22 L 280.99,254.03 L 280.34,254.66 L 280.25,255.32 L 280.50,255.88 L 280.79,256.48 L 281.02,256.87 L 281.54,257.70 L 281.89,258.22 L 282.66,259.33 L 283.14,260.01 L 284.17,261.46 L 284.80,262.33 L 286.08,264.06 L 286.61,264.67 L 287.59,265.74 L 288.01,266.06 L 288.82,266.57 L 289.20,266.65 L 289.98,266.70 L 290.39,266.59 L 290.93,266.49 L 290.49,266.67 L 289.97,266.92 L 289.67,267.69 L 290.14,269.35 L 290.69,270.42 L 292.08,272.35 L 292.81,273.27 L 294.41,274.78 L 295.23,275.47 L 296.87,276.41 L 299.19,277.00 L 299.87,277.00 L 300.78,276.89 L 301.18,276.80 L 301.62,276.26 L 301.80,275.91 L 301.95,274.62 L 301.97,274.24 L 301.99,273.28 L 302.00,272.76 L 302.00,271.50 L 302.00,259.97 M 314.90,258.81 L 314.71,257.53 L 314.56,257.00 L 314.20,256.02 L 313.95,255.62 L 313.40,254.86 L 313.04,254.53 L 312.81,254.36 L 312.95,254.42 L 313.52,254.67 L 314.24,254.81 L 314.54,254.82 L 314.85,254.50 L 314.96,254.28 L 315.00,253.50 L 315.00,253.05 L 315.08,252.49 L 315.15,252.25 L 315.48,252.09 L 315.70,252.07 L 316.45,252.30 L 318.22,253.05 L 318.90,253.37 L 320.52,253.58 L 322.78,253.28 L 325.04,252.44 L 321.84,247.97 L 321.16,247.01 L 319.92,245.34 L 319.32,244.54 L 318.23,243.17 L 317.70,242.52 L 316.74,241.44 L 316.27,240.93 L 315.40,240.10 L 314.56,239.34 L 313.04,238.48 L 310.81,238.00 L 308.00,238.00 L 308.00,245.77 L 308.01,247.13 L 308.02,247.78 L 308.06,248.83 L 308.12,249.82 L 308.40,251.09 L 308.58,251.64 L 309.22,252.37 L 310.30,253.06 L 310.21,253.04 L 309.95,253.11 L 309.45,253.33 L 309.24,253.56 L 308.85,254.08 L 308.69,254.46 L 308.41,255.30 L 308.31,255.83 L 308.13,256.98 L 308.08,257.67 L 308.00,259.12 L 308.00,277.00 L 315.00,277.00 L 315.00,261.15 M 353.41,265.92 L 354.22,265.74 L 354.46,265.54 L 354.83,265.04 L 354.91,264.63 L 355.00,263.69 L 355.00,260.00 L 364.07,260.00 L 366.99,259.99 L 368.58,259.98 L 369.21,259.96 L 370.36,259.91 L 370.80,259.87 L 371.59,259.77 L 371.87,259.70 L 372.71,259.34 L 372.83,259.03 L 372.90,258.30 L 372.82,257.75 L 372.43,256.52 L 371.88,255.96 L 371.33,255.76 L 370.74,255.57 L 370.35,255.50 L 369.51,255.35 L 368.98,255.28 L 367.86,255.14 L 367.17,255.08 L 365.71,254.95 L 364.84,254.88 L 358.09,254.24 L 355.92,254.00 L 354.98,253.88 L 354.16,253.78 L 354.21,253.77 L 354.46,253.73 L 354.81,253.51 L 354.96,253.38 L 355.15,252.95 L 355.22,252.71 L 355.28,252.05 L 355.30,251.68 L 355.26,250.75 L 355.24,250.24 L 355.15,249.00 L 354.81,244.00 L 364.32,244.00 L 366.68,243.92 L 367.77,243.86 L 369.43,243.65 L 370.18,243.53 L 371.28,243.17 L 372.43,242.43 L 372.86,242.00 L 373.54,241.09 L 374.00,240.07 L 374.00,239.95 L 373.55,239.70 L 373.26,239.58 L 372.28,239.33 L 371.74,239.21 L 370.33,238.98 L 369.58,238.87 L 367.83,238.67 L 366.00,238.47 L 361.67,238.19 L 354.85,238.00 L 348.00,238.00 L 348.00,246.29 L 348.01,247.74 L 348.02,248.41 L 348.06,249.52 L 348.08,250.03 L 348.16,250.85 L 348.21,251.23 L 348.34,251.80 L 348.49,252.33 L 349.02,252.87 L 349.84,253.15 L 348.00,252.88 L 348.00,266.00 L 350.27,266.00 L 349.29,266.09 L 348.86,266.18 L 348.39,266.70 L 348.20,267.05 L 348.05,268.34 L 348.03,268.73 L 348.01,269.70 L 348.00,271.50 L 348.00,277.00 L 374.00,277.00 L 374.00,271.00 L 363.89,271.00 L 362.08,270.99 L 361.24,270.98 L 359.87,270.95 L 359.24,270.93 L 358.23,270.84 L 357.77,270.80 L 357.07,270.65 L 356.42,270.49 L 355.72,269.91 L 355.00,268.50 L 354.82,268.02 L 354.40,267.31 L 354.17,266.98 L 353.61,266.54 L 353.30,266.34 L 352.52,266.12 L 351.02,266.00 L 351.50,266.00 M 340.57,260.75 L 340.37,259.74 L 340.50,260.00 L 340.53,260.00 L 340.60,259.78 L 340.63,259.63 L 340.69,259.13 L 340.75,258.57 L 340.85,256.77 L 340.90,255.77 L 340.96,253.27 L 340.99,251.96 L 341.00,249.00 L 341.00,238.00 L 334.00,238.00 L 334.00,246.81 L 334.01,248.23 L 334.02,248.90 L 334.06,250.02 L 334.08,250.54 L 334.14,251.38 L 334.18,251.77 L 334.28,252.36 L 334.39,252.89 L 334.74,253.35 L 335.51,253.36 L 335.58,253.33 L 334.90,253.82 L 334.54,254.34 L 334.40,254.69 L 334.00,256.32 L 334.00,257.47 L 333.73,259.96 L 333.55,260.54 L 333.44,260.72 L 333.20,261.00 L 333.08,261.00 L 332.44,260.68 L 331.80,260.17 L 331.40,259.80 L 329.61,258.03 L 328.65,256.90 L 326.69,254.74 L 325.67,253.83 L 325.21,253.60 L 324.30,253.26 L 323.79,253.26 L 322.72,253.34 L 322.02,253.50 L 320.24,253.94 L 319.59,254.22 L 319.50,254.43 L 319.47,254.91 L 319.65,255.30 L 320.16,256.18 L 320.58,256.84 L 321.42,258.13 L 322.11,259.14 L 322.48,259.67 L 324.02,261.86 L 324.68,262.75 L 325.72,264.13 L 326.19,264.58 L 327.13,265.34 L 327.75,265.55 L 329.12,265.87 L 330.15,265.93 L 331.24,265.98 L 331.91,265.99 L 333.33,266.00 L 333.61,266.00 L 331.98,266.04 L 331.20,266.07 L 329.91,266.17 L 329.32,266.22 L 328.51,266.35 L 328.00,266.57 L 328.00,266.71 L 328.26,267.30 L 328.43,267.63 L 328.96,268.51 L 329.54,269.44 L 331.16,271.70 L 331.99,272.82 L 333.59,274.76 L 333.96,275.19 L 334.58,275.82 L 335.24,276.33 L 335.59,276.47 L 336.79,276.72 L 338.75,276.92 L 339.27,276.94 L 339.97,276.82 L 340.28,276.71 L 340.65,276.14 L 340.80,275.77 L 340.94,274.49 L 340.96,274.12 L 340.99,273.19 L 341.00,272.69 L 341.00,271.50 L 341.00,266.00 L 341.26,266.00 M 110.46,266.50 L 109.68,266.63 L 109.33,266.73 L 108.88,267.17 L 108.68,267.44 L 108.43,268.33 L 108.18,270.36 L 108.08,271.66 L 108.10,273.62 L 108.16,274.50 L 108.54,275.68 L 108.78,276.19 L 109.56,276.70 L 111.25,276.82 L 111.74,276.75 L 112.44,276.49 L 112.74,276.33 L 113.12,275.71 L 113.28,275.34 L 113.43,274.16 L 113.48,273.47 L 113.50,271.50 L 113.50,270.33 L 113.44,268.75 L 113.39,268.06 L 113.12,267.25 L 112.96,266.92 L 112.38,266.62 L 111.00,266.50 M 393.08,238.00 L 390.52,238.01 L 389.30,238.02 L 387.23,238.06 L 386.25,238.09 L 384.61,238.16 L 383.84,238.20 L 382.58,238.31 L 381.99,238.36 L 381.05,238.52 L 380.61,238.60 L 379.93,238.80 L 378.54,239.61 L 378.22,239.92 L 377.81,240.52 L 377.65,240.82 L 377.53,241.36 L 377.51,241.63 L 377.67,242.11 L 377.79,242.34 L 378.22,242.75 L 378.47,242.95 L 379.16,243.28 L 379.53,243.43 L 380.46,243.67 L 384.12,244.00 L 389.00,244.00 L 389.00,250.23 L 389.01,251.44 L 389.02,252.00 L 389.06,252.89 L 389.08,253.30 L 389.17,253.90 L 389.22,254.17 L 389.38,254.52 L 389.56,254.82 L 390.20,254.79 L 390.59,254.69 L 391.27,254.33 L 391.25,254.35 L 390.52,255.48 L 390.23,256.28 L 389.70,258.08 L 389.48,259.26 L 389.27,262.45 L 389.60,264.02 L 390.01,264.51 L 390.98,265.29 L 391.73,265.56 L 393.33,266.00 L 394.12,266.00 L 395.78,265.90 L 396.46,265.59 L 396.64,265.19 L 396.80,264.73 L 396.85,264.41 L 396.93,263.71 L 396.95,263.26 L 396.99,262.27 L 396.99,261.64 L 397.00,260.31 L 397.00,259.50 L 396.99,257.45 L 396.97,256.33 L 396.95,255.88 L 396.81,254.36 L 396.66,253.93 L 396.28,253.27 L 395.95,253.15 L 395.19,253.00 L 394.62,253.00 L 393.88,253.12 L 395.25,252.60 L 395.57,252.50 L 396.07,252.14 L 396.29,251.92 L 396.61,251.28 L 396.75,250.92 L 396.91,249.94 L 397.00,248.03 L 397.00,244.00 L 409.00,244.00 L 409.00,238.00 M 111.00,254.50 L 109.66,254.63 L 109.05,254.92 L 108.86,255.22 L 108.53,255.94 L 108.43,256.53 L 108.26,257.89 L 108.19,258.86 L 108.12,262.35 L 108.18,263.34 L 108.22,263.73 L 108.33,264.42 L 108.41,264.61 L 108.98,265.34 L 109.54,265.59 L 110.81,266.00 L 111.52,266.00 L 112.98,265.89 L 113.56,265.59 L 113.71,265.22 L 113.92,264.31 L 113.92,263.51 L 113.91,262.64 L 113.89,262.10 L 113.84,260.95 L 113.80,260.25 L 113.69,258.46 L 113.62,257.47 L 113.57,257.08 L 113.36,255.74 L 113.17,255.35 L 112.74,254.76 L 112.39,254.64 L 111.59,254.50 M 198.02,253.34 L 196.38,253.50 L 195.79,253.67 L 194.75,254.05 L 194.50,254.31 L 194.18,254.90 L 194.33,255.28 L 194.86,256.07 L 195.47,256.54 L 196.76,257.28 L 198.02,257.87 L 198.79,258.19 L 202.18,259.48 L 203.97,260.03 L 209.32,262.01 L 210.88,262.72 L 211.51,263.06 L 212.66,263.71 L 213.00,263.98 L 214.61,264.98 L 215.59,265.31 L 217.60,265.85 L 218.55,265.94 L 220.36,265.97 L 220.99,265.77 L 221.55,265.54 L 221.73,265.37 L 222.00,265.00 L 222.00,264.75 L 221.84,264.01 L 221.60,263.33 L 221.42,262.93 L 220.58,261.18 L 220.04,260.30 L 218.85,258.71 L 217.93,257.83 L 217.37,257.46 L 216.16,256.75 L 215.41,256.43 L 213.80,255.82 L 212.80,255.52 L 208.59,254.44 L 205.87,253.90 L 204.60,253.72 L 202.13,253.42 L 201.02,253.36 L 198.90,253.29 M 107.92,238.00 L 108.21,245.75 L 108.50,253.50 L 114.24,254.14 L 116.81,254.07 L 117.42,254.02 L 118.47,253.86 L 118.56,253.83 L 118.55,253.84 L 118.07,254.41 L 117.58,255.27 L 117.45,255.92 L 117.48,256.32 L 117.60,257.17 L 117.77,257.70 L 118.17,258.86 L 118.47,259.59 L 119.92,262.65 L 120.40,263.54 L 120.62,263.89 L 121.03,264.53 L 121.18,264.72 L 122.02,265.41 L 122.60,265.61 L 123.84,265.88 L 124.41,265.80 L 125.83,264.99 L 126.24,263.95 L 126.18,263.18 L 125.89,261.49 L 125.48,260.41 L 124.48,258.11 L 123.72,256.75 L 122.17,254.38 L 121.22,253.41 L 120.77,253.23 L 120.40,253.15 L 120.88,252.88 L 121.15,252.66 L 121.32,252.06 L 121.34,251.69 L 121.01,250.51 L 120.89,250.16 L 120.58,249.30 L 120.41,248.83 L 119.98,247.70 L 119.60,246.71 L 118.91,245.00 L 118.57,244.19 L 117.93,242.83 L 117.61,242.18 L 117.00,241.13 L 116.69,240.64 L 116.07,239.86 L 115.44,239.15 L 114.03,238.40 L 111.43,238.00 M 338.55,254.12 L 338.98,254.53 L 339.60,255.65 L 340.00,257.62 L 340.00,257.92 L 339.82,257.04 L 339.14,255.17 L 338.72,254.54 L 338.01,253.71 M 138.69,256.10 L 138.56,256.59 L 138.67,255.89 M 274.38,254.64 L 274.46,255.04 L 274.39,254.84 L 274.22,254.36 M 138.55,254.48 L 138.56,254.66 L 138.46,254.40 M 229.75,253.60 L 230.09,253.93 L 229.95,253.81 L 229.61,253.54 M 203.51,238.29 L 202.56,238.40 L 200.76,238.78 L 199.88,238.99 L 198.28,239.56 L 197.51,239.86 L 196.18,240.60 L 194.61,241.88 L 194.13,242.40 L 193.33,244.08 L 192.95,244.98 L 192.42,247.06 L 192.20,248.11 L 192.05,250.11 L 192.36,252.50 L 192.48,252.82 L 192.83,253.25 L 193.04,253.43 L 193.62,253.63 L 193.96,253.70 L 194.88,253.67 L 196.74,253.42 L 197.77,253.23 L 199.49,252.86 L 199.86,252.77 L 200.40,252.62 L 200.63,252.56 L 200.82,252.46 L 200.91,252.39 L 200.66,251.66 L 199.84,250.11 L 199.39,249.40 L 199.25,248.10 L 199.31,247.47 L 200.13,246.40 L 200.66,245.90 L 202.39,245.10 L 205.95,244.28 L 206.87,244.16 L 208.24,244.07 L 208.88,244.07 L 209.87,244.27 L 210.34,244.42 L 211.20,244.99 L 212.63,246.36 L 213.24,247.01 L 214.72,247.99 L 215.48,248.41 L 217.04,248.87 L 217.79,249.04 L 219.11,248.92 L 220.48,248.03 L 220.62,247.80 L 220.69,247.19 L 220.69,246.87 L 220.50,246.11 L 220.26,245.33 L 219.18,243.57 L 218.57,242.70 L 217.01,241.11 L 214.47,239.42 L 213.70,239.10 L 211.99,238.64 L 211.11,238.43 L 209.25,238.20 L 207.37,238.01 M 171.28,238.00 L 169.58,238.37 L 168.78,238.62 L 167.45,239.61 L 166.81,240.19 L 165.69,241.93 L 164.07,245.53 L 163.73,246.44 L 163.18,247.98 L 162.93,248.70 L 162.56,249.88 L 162.40,250.44 L 162.21,251.32 L 162.14,251.72 L 162.14,252.34 L 162.16,252.62 L 162.35,253.02 L 162.47,253.20 L 162.85,253.42 L 164.74,253.60 L 165.22,253.58 L 166.06,253.40 L 166.46,253.28 L 167.14,252.88 L 167.47,252.65 L 168.04,252.01 L 168.31,251.66 L 168.79,250.75 L 169.20,249.90 L 169.96,248.81 L 170.33,248.37 L 171.00,248.12 L 171.32,248.10 L 171.88,248.68 L 172.59,250.50 L 172.76,251.19 L 173.22,252.29 L 173.86,253.08 L 174.84,253.21 L 176.36,253.36 L 177.04,253.42 L 178.04,253.43 L 178.48,253.42 L 179.05,253.28 L 179.55,252.92 L 179.62,252.81 L 179.53,252.07 L 179.45,251.62 L 179.11,250.30 L 178.91,249.59 L 178.38,247.89 L 177.39,245.08 L 177.11,244.31 L 176.61,243.02 L 176.37,242.40 L 175.94,241.39 L 175.52,240.44 L 174.80,239.24 L 174.44,238.74 L 173.69,238.24 L 172.32,238.00 M 86.01,231.25 L 86.02,232.47 L 86.05,234.68 L 86.06,235.75 L 86.13,237.67 L 86.17,238.59 L 86.27,240.20 L 86.32,240.97 L 86.46,242.28 L 86.53,242.90 L 86.70,243.90 L 86.79,244.37 L 87.00,245.07 L 87.11,245.38 L 87.35,245.77 L 87.75,246.00 L 87.78,246.00 L 88.24,245.79 L 88.53,245.66 L 89.45,245.20 L 89.97,244.94 L 91.31,244.25 L 92.03,243.88 L 93.73,243.00 L 94.62,242.54 L 96.62,241.49 L 97.66,240.95 L 99.92,239.76 L 102.23,238.54 L 107.38,235.80 L 110.01,234.40 L 115.12,231.66 L 117.61,230.32 L 122.06,227.92 L 123.11,227.36 L 124.99,226.34 L 125.89,225.85 L 127.44,225.00 L 128.16,224.61 L 129.31,223.98 L 130.50,223.31 L 134.50,221.02 L 86.00,221.00 M 125.84,266.02 L 125.18,266.05 L 124.15,266.15 L 123.68,266.21 L 123.00,266.43 L 122.70,266.56 L 122.36,266.95 L 122.22,267.17 L 122.17,267.77 L 122.19,268.10 L 122.41,268.97 L 122.56,269.43 L 123.02,270.60 L 123.97,272.75 L 124.53,273.97 L 125.74,275.63 L 126.05,275.98 L 126.68,276.48 L 127.00,276.70 L 127.64,276.94 L 127.97,277.02 L 128.62,276.99 L 128.94,276.94 L 129.59,276.63 L 129.91,276.45 L 130.54,275.87 L 130.85,275.55 L 131.46,274.70 L 131.88,274.06 L 132.72,272.13 L 133.61,269.20 L 134.25,266.00 L 131.97,266.00 L 134.16,265.50 L 135.40,264.65 L 135.92,263.95 L 136.91,262.36 L 137.33,261.27 L 138.11,258.88 L 138.43,257.38 L 138.53,256.73 L 138.69,257.50 L 139.59,258.00 L 139.84,258.00 L 140.24,258.27 L 140.42,258.46 L 140.71,259.13 L 140.84,259.51 L 141.02,260.60 L 141.19,262.75 L 141.25,264.37 L 141.37,267.09 L 141.44,268.36 L 141.57,270.45 L 141.65,271.42 L 141.82,272.96 L 141.91,273.67 L 142.14,274.74 L 142.26,275.23 L 142.56,275.91 L 142.72,276.22 L 143.12,276.60 L 144.77,277.00 L 145.27,277.00 L 146.41,276.65 L 146.96,276.43 L 147.80,275.80 L 147.97,275.63 L 148.27,274.99 L 148.41,274.63 L 148.65,273.69 L 149.00,270.30 L 149.00,269.24 L 148.94,267.84 L 148.88,267.23 L 148.55,266.56 L 148.33,266.29 L 147.51,266.07 L 145.50,266.00 L 149.00,266.00 L 149.00,259.50 L 148.99,257.46 L 148.97,256.35 L 148.94,255.90 L 148.81,254.39 L 148.66,253.96 L 148.29,253.29 L 147.97,253.16 L 147.24,253.00 L 147.24,253.00 L 147.97,252.85 L 148.29,252.72 L 148.66,252.06 L 148.81,251.63 L 148.94,250.15 L 148.97,249.71 L 148.99,248.62 L 149.00,246.62 L 149.00,245.73 L 148.94,244.18 L 148.90,243.45 L 148.74,242.21 L 148.65,241.62 L 148.38,240.66 L 148.23,240.22 L 147.84,239.52 L 147.62,239.20 L 147.08,238.73 L 146.79,238.53 L 146.09,238.27 L 143.31,238.18 L 142.76,238.24 L 141.84,238.54 L 141.40,238.73 L 140.63,239.37 L 140.25,239.74 L 139.51,240.82 L 138.31,243.07 L 137.87,244.00 L 137.13,245.63 L 136.79,246.40 L 136.25,247.74 L 136.00,248.37 L 135.66,249.44 L 135.52,249.95 L 135.37,250.78 L 135.27,251.57 L 135.64,252.58 L 137.01,253.50 L 137.30,253.59 L 136.00,253.36 L 135.08,253.45 L 134.80,253.62 L 134.29,254.24 L 133.81,255.02 L 133.52,255.54 L 132.23,257.93 L 131.57,259.30 L 130.25,262.07 L 129.78,263.21 L 129.35,264.27 L 129.21,264.67 L 129.00,265.37 L 129.00,265.53 L 129.08,265.66 L 129.23,265.71 L 129.60,265.82 L 129.87,265.86 L 131.16,266.00 L 127.26,266.00 Z" fill="rgb(223,253,0)"/>
    <path d="M 158.75,266.38 L 158.21,266.21 L 157.54,265.85 L 157.27,265.64 L 157.11,264.96 L 157.10,264.55 L 157.47,263.27 L 157.60,262.90 L 157.94,262.00 L 158.60,260.37 L 159.15,259.04 L 160.21,257.00 L 160.74,256.07 L 161.79,254.82 L 162.32,254.29 L 163.41,253.77 L 165.16,253.75 L 165.60,253.87 L 166.20,254.17 L 166.46,254.34 L 166.74,254.88 L 166.84,255.19 L 166.84,256.12 L 166.59,258.14 L 166.44,259.10 L 166.30,260.36 L 166.26,260.90 L 166.48,261.50 L 166.64,261.74 L 167.38,261.93 L 169.24,261.98 L 170.38,261.98 L 172.11,261.73 L 172.89,261.56 L 173.94,260.96 L 174.38,260.60 L 174.80,259.60 L 174.78,257.61 L 174.63,256.86 L 174.76,255.58 L 174.89,254.99 L 175.48,254.13 L 175.82,253.76 L 176.78,253.43 L 178.50,253.64 L 178.72,253.72 L 179.31,254.31 L 179.62,254.67 L 180.33,255.68 L 181.05,256.78 L 182.55,259.60 L 182.91,260.31 L 183.53,261.69 L 183.83,262.36 L 184.27,263.56 L 184.46,264.13 L 184.65,265.00 L 184.57,265.77 L 184.52,265.81 L 184.18,265.90 L 183.98,265.94 L 183.34,266.02 L 182.64,266.11 L 180.54,266.25 L 179.39,266.32 L 176.66,266.44 L 175.24,266.50 L 172.20,266.58 L 170.68,266.62 L 167.68,266.65 L 166.22,266.67 L 163.60,266.65 L 162.36,266.64 L 160.45,266.56 L 160.03,266.54 L 159.39,266.48 L 159.10,266.45 M 256.32,266.00 L 255.80,265.78 L 255.13,265.40 L 254.85,265.18 L 254.64,264.52 L 254.59,264.13 L 254.79,262.87 L 254.87,262.50 L 255.09,261.58 L 255.52,259.91 L 255.73,259.13 L 256.10,257.82 L 256.28,257.21 L 256.62,256.20 L 256.96,255.26 L 257.66,254.16 L 258.03,253.72 L 258.94,253.43 L 260.77,253.65 L 261.25,253.77 L 261.93,254.12 L 262.23,254.33 L 262.60,254.98 L 262.76,255.37 L 262.92,256.52 L 263.00,259.03 L 263.00,260.02 L 262.94,261.68 L 262.89,262.47 L 262.72,263.75 L 262.62,264.35 L 262.32,265.28 L 262.16,265.70 L 261.70,266.29 L 261.46,266.55 L 260.83,266.83 L 260.49,266.94 L 259.66,266.94 L 259.22,266.91 L 258.17,266.65 L 257.62,266.49 M 284.80,262.33 L 284.17,261.46 L 283.14,260.01 L 282.66,259.33 L 281.89,258.22 L 281.54,257.70 L 281.02,256.87 L 280.79,256.48 L 280.50,255.88 L 280.25,255.32 L 280.34,254.66 L 281.12,253.90 L 281.84,253.45 L 283.16,253.11 L 283.81,253.04 L 285.13,253.53 L 285.80,253.90 L 287.29,255.32 L 287.68,255.74 L 288.52,256.77 L 289.90,258.60 L 290.44,259.35 L 291.32,260.56 L 291.74,261.12 L 292.42,261.94 L 292.73,262.30 L 293.24,262.72 L 293.47,262.88 L 293.84,262.89 L 294.01,262.84 L 294.29,262.42 L 294.41,262.16 L 294.63,261.32 L 294.73,260.84 L 294.92,259.55 L 295.22,257.10 L 295.30,256.39 L 295.84,255.19 L 296.16,254.63 L 297.05,253.81 L 297.53,253.46 L 298.63,253.13 L 300.36,253.31 L 300.68,253.43 L 301.15,253.90 L 301.37,254.18 L 301.66,255.07 L 301.78,255.58 L 301.92,257.03 L 302.00,259.97 L 302.00,266.00 L 297.25,266.01 L 295.94,266.02 L 293.28,266.19 L 292.66,266.24 L 291.59,266.37 L 290.39,266.59 L 289.98,266.70 L 289.20,266.65 L 288.82,266.57 L 288.01,266.06 L 287.59,265.74 L 286.61,264.67 L 286.08,264.06 M 108.41,264.61 L 108.33,264.42 L 108.22,263.73 L 108.18,263.34 L 108.12,262.35 L 108.19,258.86 L 108.26,257.89 L 108.43,256.53 L 108.53,255.94 L 108.86,255.22 L 109.05,254.92 L 109.66,254.63 L 111.00,254.50 L 111.59,254.50 L 112.39,254.64 L 112.74,254.76 L 113.17,255.35 L 113.36,255.74 L 113.57,257.08 L 113.62,257.47 L 113.69,258.46 L 113.80,260.25 L 113.84,260.95 L 113.89,262.10 L 113.91,262.64 L 113.92,263.51 L 113.92,264.31 L 113.71,265.22 L 113.56,265.59 L 112.98,265.89 L 111.52,266.00 L 110.81,266.00 L 109.54,265.59 L 108.98,265.34 M 121.18,264.72 L 121.03,264.53 L 120.62,263.89 L 120.40,263.54 L 119.92,262.65 L 118.47,259.59 L 118.17,258.86 L 117.77,257.70 L 117.60,257.17 L 117.48,256.32 L 117.45,255.92 L 117.58,255.27 L 118.07,254.41 L 118.55,253.84 L 119.44,253.25 L 119.89,253.05 L 120.77,253.23 L 121.22,253.41 L 122.17,254.38 L 123.72,256.75 L 124.48,258.11 L 125.48,260.41 L 125.89,261.49 L 126.18,263.18 L 126.24,263.95 L 125.83,264.99 L 124.41,265.80 L 123.84,265.88 L 122.60,265.61 L 122.02,265.41 M 129.00,265.53 L 129.00,265.37 L 129.21,264.67 L 129.35,264.27 L 129.78,263.21 L 130.25,262.07 L 131.57,259.30 L 132.23,257.93 L 133.52,255.54 L 133.81,255.02 L 134.29,254.24 L 134.80,253.62 L 135.08,253.45 L 136.00,253.36 L 137.46,253.62 L 137.78,253.74 L 138.22,254.08 L 138.41,254.26 L 138.61,254.78 L 138.69,255.07 L 138.67,255.85 L 138.43,257.38 L 138.11,258.88 L 137.33,261.27 L 136.91,262.36 L 135.92,263.95 L 135.40,264.65 L 134.16,265.50 L 131.97,266.00 L 131.16,266.00 L 129.87,265.86 L 129.60,265.82 L 129.23,265.71 L 129.08,265.66 M 142.00,260.70 L 142.00,259.25 L 142.24,257.06 L 142.40,256.06 L 143.03,254.68 L 143.39,254.08 L 144.48,253.39 L 146.70,253.00 L 147.24,253.00 L 147.97,253.16 L 148.29,253.29 L 148.66,253.96 L 148.81,254.39 L 148.94,255.90 L 148.97,256.35 L 148.99,257.46 L 149.00,259.50 L 149.00,266.00 L 145.50,266.00 L 142.00,266.00 L 142.00,260.70 M 213.00,263.98 L 212.66,263.71 L 211.51,263.06 L 210.88,262.72 L 209.32,262.01 L 203.97,260.03 L 202.18,259.48 L 198.79,258.19 L 198.02,257.87 L 196.76,257.28 L 195.47,256.54 L 194.86,256.07 L 194.33,255.28 L 194.18,254.90 L 194.50,254.31 L 194.75,254.05 L 195.79,253.67 L 196.38,253.50 L 198.02,253.34 L 198.90,253.29 L 201.02,253.36 L 202.13,253.42 L 204.60,253.72 L 205.87,253.90 L 208.59,254.44 L 212.80,255.52 L 213.80,255.82 L 215.41,256.43 L 216.16,256.75 L 217.37,257.46 L 217.93,257.83 L 218.85,258.71 L 220.04,260.30 L 220.58,261.18 L 221.42,262.93 L 221.60,263.33 L 221.84,264.01 L 222.00,264.75 L 222.00,265.00 L 221.73,265.37 L 221.55,265.54 L 220.99,265.77 L 220.36,265.97 L 218.55,265.94 L 217.60,265.85 L 215.59,265.31 L 214.61,264.98 M 226.67,265.33 L 226.54,265.21 L 226.35,264.63 L 226.26,264.29 L 226.14,263.38 L 226.03,262.40 L 226.04,259.93 L 226.07,258.68 L 226.34,256.35 L 226.42,255.82 L 226.62,254.94 L 226.99,254.00 L 227.18,253.70 L 227.62,253.31 L 227.85,253.16 L 228.34,253.07 L 228.59,253.06 L 229.13,253.24 L 229.40,253.36 L 229.95,253.81 L 230.51,254.31 L 231.63,256.04 L 233.17,259.59 L 233.63,260.94 L 234.37,263.28 L 234.53,263.79 L 234.76,264.57 L 234.92,265.25 L 234.93,265.37 L 234.63,265.56 L 234.44,265.65 L 233.80,265.78 L 233.10,265.91 L 231.18,265.98 L 230.19,265.99 L 228.36,265.84 L 227.95,265.78 L 227.29,265.63 L 227.00,265.55 M 269.41,264.61 L 269.13,263.91 L 268.99,261.86 L 268.97,260.78 L 269.26,258.47 L 269.44,257.34 L 270.05,255.40 L 270.22,254.97 L 270.60,254.29 L 271.22,253.62 L 271.85,253.23 L 272.84,253.07 L 273.29,253.10 L 273.97,253.87 L 274.13,254.13 L 274.39,254.84 L 274.52,255.22 L 274.73,256.21 L 274.83,256.73 L 275.00,258.01 L 275.22,260.25 L 275.66,266.00 L 272.80,266.00 L 272.01,266.00 L 270.62,265.59 L 270.31,265.47 L 269.84,265.15 L 269.63,264.99 M 308.00,259.97 L 308.00,259.12 L 308.08,257.67 L 308.13,256.98 L 308.31,255.83 L 308.41,255.30 L 308.69,254.46 L 308.85,254.08 L 309.24,253.56 L 309.45,253.33 L 309.95,253.11 L 310.21,253.04 L 310.81,253.13 L 311.13,253.21 L 311.84,253.60 L 313.04,254.53 L 313.40,254.86 L 313.95,255.62 L 314.20,256.02 L 314.56,257.00 L 314.71,257.53 L 314.90,258.81 L 315.00,261.15 L 315.00,266.00 L 311.50,266.00 L 308.00,266.00 L 308.00,259.97 M 324.68,262.75 L 324.02,261.86 L 322.48,259.67 L 322.11,259.14 L 321.42,258.13 L 320.58,256.84 L 320.16,256.18 L 319.65,255.30 L 319.47,254.91 L 319.50,254.43 L 319.59,254.22 L 320.24,253.94 L 322.02,253.50 L 322.72,253.34 L 323.79,253.26 L 324.30,253.26 L 325.21,253.60 L 325.67,253.83 L 326.69,254.74 L 328.65,256.90 L 329.61,258.03 L 331.40,259.80 L 331.80,260.17 L 332.44,260.68 L 333.08,261.00 L 333.20,261.00 L 333.44,260.72 L 333.55,260.54 L 333.73,259.96 L 334.00,257.47 L 334.00,256.32 L 334.40,254.69 L 334.54,254.34 L 334.90,253.82 L 335.58,253.33 L 336.19,253.10 L 337.29,253.29 L 337.82,253.49 L 338.72,254.54 L 339.14,255.17 L 339.82,257.04 L 340.57,260.75 L 341.26,266.00 L 334.18,266.00 L 333.33,266.00 L 331.91,265.99 L 331.24,265.98 L 330.15,265.93 L 329.12,265.87 L 327.75,265.55 L 327.13,265.34 L 326.19,264.58 L 325.72,264.13 M 348.00,259.44 L 348.00,252.88 L 352.59,253.57 L 353.23,253.66 L 354.98,253.88 L 355.92,254.00 L 358.09,254.24 L 364.84,254.88 L 365.71,254.95 L 367.17,255.08 L 367.86,255.14 L 368.98,255.28 L 369.51,255.35 L 370.35,255.50 L 370.74,255.57 L 371.33,255.76 L 371.88,255.96 L 372.43,256.52 L 372.82,257.75 L 372.90,258.30 L 372.83,259.03 L 372.71,259.34 L 371.87,259.70 L 371.59,259.77 L 370.80,259.87 L 370.36,259.91 L 369.21,259.96 L 368.58,259.98 L 366.99,259.99 L 364.07,260.00 L 355.00,260.00 L 355.00,263.00 L 355.00,263.69 L 354.91,264.63 L 354.83,265.04 L 354.46,265.54 L 354.22,265.74 L 353.41,265.92 L 351.50,266.00 L 348.00,266.00 L 348.00,259.44 M 390.01,264.51 L 389.60,264.02 L 389.27,262.45 L 389.48,259.26 L 389.70,258.08 L 390.23,256.28 L 390.52,255.48 L 391.25,254.35 L 391.65,253.87 L 392.67,253.31 L 394.62,253.00 L 395.19,253.00 L 395.95,253.15 L 396.28,253.27 L 396.66,253.93 L 396.81,254.36 L 396.95,255.88 L 396.97,256.33 L 396.99,257.45 L 397.00,259.50 L 397.00,260.31 L 396.99,261.64 L 396.99,262.27 L 396.95,263.26 L 396.93,263.71 L 396.85,264.41 L 396.80,264.73 L 396.64,265.19 L 396.46,265.59 L 395.78,265.90 L 394.12,266.00 L 393.33,266.00 L 391.73,265.56 L 390.98,265.29 Z" fill="rgb(240,29,8)"/>
  </g>
</svg>
