<?xml version="1.0" encoding="UTF-8" standalone="yes"?>
<svg width="512" height="512" viewBox="0 0 512 512" version="1.2" baseProfile="tiny-ps" xmlns="http://www.w3.org/2000/svg">
  <title>bimi-svg-tiny-12-ps</title>
  <g>
    <path d="M 425.00,290.00 L 401.75,289.98 L 396.13,289.97 L 392.82,289.94 L 391.38,289.92 L 388.65,289.87 L 387.49,289.84 L 385.31,289.77 L 384.42,289.73 L 382.78,289.64 L 382.16,289.58 L 381.05,289.47 L 380.68,289.41 L 380.08,289.27 L 379.97,289.19 L 379.87,289.03 L 380.00,288.95 L 382.36,287.39 L 383.79,286.54 L 384.48,286.20 L 385.88,285.57 L 386.63,285.33 L 388.17,284.88 L 389.06,284.72 L 390.93,284.43 L 392.05,284.33 L 394.41,284.16 L 395.85,284.11 L 398.89,284.04 L 400.73,284.02 L 404.63,284.00 L 425.00,284.00 M 134.50,221.03 L 125.50,225.98 L 123.04,227.30 L 121.89,227.88 L 119.65,228.98 L 118.70,229.42 L 116.93,230.19 L 116.29,230.42 L 115.21,230.77 L 115.00,230.74 L 114.42,230.70 L 113.77,230.67 L 113.33,230.65 L 111.28,230.57 L 109.90,230.52 L 106.93,230.43 L 105.21,230.39 L 101.64,230.29 L 99.75,230.25 L 86.00,229.94 L 86.00,221.00 Z" fill="rgb(13,240,248)"/>
    <path d="M 101.64,230.29 L 105.21,230.39 L 106.93,230.43 L 109.90,230.52 L 111.28,230.57 L 113.33,230.65 L 113.77,230.67 L 114.42,230.70 L 115.00,230.74 L 115.21,230.77 L 116.29,230.42 L 116.93,230.19 L 118.70,229.42 L 119.65,228.98 L 121.51,228.07 L 111.50,233.50 L 105.28,236.85 L 102.47,238.34 L 99.72,239.79 L 98.45,240.46 L 95.99,241.74 L 94.89,242.31 L 92.78,243.38 L 91.89,243.83 L 90.21,244.67 L 89.55,244.99 L 88.36,245.56 L 87.97,245.72 L 87.34,245.98 L 87.25,245.98 L 86.66,245.35 L 86.51,244.85 L 86.44,244.50 L 86.32,243.74 L 86.27,243.25 L 86.18,242.20 L 86.15,241.56 L 86.09,240.20 L 86.06,239.39 L 86.03,237.70 L 86.02,236.72 L 86.00,234.67 L 86.00,229.94 L 99.75,230.25 M 134.50,221.03 L 134.50,221.03 L 86.00,221.00 Z" fill="rgb(33,202,188)"/>
    <path d="M 277.04,251.50 L 277.53,252.21 L 277.66,252.65 L 277.83,253.54 L 277.76,253.94 L 277.50,254.69 L 277.18,254.89 L 276.85,255.36 L 276.70,255.95 L 276.41,257.37 L 276.29,258.39 L 276.05,260.62 L 275.96,261.99 L 275.80,264.88 L 275.75,266.54 L 275.42,277.50 L 275.21,264.25 L 275.19,258.56 L 275.25,255.53 L 275.32,254.41 L 275.40,253.36 L 275.44,252.93 L 275.54,252.15 L 275.60,251.86 L 275.73,251.36 L 275.80,251.22 L 275.95,251.00 L 276.03,251.00 M 141.80,256.84 L 141.87,258.67 L 141.89,259.73 L 141.91,261.90 L 141.90,263.03 L 141.88,265.28 L 141.85,266.34 L 141.79,268.39 L 141.74,269.25 L 141.64,270.88 L 141.58,271.70 L 141.56,271.97 L 141.50,272.42 L 141.48,272.50 L 141.44,272.57 L 141.42,272.46 L 141.38,272.14 L 141.36,271.84 L 141.32,271.12 L 141.30,270.61 L 141.27,269.48 L 141.25,268.76 L 141.21,267.21 L 141.19,266.28 L 141.12,263.64 L 141.07,262.16 L 141.04,261.55 L 140.96,260.42 L 140.92,259.97 L 140.82,259.15 L 140.76,258.84 L 140.47,257.86 L 140.26,257.69 L 139.79,257.53 L 139.46,257.65 L 138.73,257.82 L 138.50,257.69 L 138.52,257.46 L 138.64,256.89 L 138.84,256.40 L 139.33,255.27 L 139.71,254.47 L 141.50,250.69 Z" fill="rgb(223,233,1)"/>
    <path d="M 270.81,295.00 L 279.63,295.00 L 283.86,295.00 L 292.19,295.00 L 296.18,295.01 L 304.04,295.01 L 307.80,295.01 L 315.19,295.01 L 318.72,295.02 L 325.67,295.02 L 328.98,295.02 L 335.49,295.03 L 338.58,295.04 L 344.67,295.04 L 347.56,295.05 L 353.24,295.06 L 355.93,295.06 L 361.22,295.07 L 363.72,295.08 L 368.62,295.09 L 370.94,295.10 L 375.47,295.12 L 377.61,295.12 L 381.79,295.14 L 383.76,295.15 L 387.60,295.17 L 389.40,295.18 L 392.92,295.20 L 394.56,295.21 L 397.76,295.24 L 399.25,295.25 L 402.16,295.28 L 403.50,295.29 L 406.12,295.32 L 407.33,295.34 L 411.89,295.40 L 413.80,295.44 L 417.37,295.52 L 418.82,295.56 L 421.51,295.65 L 422.56,295.71 L 424.48,295.81 L 425.19,295.87 L 426.44,295.99 L 426.86,296.05 L 427.56,296.19 L 427.74,296.26 L 428.00,296.42 L 428.00,296.50 L 427.92,296.66 L 427.74,296.74 L 427.28,296.88 L 426.86,296.95 L 425.89,297.07 L 425.19,297.13 L 423.61,297.24 L 422.56,297.29 L 420.27,297.39 L 418.82,297.44 L 415.70,297.52 L 413.80,297.56 L 409.74,297.63 L 407.33,297.66 L 404.85,297.69 L 403.50,297.71 L 400.74,297.73 L 399.25,297.75 L 396.20,297.77 L 394.56,297.79 L 391.20,297.81 L 389.40,297.82 L 385.72,297.84 L 383.76,297.85 L 379.74,297.87 L 377.61,297.88 L 373.25,297.89 L 370.94,297.90 L 366.22,297.91 L 363.72,297.92 L 358.63,297.93 L 355.93,297.94 L 350.45,297.95 L 347.56,297.95 L 341.68,297.96 L 338.58,297.96 L 332.29,297.97 L 328.98,297.98 L 322.25,297.98 L 318.72,297.98 L 311.55,297.99 L 307.80,297.99 L 300.17,297.99 L 296.18,297.99 L 288.09,298.00 L 283.86,298.00 L 275.28,298.00 L 270.81,298.00 L 261.73,298.00 L 257.00,298.00 L 243.19,298.00 L 234.37,298.00 L 230.14,298.00 L 221.81,298.00 L 217.82,297.99 L 209.96,297.99 L 206.20,297.99 L 198.81,297.99 L 195.28,297.98 L 188.33,297.98 L 185.02,297.98 L 178.51,297.97 L 175.42,297.96 L 169.33,297.96 L 166.44,297.95 L 160.76,297.94 L 158.07,297.94 L 152.78,297.93 L 150.28,297.92 L 145.38,297.91 L 143.06,297.90 L 138.53,297.88 L 136.39,297.88 L 132.21,297.86 L 130.24,297.85 L 126.40,297.83 L 124.60,297.82 L 121.08,297.80 L 119.44,297.79 L 116.24,297.76 L 114.75,297.75 L 111.84,297.72 L 110.50,297.71 L 107.88,297.68 L 106.67,297.66 L 102.11,297.60 L 100.20,297.56 L 96.63,297.48 L 95.18,297.44 L 92.49,297.35 L 91.44,297.29 L 89.52,297.19 L 88.81,297.13 L 87.56,297.01 L 87.14,296.95 L 86.44,296.81 L 86.26,296.74 L 86.00,296.58 L 86.00,296.50 L 86.26,296.26 L 86.72,296.12 L 87.14,296.05 L 88.11,295.93 L 88.81,295.87 L 90.39,295.76 L 91.44,295.71 L 93.73,295.61 L 95.18,295.56 L 98.30,295.48 L 100.20,295.44 L 104.26,295.37 L 106.67,295.34 L 109.15,295.31 L 110.50,295.29 L 113.26,295.27 L 114.75,295.25 L 117.80,295.23 L 119.44,295.21 L 122.80,295.19 L 124.60,295.18 L 128.28,295.16 L 130.24,295.15 L 134.26,295.13 L 136.39,295.12 L 140.75,295.11 L 143.06,295.10 L 147.78,295.09 L 150.28,295.08 L 155.37,295.07 L 158.07,295.06 L 163.55,295.05 L 166.44,295.05 L 172.32,295.04 L 175.42,295.04 L 181.71,295.03 L 185.02,295.02 L 191.75,295.02 L 195.28,295.02 L 202.45,295.01 L 206.20,295.01 L 213.83,295.01 L 217.82,295.01 L 225.91,295.00 L 230.14,295.00 L 238.72,295.00 L 243.19,295.00 L 252.27,295.00 L 257.00,295.00 M 79.94,222.25 L 80.18,222.72 L 80.28,223.16 L 80.47,224.18 L 80.55,224.96 L 80.69,226.72 L 80.74,227.92 L 80.83,230.55 L 80.87,232.25 L 80.90,234.03 L 80.91,235.02 L 80.94,237.08 L 80.95,238.22 L 80.97,240.58 L 80.97,241.89 L 80.99,244.58 L 80.99,246.05 L 81.00,249.09 L 81.00,250.75 L 81.00,254.15 L 81.00,256.00 L 81.00,259.60 L 81.00,261.25 L 80.99,264.47 L 80.99,265.95 L 80.98,268.81 L 80.97,270.11 L 80.96,272.64 L 80.95,273.78 L 80.93,275.99 L 80.91,276.98 L 80.89,278.89 L 80.87,279.75 L 80.79,282.88 L 80.74,284.08 L 80.62,286.26 L 80.55,287.04 L 80.39,288.40 L 80.28,288.84 L 80.07,289.57 L 79.94,289.75 L 79.66,290.00 L 79.50,290.00 L 79.06,289.75 L 78.82,289.28 L 78.72,288.84 L 78.53,287.82 L 78.45,287.04 L 78.31,285.28 L 78.26,284.08 L 78.17,281.45 L 78.13,279.75 L 78.10,277.97 L 78.09,276.98 L 78.06,274.92 L 78.05,273.78 L 78.03,271.42 L 78.03,270.11 L 78.01,267.42 L 78.01,265.95 L 78.00,262.91 L 78.00,261.25 L 78.00,257.85 L 78.00,256.00 L 78.00,250.75 L 78.01,247.53 L 78.01,246.05 L 78.02,243.19 L 78.03,241.89 L 78.04,239.36 L 78.05,238.22 L 78.07,236.01 L 78.09,235.02 L 78.11,233.11 L 78.13,232.25 L 78.21,229.12 L 78.26,227.92 L 78.38,225.74 L 78.45,224.96 L 78.61,223.60 L 78.72,223.16 L 78.93,222.43 L 79.06,222.25 L 79.34,222.00 L 79.50,222.00 M 434.94,222.25 L 435.18,222.72 L 435.28,223.16 L 435.47,224.18 L 435.55,224.96 L 435.69,226.72 L 435.74,227.92 L 435.83,230.55 L 435.87,232.25 L 435.90,234.03 L 435.91,235.02 L 435.94,237.08 L 435.95,238.22 L 435.97,240.58 L 435.97,241.89 L 435.99,244.58 L 435.99,246.05 L 436.00,249.09 L 436.00,250.75 L 436.00,254.15 L 436.00,256.00 L 436.00,259.60 L 436.00,261.25 L 435.99,264.47 L 435.99,265.95 L 435.98,268.81 L 435.97,270.11 L 435.96,272.64 L 435.95,273.78 L 435.93,275.99 L 435.91,276.98 L 435.89,278.89 L 435.87,279.75 L 435.79,282.88 L 435.74,284.08 L 435.62,286.26 L 435.55,287.04 L 435.39,288.40 L 435.28,288.84 L 435.07,289.57 L 434.94,289.75 L 434.66,290.00 L 434.50,290.00 L 434.06,289.75 L 433.82,289.28 L 433.72,288.84 L 433.53,287.82 L 433.45,287.04 L 433.31,285.28 L 433.26,284.08 L 433.17,281.45 L 433.13,279.75 L 433.10,277.97 L 433.09,276.98 L 433.06,274.92 L 433.05,273.78 L 433.03,271.42 L 433.03,270.11 L 433.01,267.42 L 433.01,265.95 L 433.00,262.91 L 433.00,261.25 L 433.00,257.85 L 433.00,256.00 L 433.00,250.75 L 433.01,247.53 L 433.01,246.05 L 433.02,243.19 L 433.03,241.89 L 433.04,239.36 L 433.05,238.22 L 433.07,236.01 L 433.09,235.02 L 433.11,233.11 L 433.13,232.25 L 433.21,229.12 L 433.26,227.92 L 433.38,225.74 L 433.45,224.96 L 433.61,223.60 L 433.72,223.16 L 433.93,222.43 L 434.06,222.25 L 434.34,222.00 L 434.50,222.00 M 270.81,214.00 L 279.63,214.00 L 283.86,214.00 L 292.19,214.00 L 296.18,214.01 L 304.04,214.01 L 307.80,214.01 L 315.19,214.01 L 318.72,214.02 L 325.67,214.02 L 328.98,214.02 L 335.49,214.03 L 338.58,214.04 L 344.67,214.04 L 347.56,214.05 L 353.24,214.06 L 355.93,214.06 L 361.22,214.07 L 363.72,214.08 L 368.62,214.09 L 370.94,214.10 L 375.47,214.12 L 377.61,214.12 L 381.79,214.14 L 383.76,214.15 L 387.60,214.17 L 389.40,214.18 L 392.92,214.20 L 394.56,214.21 L 397.76,214.24 L 399.25,214.25 L 402.16,214.28 L 403.50,214.29 L 406.12,214.32 L 407.33,214.34 L 411.89,214.40 L 413.80,214.44 L 417.37,214.52 L 418.82,214.56 L 421.51,214.65 L 422.56,214.71 L 424.48,214.81 L 425.19,214.87 L 426.44,214.99 L 426.86,215.05 L 427.56,215.19 L 427.74,215.26 L 428.00,215.42 L 428.00,215.50 L 427.92,215.66 L 427.74,215.74 L 427.28,215.88 L 426.86,215.95 L 425.89,216.07 L 425.19,216.13 L 423.61,216.24 L 422.56,216.29 L 420.27,216.39 L 418.82,216.44 L 415.70,216.52 L 413.80,216.56 L 409.74,216.63 L 407.33,216.66 L 404.85,216.69 L 403.50,216.71 L 400.74,216.73 L 399.25,216.75 L 396.20,216.77 L 394.56,216.79 L 391.20,216.81 L 389.40,216.82 L 385.72,216.84 L 383.76,216.85 L 379.74,216.87 L 377.61,216.88 L 373.25,216.89 L 370.94,216.90 L 366.22,216.91 L 363.72,216.92 L 358.63,216.93 L 355.93,216.94 L 350.45,216.95 L 347.56,216.95 L 341.68,216.96 L 338.58,216.96 L 332.29,216.97 L 328.98,216.98 L 322.25,216.98 L 318.72,216.98 L 311.55,216.99 L 307.80,216.99 L 300.17,216.99 L 296.18,216.99 L 288.09,217.00 L 283.86,217.00 L 275.28,217.00 L 270.81,217.00 L 261.73,217.00 L 257.00,217.00 L 243.19,217.00 L 234.37,217.00 L 230.14,217.00 L 221.81,217.00 L 217.82,216.99 L 209.96,216.99 L 206.20,216.99 L 198.81,216.99 L 195.28,216.98 L 188.33,216.98 L 185.02,216.98 L 178.51,216.97 L 175.42,216.96 L 169.33,216.96 L 166.44,216.95 L 160.76,216.94 L 158.07,216.94 L 152.78,216.93 L 150.28,216.92 L 145.38,216.91 L 143.06,216.90 L 138.53,216.88 L 136.39,216.88 L 132.21,216.86 L 130.24,216.85 L 126.40,216.83 L 124.60,216.82 L 121.08,216.80 L 119.44,216.79 L 116.24,216.76 L 114.75,216.75 L 111.84,216.72 L 110.50,216.71 L 107.88,216.68 L 106.67,216.66 L 102.11,216.60 L 100.20,216.56 L 96.63,216.48 L 95.18,216.44 L 92.49,216.35 L 91.44,216.29 L 89.52,216.19 L 88.81,216.13 L 87.56,216.01 L 87.14,215.95 L 86.44,215.81 L 86.26,215.74 L 86.00,215.58 L 86.00,215.50 L 86.26,215.26 L 86.72,215.12 L 87.14,215.05 L 88.11,214.93 L 88.81,214.87 L 90.39,214.76 L 91.44,214.71 L 93.73,214.61 L 95.18,214.56 L 98.30,214.48 L 100.20,214.44 L 104.26,214.37 L 106.67,214.34 L 109.15,214.31 L 110.50,214.29 L 113.26,214.27 L 114.75,214.25 L 117.80,214.23 L 119.44,214.21 L 122.80,214.19 L 124.60,214.18 L 128.28,214.16 L 130.24,214.15 L 134.26,214.13 L 136.39,214.12 L 140.75,214.11 L 143.06,214.10 L 147.78,214.09 L 150.28,214.08 L 155.37,214.07 L 158.07,214.06 L 163.55,214.05 L 166.44,214.05 L 172.32,214.04 L 175.42,214.04 L 181.71,214.03 L 185.02,214.02 L 191.75,214.02 L 195.28,214.02 L 202.45,214.01 L 206.20,214.01 L 213.83,214.01 L 217.82,214.01 L 225.91,214.00 L 230.14,214.00 L 238.72,214.00 L 243.19,214.00 L 252.27,214.00 L 257.00,214.00 Z" fill="rgb(55,255,5)"/>
    <path d="M 397.20,290.00 L 394.45,290.01 L 393.22,290.01 L 390.87,290.00 L 389.84,290.00 L 387.88,289.98 L 387.04,289.96 L 385.44,289.92 L 384.78,289.88 L 383.54,289.81 L 383.06,289.75 L 382.17,289.64 L 381.85,289.56 L 381.81,289.55 L 382.16,289.58 L 382.78,289.64 L 384.42,289.73 L 385.31,289.77 L 387.49,289.84 L 388.65,289.87 L 391.38,289.92 L 392.82,289.94 L 396.13,289.97 L 401.75,289.98 L 425.00,290.00 L 401.78,290.00 M 412.25,278.78 L 425.00,279.16 L 425.00,284.00 L 404.63,284.00 L 400.73,284.02 L 398.89,284.04 L 395.85,284.11 L 394.41,284.16 L 392.05,284.33 L 390.93,284.43 L 389.06,284.72 L 388.17,284.88 L 386.63,285.33 L 385.88,285.57 L 385.37,285.80 L 385.53,285.71 L 386.21,285.36 L 389.18,283.81 L 391.00,282.86 L 399.50,278.40 Z" fill="rgb(71,179,255)"/>
    <path d="M 80.45,295.55 L 78.00,293.09 L 78.00,257.85 L 78.00,261.25 L 78.00,262.91 L 78.01,265.95 L 78.01,267.42 L 78.03,270.11 L 78.03,271.42 L 78.05,273.78 L 78.06,274.92 L 78.09,276.98 L 78.10,277.97 L 78.13,279.75 L 78.17,281.45 L 78.26,284.08 L 78.31,285.28 L 78.45,287.04 L 78.53,287.82 L 78.72,288.84 L 78.82,289.28 L 79.06,289.75 L 79.50,290.00 L 79.66,290.00 L 79.94,289.75 L 80.07,289.57 L 80.28,288.84 L 80.39,288.40 L 80.55,287.04 L 80.62,286.26 L 80.74,284.08 L 80.79,282.88 L 80.87,279.75 L 80.89,278.89 L 80.91,276.98 L 80.93,275.99 L 80.95,273.78 L 80.96,272.64 L 80.97,270.11 L 80.98,268.81 L 80.98,268.79 L 80.99,269.58 L 81.05,273.85 L 81.09,275.85 L 81.18,279.74 L 81.23,281.50 L 81.35,284.88 L 81.41,286.33 L 81.55,289.06 L 81.64,290.13 L 81.80,292.06 L 81.90,292.69 L 82.09,293.69 L 82.20,293.80 L 82.34,293.85 L 82.53,293.88 L 83.00,293.93 L 83.35,293.96 L 84.14,294.01 L 84.64,294.03 L 85.74,294.08 L 86.39,294.11 L 87.78,294.15 L 88.59,294.18 L 90.26,294.22 L 91.20,294.24 L 95.24,294.33 L 97.65,294.37 L 102.72,294.45 L 105.61,294.49 L 111.63,294.56 L 114.96,294.60 L 121.84,294.66 L 125.57,294.69 L 133.23,294.75 L 137.32,294.78 L 145.66,294.83 L 150.07,294.86 L 159.03,294.90 L 163.71,294.92 L 173.19,294.96 L 178.10,294.98 L 188.02,295.01 L 190.40,295.02 L 185.02,295.02 L 181.71,295.03 L 175.42,295.04 L 172.32,295.04 L 166.44,295.05 L 163.55,295.05 L 158.07,295.06 L 155.37,295.07 L 150.28,295.08 L 147.78,295.09 L 143.06,295.10 L 140.75,295.11 L 136.39,295.12 L 134.26,295.13 L 130.24,295.15 L 128.28,295.16 L 124.60,295.18 L 122.80,295.19 L 119.44,295.21 L 117.80,295.23 L 114.75,295.25 L 113.26,295.27 L 110.50,295.29 L 109.15,295.31 L 106.67,295.34 L 104.26,295.37 L 100.20,295.44 L 98.30,295.48 L 95.18,295.56 L 93.73,295.61 L 91.44,295.71 L 90.39,295.76 L 88.81,295.87 L 88.11,295.93 L 87.14,296.05 L 86.72,296.12 L 86.26,296.26 L 86.00,296.50 L 86.00,296.58 L 86.26,296.74 L 86.44,296.81 L 87.14,296.95 L 87.56,297.01 L 88.81,297.13 L 89.52,297.19 L 91.44,297.29 L 92.49,297.35 L 95.18,297.44 L 96.63,297.48 L 100.20,297.56 L 102.11,297.60 L 106.67,297.66 L 107.88,297.68 L 110.50,297.71 L 111.84,297.72 L 114.75,297.75 L 116.24,297.76 L 119.44,297.79 L 121.08,297.80 L 124.60,297.82 L 126.40,297.83 L 130.24,297.85 L 132.21,297.86 L 136.39,297.88 L 138.53,297.88 L 143.06,297.90 L 145.38,297.91 L 150.28,297.92 L 152.78,297.93 L 158.07,297.94 L 160.76,297.94 L 166.44,297.95 L 169.33,297.96 L 175.42,297.96 L 178.51,297.97 L 185.02,297.98 L 188.33,297.98 L 195.28,297.98 L 198.81,297.99 L 206.20,297.99 L 209.96,297.99 L 217.82,297.99 L 221.81,298.00 L 230.14,298.00 L 234.37,298.00 L 243.19,298.00 L 257.00,298.00 L 82.91,298.00 M 436.00,293.09 L 433.55,295.55 L 431.09,298.00 L 261.73,298.00 L 270.81,298.00 L 275.28,298.00 L 283.86,298.00 L 288.09,298.00 L 296.18,297.99 L 300.17,297.99 L 307.80,297.99 L 311.55,297.99 L 318.72,297.98 L 322.25,297.98 L 328.98,297.98 L 332.29,297.97 L 338.58,297.96 L 341.68,297.96 L 347.56,297.95 L 350.45,297.95 L 355.93,297.94 L 358.63,297.93 L 363.72,297.92 L 366.22,297.91 L 370.94,297.90 L 373.25,297.89 L 377.61,297.88 L 379.74,297.87 L 383.76,297.85 L 385.72,297.84 L 389.40,297.82 L 391.20,297.81 L 394.56,297.79 L 396.20,297.77 L 399.25,297.75 L 400.74,297.73 L 403.50,297.71 L 404.85,297.69 L 407.33,297.66 L 409.74,297.63 L 413.80,297.56 L 415.70,297.52 L 418.82,297.44 L 420.27,297.39 L 422.56,297.29 L 423.61,297.24 L 425.19,297.13 L 425.89,297.07 L 426.86,296.95 L 427.28,296.88 L 427.74,296.74 L 427.92,296.66 L 428.00,296.50 L 428.00,296.42 L 427.74,296.26 L 427.56,296.19 L 426.86,296.05 L 426.44,295.99 L 425.19,295.87 L 424.48,295.81 L 422.56,295.71 L 421.51,295.65 L 418.82,295.56 L 417.37,295.52 L 413.80,295.44 L 411.89,295.40 L 407.33,295.34 L 406.12,295.32 L 403.50,295.29 L 402.16,295.28 L 399.25,295.25 L 397.76,295.24 L 394.56,295.21 L 392.92,295.20 L 389.40,295.18 L 387.60,295.17 L 383.76,295.15 L 381.79,295.14 L 377.61,295.12 L 375.47,295.12 L 370.94,295.10 L 368.62,295.09 L 363.72,295.08 L 361.22,295.07 L 355.93,295.06 L 353.24,295.06 L 347.56,295.05 L 344.67,295.04 L 338.58,295.04 L 335.49,295.03 L 328.98,295.02 L 325.67,295.02 L 323.44,295.02 L 330.99,295.00 L 335.90,294.98 L 345.62,294.95 L 350.29,294.92 L 359.53,294.88 L 363.93,294.86 L 372.59,294.81 L 376.68,294.78 L 384.70,294.73 L 388.43,294.69 L 395.71,294.63 L 399.04,294.60 L 405.50,294.53 L 408.39,294.49 L 413.94,294.41 L 416.35,294.37 L 420.91,294.29 L 422.80,294.24 L 424.61,294.20 L 425.41,294.18 L 426.95,294.13 L 427.61,294.11 L 428.85,294.06 L 429.36,294.03 L 430.30,293.98 L 430.65,293.96 L 431.28,293.91 L 431.47,293.88 L 431.77,293.83 L 431.80,293.80 L 432.10,292.69 L 432.28,291.20 L 432.36,290.13 L 432.52,287.78 L 432.59,286.33 L 432.71,283.26 L 432.77,281.50 L 432.87,277.85 L 432.91,275.85 L 432.98,271.75 L 433.01,269.58 L 433.02,268.53 L 433.03,270.11 L 433.03,271.42 L 433.05,273.78 L 433.06,274.92 L 433.09,276.98 L 433.10,277.97 L 433.13,279.75 L 433.17,281.45 L 433.26,284.08 L 433.31,285.28 L 433.45,287.04 L 433.53,287.82 L 433.72,288.84 L 433.82,289.28 L 434.06,289.75 L 434.50,290.00 L 434.66,290.00 L 434.94,289.75 L 435.07,289.57 L 435.28,288.84 L 435.39,288.40 L 435.55,287.04 L 435.62,286.26 L 435.74,284.08 L 435.79,282.88 L 435.87,279.75 L 435.89,278.89 L 435.91,276.98 L 435.93,275.99 L 435.95,273.78 L 435.96,272.64 L 435.97,270.11 L 435.98,268.81 L 435.99,265.95 L 435.99,264.47 L 436.00,261.25 L 436.00,259.60 L 436.00,256.00 M 436.00,250.75 L 436.00,249.09 L 435.99,246.05 L 435.99,244.58 L 435.97,241.89 L 435.97,240.58 L 435.95,238.22 L 435.94,237.08 L 435.91,235.02 L 435.90,234.03 L 435.87,232.25 L 435.83,230.55 L 435.74,227.92 L 435.69,226.72 L 435.55,224.96 L 435.47,224.18 L 435.28,223.16 L 435.18,222.72 L 434.94,222.25 L 434.50,222.00 L 434.34,222.00 L 434.06,222.25 L 433.93,222.43 L 433.72,223.16 L 433.61,223.60 L 433.45,224.96 L 433.38,225.74 L 433.26,227.92 L 433.21,229.12 L 433.13,232.25 L 433.11,233.11 L 433.09,235.02 L 433.07,236.01 L 433.05,238.22 L 433.04,239.36 L 433.03,241.89 L 433.02,243.19 L 433.02,243.21 L 433.01,242.42 L 432.95,238.15 L 432.91,236.15 L 432.82,232.26 L 432.77,230.50 L 432.65,227.12 L 432.59,225.67 L 432.45,222.94 L 432.36,221.87 L 432.20,219.94 L 432.10,219.31 L 431.91,218.31 L 431.80,218.20 L 431.47,218.12 L 431.00,218.07 L 430.65,218.04 L 429.86,217.99 L 429.36,217.97 L 428.26,217.92 L 427.61,217.89 L 426.22,217.85 L 425.41,217.82 L 423.74,217.78 L 422.80,217.76 L 418.76,217.67 L 416.35,217.63 L 411.28,217.55 L 408.39,217.51 L 402.37,217.44 L 399.04,217.40 L 392.16,217.34 L 388.43,217.31 L 380.77,217.25 L 376.68,217.22 L 368.34,217.17 L 363.93,217.14 L 354.97,217.10 L 350.29,217.08 L 340.81,217.04 L 335.90,217.02 L 325.98,216.99 L 323.60,216.98 L 328.98,216.98 L 332.29,216.97 L 338.58,216.96 L 341.68,216.96 L 347.56,216.95 L 350.45,216.95 L 355.93,216.94 L 358.63,216.93 L 363.72,216.92 L 366.22,216.91 L 370.94,216.90 L 373.25,216.89 L 377.61,216.88 L 379.74,216.87 L 383.76,216.85 L 385.72,216.84 L 389.40,216.82 L 391.20,216.81 L 394.56,216.79 L 396.20,216.77 L 399.25,216.75 L 400.74,216.73 L 403.50,216.71 L 404.85,216.69 L 407.33,216.66 L 409.74,216.63 L 413.80,216.56 L 415.70,216.52 L 418.82,216.44 L 420.27,216.39 L 422.56,216.29 L 423.61,216.24 L 425.19,216.13 L 425.89,216.07 L 426.86,215.95 L 427.28,215.88 L 427.74,215.74 L 427.92,215.66 L 428.00,215.50 L 428.00,215.42 L 427.74,215.26 L 427.56,215.19 L 426.86,215.05 L 426.44,214.99 L 425.19,214.87 L 424.48,214.81 L 422.56,214.71 L 421.51,214.65 L 418.82,214.56 L 417.37,214.52 L 413.80,214.44 L 411.89,214.40 L 407.33,214.34 L 406.12,214.32 L 403.50,214.29 L 402.16,214.28 L 399.25,214.25 L 397.76,214.24 L 394.56,214.21 L 392.92,214.20 L 389.40,214.18 L 387.60,214.17 L 383.76,214.15 L 381.79,214.14 L 377.61,214.12 L 375.47,214.12 L 370.94,214.10 L 368.62,214.09 L 363.72,214.08 L 361.22,214.07 L 355.93,214.06 L 353.24,214.06 L 347.56,214.05 L 344.67,214.04 L 338.58,214.04 L 335.49,214.03 L 328.98,214.02 L 325.67,214.02 L 318.72,214.02 L 315.19,214.01 L 307.80,214.01 L 304.04,214.01 L 296.18,214.01 L 292.19,214.00 L 283.86,214.00 L 279.63,214.00 L 270.81,214.00 L 257.00,214.00 L 431.09,214.00 L 433.55,216.45 L 436.00,218.91 L 436.00,254.15 M 82.91,214.00 L 252.27,214.00 L 243.19,214.00 L 238.72,214.00 L 230.14,214.00 L 225.91,214.00 L 217.82,214.01 L 213.83,214.01 L 206.20,214.01 L 202.45,214.01 L 195.28,214.02 L 191.75,214.02 L 185.02,214.02 L 181.71,214.03 L 175.42,214.04 L 172.32,214.04 L 166.44,214.05 L 163.55,214.05 L 158.07,214.06 L 155.37,214.07 L 150.28,214.08 L 147.78,214.09 L 143.06,214.10 L 140.75,214.11 L 136.39,214.12 L 134.26,214.13 L 130.24,214.15 L 128.28,214.16 L 124.60,214.18 L 122.80,214.19 L 119.44,214.21 L 117.80,214.23 L 114.75,214.25 L 113.26,214.27 L 110.50,214.29 L 109.15,214.31 L 106.67,214.34 L 104.26,214.37 L 100.20,214.44 L 98.30,214.48 L 95.18,214.56 L 93.73,214.61 L 91.44,214.71 L 90.39,214.76 L 88.81,214.87 L 88.11,214.93 L 87.14,215.05 L 86.72,215.12 L 86.26,215.26 L 86.00,215.50 L 86.00,215.58 L 86.26,215.74 L 86.44,215.81 L 87.14,215.95 L 87.56,216.01 L 88.81,216.13 L 89.52,216.19 L 91.44,216.29 L 92.49,216.35 L 95.18,216.44 L 96.63,216.48 L 100.20,216.56 L 102.11,216.60 L 106.67,216.66 L 107.88,216.68 L 110.50,216.71 L 111.84,216.72 L 114.75,216.75 L 116.24,216.76 L 119.44,216.79 L 121.08,216.80 L 124.60,216.82 L 126.40,216.83 L 130.24,216.85 L 132.21,216.86 L 136.39,216.88 L 138.53,216.88 L 143.06,216.90 L 145.38,216.91 L 150.28,216.92 L 152.78,216.93 L 158.07,216.94 L 160.76,216.94 L 166.44,216.95 L 169.33,216.96 L 175.42,216.96 L 178.51,216.97 L 185.02,216.98 L 188.33,216.98 L 190.56,216.98 L 183.01,217.00 L 178.10,217.02 L 168.38,217.05 L 163.71,217.08 L 154.47,217.12 L 150.07,217.14 L 141.41,217.19 L 137.32,217.22 L 129.30,217.27 L 125.57,217.31 L 118.29,217.37 L 114.96,217.40 L 108.50,217.47 L 105.61,217.51 L 100.06,217.59 L 97.65,217.63 L 93.09,217.71 L 91.20,217.76 L 89.39,217.80 L 88.59,217.82 L 87.05,217.87 L 86.39,217.89 L 85.15,217.94 L 84.64,217.97 L 83.70,218.02 L 83.35,218.04 L 82.72,218.09 L 82.53,218.12 L 82.23,218.17 L 82.20,218.20 L 81.90,219.31 L 81.72,220.80 L 81.64,221.87 L 81.48,224.22 L 81.41,225.67 L 81.29,228.74 L 81.23,230.50 L 81.13,234.15 L 81.09,236.15 L 81.02,240.25 L 80.99,242.42 L 80.98,243.47 L 80.97,241.89 L 80.97,240.58 L 80.95,238.22 L 80.94,237.08 L 80.91,235.02 L 80.90,234.03 L 80.87,232.25 L 80.83,230.55 L 80.74,227.92 L 80.69,226.72 L 80.55,224.96 L 80.47,224.18 L 80.28,223.16 L 80.18,222.72 L 79.94,222.25 L 79.50,222.00 L 79.34,222.00 L 79.06,222.25 L 78.93,222.43 L 78.72,223.16 L 78.61,223.60 L 78.45,224.96 L 78.38,225.74 L 78.26,227.92 L 78.21,229.12 L 78.13,232.25 L 78.11,233.11 L 78.09,235.02 L 78.07,236.01 L 78.05,238.22 L 78.04,239.36 L 78.03,241.89 L 78.02,243.19 L 78.01,246.05 L 78.01,247.53 L 78.00,250.75 L 78.00,256.00 L 78.00,218.91 Z" fill="rgb(63,255,5)"/>
    <path d="M 412.25,278.78 L 399.50,278.40 L 391.00,282.86 L 389.18,283.81 L 386.32,285.30 L 388.68,283.97 L 390.34,283.05 L 393.77,281.15 L 395.57,280.16 L 408.63,273.00 L 425.00,273.00 L 425.00,279.16 M 381.79,287.90 L 381.50,288.11 L 381.13,288.47 L 380.98,288.65 L 380.90,288.93 L 380.90,289.07 L 381.14,289.29 L 381.30,289.40 L 381.85,289.56 L 382.17,289.64 L 383.00,289.75 L 381.77,289.65 L 381.32,289.58 L 380.56,289.44 L 380.37,289.35 L 380.12,289.16 L 380.15,289.05 L 380.32,288.80 L 380.53,288.66 L 381.19,288.25 L 381.85,287.85 Z" fill="rgb(126,120,254)"/>
    <path d="M 408.72,273.00 L 410.83,271.84 L 412.75,270.78 L 414.63,269.75 L 415.46,269.29 L 417.07,268.40 L 417.76,268.02 L 419.05,267.30 L 419.55,267.02 L 420.46,266.51 L 420.75,266.34 L 425.00,263.92 L 425.00,273.00 Z" fill="rgb(185,57,254)"/>
    <path d="M 299.83,238.29 L 300.74,238.79 L 301.06,239.20 L 301.62,240.13 L 301.77,240.78 L 302.00,242.19 L 302.00,243.08 L 301.45,244.54 L 300.52,245.01 L 299.75,245.02 L 297.82,245.24 L 296.65,245.57 L 296.33,245.77 L 296.01,246.07 L 295.84,246.34 L 295.53,246.94 L 295.38,247.32 L 294.86,249.05 L 294.74,250.01 L 294.55,251.39 L 294.43,251.94 L 294.39,252.02 L 294.30,252.06 L 294.26,251.89 L 294.19,251.42 L 294.17,251.00 L 294.16,249.62 L 294.20,248.39 L 294.25,247.69 L 294.47,244.69 L 294.65,243.25 L 295.06,240.36 L 295.37,239.13 L 295.60,238.78 L 296.11,238.24 L 296.50,238.13 L 297.39,238.00 L 298.03,238.00 M 341.00,243.00 L 340.99,244.34 L 340.98,244.94 L 340.95,246.07 L 340.93,246.52 L 340.88,247.33 L 340.85,247.58 L 340.78,247.97 L 340.75,247.96 L 340.19,247.51 L 339.57,246.86 L 339.21,246.46 L 337.72,245.43 L 336.50,245.00 L 335.96,245.00 L 334.99,244.85 L 334.54,244.57 L 334.39,244.30 L 334.15,243.69 L 334.08,243.23 L 334.00,242.20 L 334.00,241.50 L 334.08,239.55 L 334.27,238.73 L 334.50,238.50 L 335.06,238.15 L 335.55,238.08 L 336.67,238.00 L 341.00,238.00 M 172.99,238.10 L 173.99,238.30 L 174.33,238.52 L 174.95,239.04 L 175.20,239.47 L 175.66,240.45 L 175.90,241.15 L 176.69,243.46 L 176.90,244.37 L 176.82,244.60 L 176.53,244.93 L 176.16,244.97 L 175.26,245.00 L 174.55,245.00 L 173.16,245.18 L 172.56,245.46 L 171.47,246.13 L 171.22,246.56 L 170.72,247.35 L 170.44,247.61 L 170.29,247.61 L 169.98,247.54 L 169.79,247.37 L 169.38,246.96 L 169.10,246.62 L 167.68,245.47 L 166.51,244.90 L 166.00,244.81 L 165.03,244.55 L 164.69,244.28 L 164.66,244.04 L 164.68,243.47 L 164.83,243.02 L 165.21,241.99 L 165.53,241.25 L 166.38,239.52 L 166.96,238.77 L 167.33,238.54 L 168.15,238.18 L 168.71,238.10 L 169.98,238.00 L 170.85,238.00 M 409.00,244.00 L 403.00,244.00 L 400.62,244.08 L 399.26,244.20 L 398.72,244.29 L 397.75,244.49 L 397.46,244.62 L 397.00,244.87 L 397.00,245.02 L 396.32,245.57 L 395.30,245.61 L 394.64,245.45 L 393.15,245.26 L 392.47,245.44 L 391.17,245.97 L 390.64,246.50 L 389.74,247.35 L 389.36,247.61 L 389.25,247.58 L 389.08,247.41 L 389.04,247.16 L 389.00,246.55 L 389.00,246.07 L 388.83,244.97 L 388.47,244.49 L 388.09,244.35 L 387.19,244.12 L 386.45,244.06 L 384.77,244.00 L 383.56,244.00 L 381.59,243.96 L 380.48,243.88 L 380.02,243.82 L 378.43,243.49 L 377.98,243.19 L 377.27,242.48 L 377.21,241.96 L 377.25,240.78 L 377.50,239.99 L 378.22,238.89 L 378.68,238.64 L 379.02,238.54 L 379.78,238.36 L 380.31,238.29 L 381.48,238.18 L 382.26,238.14 L 383.94,238.07 L 385.01,238.05 L 387.31,238.02 L 388.73,238.01 L 391.75,238.00 L 409.00,238.00 M 210.78,238.34 L 213.32,238.90 L 214.40,239.33 L 216.41,240.28 L 217.19,240.88 L 218.56,242.18 L 218.97,242.94 L 219.75,244.53 L 219.94,245.19 L 219.87,245.35 L 219.59,245.56 L 219.26,245.54 L 218.46,245.41 L 217.85,245.25 L 216.54,245.09 L 215.97,245.26 L 214.90,245.78 L 214.54,246.27 L 213.89,247.06 L 213.54,247.30 L 213.38,247.28 L 213.05,247.13 L 212.86,246.91 L 212.46,246.36 L 212.19,245.93 L 211.46,245.20 L 210.77,244.80 L 210.34,244.63 L 208.45,244.09 L 207.34,244.00 L 205.08,243.92 L 203.99,244.08 L 201.88,244.53 L 201.07,244.96 L 200.09,245.29 L 199.22,245.43 L 198.73,245.46 L 196.62,245.49 L 195.61,245.32 L 193.56,244.95 L 192.79,244.71 L 192.67,244.54 L 192.59,244.17 L 192.78,243.89 L 193.28,243.24 L 193.72,242.76 L 196.15,240.63 L 197.98,239.53 L 199.03,239.14 L 201.21,238.47 L 202.45,238.28 L 205.03,238.00 L 206.50,238.00 M 273.90,238.47 L 275.26,239.25 L 275.96,239.89 L 277.38,241.33 L 278.11,242.31 L 279.60,244.43 L 280.38,245.75 L 280.72,246.43 L 280.75,246.64 L 280.72,246.96 L 280.60,246.98 L 280.31,246.91 L 280.11,246.73 L 279.67,246.27 L 279.43,245.89 L 278.80,245.46 L 278.09,245.25 L 277.61,245.20 L 276.57,245.12 L 275.94,245.12 L 274.62,245.17 L 273.87,245.24 L 269.00,245.71 L 269.00,241.85 L 269.07,239.74 L 269.24,238.84 L 269.44,238.58 L 269.91,238.18 L 270.30,238.10 L 271.21,238.00 L 271.88,238.00 M 373.50,238.50 L 373.50,241.00 L 373.34,242.44 L 372.89,243.03 L 372.30,243.21 L 371.65,243.37 L 371.20,243.43 L 370.21,243.54 L 369.57,243.58 L 368.18,243.65 L 367.31,243.69 L 365.45,243.75 L 364.32,243.79 L 361.43,243.90 L 360.27,243.99 L 358.13,244.18 L 357.34,244.30 L 355.94,244.57 L 355.52,244.74 L 354.87,245.08 L 354.82,245.29 L 354.50,245.80 L 354.12,245.99 L 353.84,246.01 L 353.21,246.00 L 352.78,245.92 L 351.85,245.72 L 351.25,245.54 L 349.55,244.93 L 348.80,244.48 L 348.57,244.17 L 348.20,243.50 L 348.11,243.03 L 348.00,241.98 L 348.00,237.94 M 114.19,238.10 L 115.21,238.33 L 115.58,238.57 L 116.26,239.17 L 116.56,239.66 L 117.14,240.80 L 117.49,241.62 L 118.55,244.22 L 118.80,244.84 L 118.88,245.04 L 119.00,245.35 L 119.00,245.37 L 118.84,245.41 L 118.56,245.42 L 117.88,245.45 L 117.38,245.46 L 116.29,245.48 L 115.63,245.49 L 114.25,245.50 L 108.00,245.50 L 108.00,241.75 L 108.07,239.60 L 108.26,238.72 L 108.52,238.49 L 109.14,238.13 L 109.70,238.06 L 111.00,238.00 L 111.99,238.00 M 245.78,237.99 L 248.48,238.16 L 249.75,238.42 L 252.24,239.03 L 253.36,239.50 L 255.50,240.54 L 256.39,241.22 L 258.05,242.69 L 258.64,243.58 L 259.23,244.64 L 259.27,245.07 L 259.04,245.17 L 258.41,245.32 L 257.79,245.31 L 256.32,245.26 L 255.21,245.18 L 252.94,245.05 L 251.19,244.97 L 250.27,244.94 L 246.51,244.82 L 245.00,244.80 L 241.83,244.82 L 240.38,244.91 L 238.98,245.01 L 238.40,245.07 L 237.34,245.20 L 237.00,245.28 L 234.39,245.47 L 232.43,245.35 L 231.64,245.16 L 230.07,244.76 L 229.50,244.51 L 229.44,244.37 L 229.45,244.04 L 229.66,243.80 L 230.19,243.26 L 230.64,242.87 L 233.89,240.65 L 236.33,239.50 L 237.64,239.10 L 240.30,238.39 L 241.67,238.21 L 244.43,237.95 M 146.45,238.24 L 147.59,238.68 L 147.96,239.07 L 148.60,239.97 L 148.77,240.63 L 149.00,242.10 L 149.00,243.08 L 148.95,243.83 L 148.80,244.09 L 148.39,244.53 L 147.97,244.67 L 146.96,244.89 L 146.16,244.94 L 144.32,245.00 L 137.03,245.00 L 138.70,241.50 L 139.70,239.66 L 140.34,238.84 L 140.72,238.60 L 141.53,238.20 L 142.07,238.12 L 143.26,238.00 L 144.08,238.00 M 313.15,238.25 L 314.30,238.69 L 314.83,239.10 L 315.87,240.03 L 316.39,240.71 L 317.46,242.23 L 318.05,243.25 L 318.43,243.95 L 318.44,244.19 L 318.32,244.60 L 318.01,244.72 L 317.21,244.91 L 316.48,244.95 L 315.69,244.98 L 315.20,244.99 L 314.16,245.00 L 308.00,245.00 L 308.00,241.50 L 308.08,239.58 L 308.26,238.76 L 308.47,238.53 L 308.99,238.16 L 309.42,238.09 L 310.41,238.00 L 311.14,238.00 Z" fill="rgb(185,148,1)"/>
    <path d="M 204.93,271.50 L 207.92,271.53 L 209.72,271.59 L 211.58,271.65 L 212.61,271.69 L 214.73,271.78 L 215.90,271.84 L 217.77,271.97 L 218.47,272.11 L 218.59,272.24 L 218.66,272.55 L 218.50,272.81 L 218.04,273.41 L 217.64,273.85 L 216.69,274.65 L 215.83,275.22 L 215.33,275.49 L 213.18,276.53 L 212.12,276.85 L 209.83,277.45 L 208.70,277.65 L 207.59,277.83 L 207.11,277.88 L 206.21,277.96 L 205.88,277.96 L 202.96,277.51 L 200.68,276.89 L 199.54,276.47 L 197.30,275.58 L 196.38,275.11 L 194.72,274.15 L 194.28,273.71 L 193.70,272.94 L 193.70,272.58 L 193.94,272.45 L 194.59,272.20 L 195.21,272.10 L 196.63,271.91 L 197.67,271.81 L 201.06,271.57 L 203.51,271.50 M 245.81,271.43 L 248.21,271.51 L 250.58,271.59 L 251.66,271.65 L 253.75,271.77 L 254.61,271.85 L 256.19,272.00 L 256.73,272.09 L 257.60,272.26 L 257.69,272.36 L 257.58,272.69 L 257.24,273.05 L 256.96,273.28 L 255.58,274.33 L 254.62,274.92 L 252.96,275.83 L 252.03,276.18 L 250.11,276.80 L 249.09,277.01 L 247.01,277.35 L 245.94,277.42 L 243.80,277.50 L 242.73,277.43 L 240.62,277.24 L 239.61,277.05 L 237.62,276.60 L 236.71,276.28 L 234.95,275.57 L 234.19,275.13 L 232.74,274.17 L 232.18,273.61 L 231.69,272.91 L 231.75,272.56 L 232.01,272.42 L 232.68,272.15 L 233.28,272.04 L 234.67,271.81 L 235.67,271.68 L 237.98,271.51 L 239.93,271.44 L 241.05,271.43 M 314.24,271.72 L 314.47,271.88 L 314.84,272.30 L 314.91,272.67 L 315.00,273.55 L 315.00,274.20 L 314.98,275.33 L 314.90,275.71 L 314.68,276.36 L 314.44,276.55 L 313.86,276.85 L 313.38,276.92 L 312.29,277.00 L 311.50,277.00 L 309.68,276.92 L 308.86,276.75 L 308.62,276.58 L 308.21,276.18 L 308.12,275.85 L 308.00,275.13 L 308.00,274.61 L 308.14,273.38 L 308.40,272.80 L 308.66,272.59 L 309.26,272.23 L 309.73,272.11 L 310.77,271.90 L 311.50,271.81 L 313.42,271.66 M 392.05,271.74 L 393.00,271.83 L 395.08,272.11 L 396.01,272.37 L 396.29,272.57 L 396.75,273.02 L 396.86,273.35 L 397.00,274.09 L 397.00,274.61 L 396.97,275.55 L 396.87,275.88 L 396.61,276.43 L 396.33,276.60 L 395.67,276.87 L 395.12,276.92 L 393.89,277.00 L 393.00,277.00 L 390.81,276.93 L 389.88,276.76 L 389.61,276.58 L 389.19,276.12 L 389.10,275.74 L 389.00,274.87 L 389.00,274.22 L 389.09,272.69 L 389.31,272.06 L 389.58,271.90 L 390.22,271.68 L 390.77,271.68 M 374.00,277.00 L 348.00,277.00 L 348.00,274.64 L 348.16,273.38 L 348.48,272.78 L 348.81,272.57 L 349.59,272.20 L 350.21,272.05 L 351.63,271.77 L 352.64,271.64 L 355.10,271.39 L 357.19,271.24 L 358.37,271.19 L 363.34,271.00 L 374.00,271.00 M 340.08,271.76 L 340.37,271.92 L 340.82,272.32 L 340.91,272.70 L 341.00,273.58 L 341.00,274.24 L 340.98,275.33 L 340.90,275.71 L 340.68,276.35 L 340.45,276.54 L 339.91,276.85 L 339.47,276.91 L 338.46,277.00 L 337.74,277.00 L 334.99,276.50 L 333.65,275.67 L 333.24,275.01 L 332.31,273.40 L 332.14,272.73 L 332.34,272.53 L 332.96,272.21 L 333.63,272.12 L 334.38,272.02 L 334.85,271.98 L 335.87,271.89 L 336.50,271.84 L 339.03,271.70 M 299.73,272.06 L 300.91,272.21 L 301.24,272.37 L 301.77,272.78 L 301.87,273.12 L 302.00,273.92 L 302.00,274.50 L 301.97,275.47 L 301.89,275.81 L 301.65,276.39 L 301.41,276.56 L 300.84,276.85 L 300.39,276.91 L 299.36,277.00 L 298.62,277.00 L 295.95,276.63 L 295.21,276.38 L 294.92,276.24 L 294.41,275.92 L 294.28,275.75 L 293.42,274.60 L 292.99,273.97 L 292.85,273.71 L 292.63,273.23 L 292.60,273.05 L 292.60,272.71 L 292.69,272.58 L 292.93,272.35 L 293.15,272.28 L 293.64,272.14 L 293.99,272.10 L 294.76,272.03 L 295.25,272.02 L 296.30,272.00 L 296.94,272.00 M 275.60,251.86 L 275.54,252.15 L 275.44,252.93 L 275.40,253.36 L 275.32,254.41 L 275.25,255.53 L 275.19,258.56 L 275.21,264.25 L 275.42,277.00 L 272.50,277.00 L 270.66,276.92 L 269.85,276.75 L 269.60,276.57 L 269.20,276.15 L 269.12,275.81 L 269.00,275.05 L 269.00,274.50 L 269.11,273.22 L 269.33,272.64 L 269.55,272.46 L 270.06,272.16 L 270.46,272.09 L 271.37,272.00 L 275.00,272.00 L 275.00,261.50 L 275.07,257.10 L 275.19,254.70 L 275.27,253.80 L 275.47,252.19 L 275.60,251.72 L 275.72,251.41 M 185.99,271.56 L 186.28,271.72 L 186.81,272.15 L 187.03,272.53 L 187.47,273.42 L 187.72,274.06 L 188.20,275.35 L 188.30,275.76 L 188.38,276.45 L 188.20,276.63 L 187.71,276.91 L 187.18,276.95 L 185.94,277.00 L 184.98,277.00 L 183.08,276.90 L 182.13,276.73 L 181.79,276.57 L 181.18,276.21 L 180.97,275.94 L 180.61,275.33 L 180.48,274.92 L 180.08,273.48 L 180.08,272.86 L 180.27,272.66 L 180.80,272.31 L 181.33,272.17 L 182.59,271.89 L 183.55,271.71 L 185.20,271.50 M 158.62,271.94 L 160.25,272.31 L 160.92,272.59 L 161.08,272.79 L 161.29,273.23 L 161.25,273.54 L 161.09,274.25 L 160.91,274.75 L 160.56,275.55 L 160.33,275.84 L 159.84,276.36 L 159.50,276.53 L 158.77,276.82 L 158.28,276.89 L 157.22,277.00 L 156.53,277.00 L 154.28,276.74 L 153.34,276.30 L 153.15,275.95 L 152.95,275.17 L 153.13,274.66 L 153.69,273.56 L 154.25,272.88 L 155.96,271.89 L 157.57,271.75 M 130.38,272.12 L 131.38,272.37 L 131.62,272.61 L 131.95,273.19 L 131.90,273.65 L 131.67,274.69 L 131.39,275.42 L 130.77,276.27 L 130.17,276.55 L 128.81,277.00 L 128.00,277.00 L 126.30,276.73 L 125.39,276.28 L 125.05,275.93 L 124.44,275.15 L 124.27,274.65 L 124.00,273.57 L 124.00,272.92 L 124.32,272.56 L 124.81,272.35 L 125.17,272.27 L 126.90,272.00 L 128.00,272.00 M 113.32,271.70 L 113.52,271.87 L 113.85,272.28 L 113.92,272.66 L 114.00,273.53 L 114.00,274.17 L 113.98,275.28 L 113.90,275.66 L 113.70,276.32 L 113.48,276.51 L 112.98,276.83 L 112.58,276.91 L 111.66,277.00 L 111.00,277.00 L 109.48,276.91 L 108.78,276.73 L 108.56,276.55 L 108.20,276.14 L 108.12,275.82 L 108.00,275.11 L 108.00,274.61 L 108.14,273.42 L 108.38,272.84 L 108.61,272.62 L 109.14,272.24 L 109.53,272.11 L 110.41,271.87 L 111.00,271.79 L 112.62,271.63 M 276.07,261.19 L 276.00,264.21 L 276.00,277.00 L 275.44,277.00 L 275.75,266.54 L 275.80,264.88 L 275.96,261.99 L 276.05,260.62 L 276.11,260.08 M 140.76,258.84 L 140.82,259.15 L 140.92,259.97 L 140.96,260.42 L 141.04,261.55 L 141.07,262.16 L 141.12,263.64 L 141.19,266.28 L 141.21,267.21 L 141.25,268.76 L 141.27,269.48 L 141.30,270.61 L 141.32,271.12 L 141.36,271.84 L 141.38,272.14 L 141.42,272.46 L 141.44,272.57 L 141.48,272.50 L 141.50,272.42 L 141.56,271.97 L 141.58,271.70 L 141.64,270.88 L 141.74,269.25 L 141.79,268.39 L 141.85,266.34 L 141.88,265.28 L 141.88,265.10 L 142.07,272.00 L 145.60,272.00 L 147.45,272.07 L 148.25,272.23 L 148.48,272.39 L 148.82,272.76 L 148.87,273.07 L 148.89,273.76 L 148.82,274.25 L 148.66,275.03 L 148.51,275.33 L 148.16,275.88 L 147.89,276.08 L 147.29,276.43 L 146.88,276.55 L 145.97,276.75 L 145.38,276.80 L 144.05,276.86 L 143.32,276.80 L 143.02,276.69 L 142.47,276.43 L 142.25,276.20 L 141.85,275.66 L 141.70,275.28 L 141.43,274.41 L 141.34,273.84 L 141.18,272.58 L 141.13,271.78 L 141.04,270.07 L 141.03,269.02 L 141.00,266.78 L 141.00,265.45 L 140.99,263.04 L 140.96,261.70 L 140.94,261.15 L 140.89,260.12 L 140.86,259.71 L 140.78,258.96 L 140.74,258.79 M 138.73,257.82 L 138.50,257.69 L 138.50,257.69 L 138.73,257.82 L 139.46,257.65 M 277.56,252.27 L 277.70,252.71 L 277.87,253.61 L 277.80,253.99 L 277.53,254.66 L 277.51,254.66 L 277.76,253.94 L 277.83,253.54 L 277.66,252.65 L 277.54,252.25 M 275.80,251.22 L 275.75,251.31 L 275.87,251.00 L 275.95,251.00 Z" fill="rgb(199,68,89)"/>
    <path d="M 212.10,276.86 L 209.97,277.50 L 208.97,277.67 L 206.99,277.92 L 206.80,277.91 L 207.11,277.88 L 207.59,277.83 L 208.70,277.65 L 209.83,277.45 L 212.12,276.85 L 212.38,276.77 M 204.80,277.79 L 204.00,277.73 L 203.12,277.54 M 254.47,275.02 L 252.23,276.23 L 251.03,276.64 L 248.60,277.34 L 247.35,277.50 L 244.82,277.71 L 243.56,277.64 L 241.04,277.38 L 239.85,277.10 L 240.62,277.24 L 242.73,277.43 L 243.80,277.50 L 245.94,277.42 L 247.01,277.35 L 249.09,277.01 L 250.11,276.80 L 252.03,276.18 L 252.96,275.83 L 254.62,274.92 L 255.05,274.66 M 199.54,276.47 L 200.68,276.89 L 202.46,277.38 L 200.73,276.93 L 199.50,276.50 L 199.07,276.28 M 125.73,276.46 L 125.71,276.44 L 126.30,276.73 L 128.00,277.00 L 126.50,276.82 M 108.85,276.74 L 109.48,276.91 L 111.00,277.00 L 109.28,276.91 M 395.12,276.92 L 395.67,276.87 L 396.33,276.60 L 396.61,276.43 L 396.87,275.88 L 396.97,275.55 L 397.00,274.61 L 397.00,277.00 L 393.89,277.00 M 341.00,277.00 L 338.77,276.97 L 339.47,276.91 L 339.91,276.85 L 340.45,276.54 L 340.68,276.35 L 340.90,275.71 L 340.98,275.33 L 341.00,274.24 M 308.21,276.18 L 308.62,276.58 L 308.86,276.75 L 309.68,276.92 L 311.50,277.00 L 308.00,277.00 L 308.00,275.13 L 308.12,275.85 M 298.62,277.00 L 298.59,277.00 L 296.70,276.83 L 296.23,276.67 M 269.20,276.15 L 269.60,276.57 L 269.85,276.75 L 270.66,276.92 L 272.50,277.00 L 269.00,277.00 L 269.00,275.05 L 269.12,275.81 M 183.08,276.90 L 184.98,277.00 L 184.98,277.00 L 182.82,276.90 L 182.31,276.76 M 187.18,276.95 L 187.71,276.91 L 188.20,276.63 L 188.38,276.45 L 188.30,275.76 L 188.27,275.65 L 188.77,277.00 L 185.94,277.00 M 300.39,276.91 L 300.84,276.85 L 301.41,276.56 L 301.65,276.39 L 301.89,275.81 L 301.97,275.47 L 302.00,274.50 L 302.00,277.00 L 299.36,277.00 M 113.14,276.82 L 112.72,276.91 L 111.74,277.00 L 111.66,277.00 L 112.58,276.91 L 112.98,276.83 L 113.32,276.62 M 129.92,276.69 L 129.50,276.82 L 129.14,276.89 L 130.01,276.61 M 337.13,276.89 L 335.94,276.75 L 335.56,276.61 M 146.88,276.55 L 147.29,276.43 L 147.84,276.11 L 147.58,276.39 L 147.14,276.53 L 146.13,276.73 L 145.38,276.80 L 145.97,276.75 M 153.15,275.95 L 153.34,276.30 L 154.28,276.74 L 155.03,276.82 L 154.07,276.83 L 153.47,276.75 L 153.29,276.68 L 153.00,276.54 L 153.00,276.44 L 153.12,275.86 M 108.56,276.55 L 108.77,276.71 L 108.58,276.64 L 108.47,276.44 M 181.79,276.57 L 182.06,276.70 L 181.85,276.64 L 181.72,276.53 M 353.34,266.08 L 354.15,266.25 L 354.40,266.43 L 354.80,266.85 L 354.88,267.19 L 355.00,267.95 L 355.00,268.50 L 355.15,269.94 L 355.34,270.26 L 355.51,270.39 L 355.90,270.61 L 356.20,270.68 L 356.87,270.82 L 357.33,270.87 L 358.35,270.94 L 359.02,270.96 L 360.47,270.99 L 361.37,270.99 L 363.32,271.00 L 363.34,271.00 L 358.37,271.19 L 357.19,271.24 L 355.10,271.39 L 352.64,271.64 L 351.63,271.77 L 350.21,272.05 L 349.59,272.20 L 348.81,272.57 L 348.48,272.78 L 348.16,273.38 L 348.00,274.64 L 348.00,266.00 L 351.50,266.00 M 112.72,266.09 L 113.42,266.36 L 113.61,266.71 L 113.90,267.57 L 113.95,268.34 L 113.99,269.18 L 113.99,269.70 L 114.00,270.82 L 114.00,271.50 L 114.00,272.78 L 113.99,273.30 L 113.99,273.43 L 113.92,272.66 L 113.85,272.28 L 113.52,271.87 L 113.32,271.70 L 112.62,271.63 L 111.00,271.79 L 110.41,271.87 L 109.53,272.11 L 109.14,272.24 L 108.61,272.62 L 108.38,272.84 L 108.14,273.42 L 108.04,274.30 L 108.01,273.82 L 108.01,273.30 L 108.00,272.18 L 108.00,271.50 L 108.01,269.70 L 108.03,268.73 L 108.05,268.34 L 108.20,267.06 L 108.39,266.71 L 108.86,266.18 L 109.28,266.09 L 110.26,266.00 L 111.00,266.00 M 183.26,266.13 L 184.16,266.45 L 184.52,266.81 L 185.20,267.70 L 185.54,268.46 L 185.90,269.27 L 186.09,269.78 L 186.51,270.85 L 186.74,271.50 L 187.38,273.23 L 187.03,272.53 L 186.81,272.15 L 186.28,271.72 L 185.99,271.56 L 185.20,271.50 L 183.55,271.71 L 182.59,271.89 L 181.33,272.17 L 180.80,272.31 L 180.27,272.66 L 180.08,272.86 L 180.08,273.48 L 180.28,274.22 L 179.97,273.44 L 179.59,272.32 L 178.90,270.26 L 178.55,269.14 L 178.43,268.70 L 178.23,267.89 L 178.20,267.58 L 178.17,267.02 L 178.23,266.82 L 178.64,266.22 L 179.15,266.11 L 180.39,266.00 L 181.36,266.00 M 128.05,265.88 L 131.20,265.92 L 132.40,265.98 L 133.51,266.05 L 133.88,266.09 L 134.48,266.18 L 134.53,266.23 L 134.46,266.75 L 134.26,267.46 L 134.10,267.96 L 133.74,269.05 L 133.51,269.69 L 133.02,271.03 L 132.75,271.75 L 131.94,273.79 L 131.81,274.06 L 131.90,273.65 L 131.95,273.19 L 131.62,272.61 L 131.38,272.37 L 130.38,272.12 L 128.00,272.00 L 126.90,272.00 L 125.17,272.27 L 124.81,272.35 L 124.32,272.56 L 124.00,272.92 L 124.00,273.57 L 124.01,273.62 L 123.69,272.89 L 123.25,271.75 L 122.50,269.68 L 122.08,268.45 L 121.92,267.94 L 121.66,267.00 L 121.59,266.70 L 121.52,266.19 L 121.56,266.14 L 122.21,266.01 L 123.09,265.95 L 123.69,265.92 L 126.47,265.87 M 161.38,266.32 L 162.26,266.90 L 162.45,267.40 L 162.66,268.57 L 162.52,269.41 L 162.11,271.29 L 161.68,272.53 L 161.15,274.01 L 161.25,273.54 L 161.29,273.23 L 161.08,272.79 L 160.92,272.59 L 160.25,272.31 L 158.62,271.94 L 157.57,271.75 L 155.96,271.89 L 154.25,272.88 L 153.91,273.29 L 154.26,272.23 L 154.73,270.88 L 155.74,268.32 L 156.33,267.19 L 156.65,266.84 L 157.32,266.29 L 157.74,266.16 L 158.66,266.00 L 159.27,266.00 M 220.24,266.05 L 221.09,266.19 L 221.27,266.37 L 221.48,266.83 L 221.40,267.23 L 221.14,268.17 L 220.89,268.88 L 219.59,271.46 L 218.40,273.01 L 218.21,273.18 L 218.50,272.81 L 218.66,272.55 L 218.59,272.24 L 218.47,272.11 L 217.77,271.97 L 215.90,271.84 L 214.73,271.78 L 212.61,271.69 L 211.58,271.65 L 209.72,271.59 L 208.48,271.55 L 208.80,271.52 L 209.50,271.36 L 210.85,270.95 L 211.42,270.65 L 212.49,269.97 L 212.88,269.52 L 213.56,268.57 L 213.71,267.99 L 214.14,267.02 L 214.59,266.57 L 214.92,266.41 L 215.67,266.16 L 216.18,266.09 L 217.32,266.00 L 218.06,266.00 M 234.17,266.49 L 235.87,267.31 L 236.47,267.96 L 239.02,270.02 L 240.96,270.94 L 242.01,271.17 L 243.82,271.43 L 241.05,271.43 L 239.93,271.44 L 237.98,271.51 L 235.67,271.68 L 234.67,271.81 L 233.28,272.04 L 232.68,272.15 L 232.01,272.42 L 231.75,272.56 L 231.69,272.91 L 231.79,273.04 L 231.19,272.57 L 230.40,271.68 L 228.92,269.82 L 228.37,268.75 L 226.95,266.00 L 230.82,266.00 M 194.14,265.89 L 195.94,266.19 L 196.83,266.62 L 198.53,267.67 L 199.15,268.46 L 200.74,269.92 L 202.02,270.67 L 202.74,270.93 L 204.22,271.38 L 204.97,271.50 L 204.93,271.50 L 203.51,271.50 L 201.06,271.57 L 197.67,271.81 L 196.63,271.91 L 195.21,272.10 L 194.59,272.20 L 193.94,272.45 L 193.70,272.58 L 193.70,272.86 L 193.57,272.72 L 192.14,271.11 L 191.70,270.29 L 191.00,268.68 L 191.00,267.94 L 191.25,266.97 L 191.64,266.48 L 191.92,266.31 L 193.28,265.83 M 141.79,258.35 L 142.08,266.00 L 149.10,266.00 L 148.80,271.25 L 148.73,272.44 L 148.72,272.65 L 148.48,272.39 L 148.25,272.23 L 147.45,272.07 L 145.60,272.00 L 142.07,272.00 L 141.78,261.35 L 141.50,250.71 L 139.71,254.48 L 139.33,255.28 L 138.84,256.40 L 138.64,256.89 L 138.52,257.46 L 138.50,257.69 L 138.50,257.69 L 138.52,257.46 L 138.64,256.89 L 138.84,256.40 L 139.33,255.28 L 139.71,254.47 L 141.50,250.70 M 258.93,266.14 L 259.62,266.33 L 259.89,266.46 L 260.36,266.77 L 260.48,266.97 L 260.64,267.65 L 260.57,268.20 L 260.45,268.53 L 259.79,269.91 L 259.22,270.68 L 257.92,272.25 L 257.64,272.50 L 257.69,272.36 L 257.60,272.26 L 256.73,272.09 L 256.19,272.00 L 254.61,271.85 L 253.75,271.77 L 251.66,271.65 L 250.58,271.59 L 248.21,271.51 L 245.81,271.43 L 244.66,271.43 L 245.22,271.38 L 247.39,271.03 L 248.43,270.59 L 251.14,269.08 L 251.85,268.52 L 252.11,268.26 L 252.54,267.76 L 252.62,267.55 L 253.11,266.96 L 253.64,266.63 L 253.99,266.50 L 255.55,266.07 L 256.43,266.01 L 258.20,265.98 M 275.60,251.72 L 275.47,252.19 L 275.27,253.80 L 275.19,254.70 L 275.07,257.10 L 275.00,261.50 L 275.00,258.50 L 275.07,255.44 L 275.19,253.73 L 275.28,253.07 L 275.48,251.89 L 275.61,251.54 L 275.85,251.06 M 313.38,276.92 L 313.86,276.85 L 314.44,276.55 L 314.68,276.36 L 314.90,275.71 L 314.98,275.33 L 315.00,274.20 L 315.00,277.00 L 312.29,277.00 M 269.01,269.70 L 269.03,268.73 L 269.05,268.34 L 269.20,267.06 L 269.39,266.71 L 269.86,266.18 L 270.28,266.09 L 271.26,266.00 L 275.00,266.00 L 275.00,272.00 L 271.37,272.00 L 270.46,272.09 L 270.06,272.16 L 269.55,272.46 L 269.33,272.64 L 269.11,273.22 L 269.00,274.50 L 269.00,271.50 M 396.86,273.35 L 396.75,273.02 L 396.29,272.57 L 396.01,272.37 L 395.08,272.11 L 393.00,271.83 L 392.05,271.74 L 390.77,271.68 L 390.22,271.68 L 389.58,271.90 L 389.31,272.06 L 389.25,272.24 L 389.28,272.06 L 389.50,270.62 L 389.64,269.75 L 390.07,267.70 L 390.41,266.83 L 390.68,266.57 L 391.30,266.18 L 391.77,266.10 L 392.85,266.00 L 397.00,266.00 L 397.00,274.09 M 301.87,273.12 L 301.77,272.78 L 301.24,272.37 L 300.91,272.21 L 299.73,272.06 L 296.94,272.00 L 296.30,272.00 L 295.25,272.02 L 294.76,272.03 L 293.99,272.10 L 293.64,272.14 L 293.15,272.28 L 292.93,272.35 L 292.69,272.58 L 292.60,272.71 L 292.60,273.05 L 292.63,273.23 L 292.82,273.65 L 292.42,273.15 L 291.66,272.10 L 290.34,270.14 L 289.62,268.96 L 289.35,268.46 L 288.89,267.53 L 288.78,267.21 L 288.66,266.68 L 288.74,266.60 L 289.47,266.36 L 290.39,266.23 L 291.02,266.18 L 292.37,266.08 L 293.16,266.05 L 294.80,266.00 L 302.00,266.00 L 302.00,273.92 M 340.91,272.70 L 340.82,272.32 L 340.37,271.92 L 340.08,271.76 L 339.03,271.70 L 336.50,271.84 L 335.87,271.89 L 334.85,271.98 L 334.38,272.02 L 333.63,272.12 L 332.96,272.21 L 332.34,272.53 L 332.14,272.73 L 332.31,273.40 L 332.93,274.48 L 332.84,274.36 L 331.60,272.75 L 330.81,271.61 L 327.13,266.30 L 334.06,266.10 L 341.00,265.89 L 341.00,273.58 M 315.00,266.00 L 315.00,273.55 L 314.91,272.67 L 314.84,272.30 L 314.47,271.88 L 314.24,271.72 L 313.42,271.66 L 311.50,271.81 L 310.77,271.90 L 309.73,272.11 L 309.26,272.23 L 308.66,272.59 L 308.40,272.80 L 308.14,273.38 L 308.00,274.61 L 308.00,266.00 Z" fill="rgb(222,38,54)"/>
    <path d="M 269.00,253.95 L 269.00,245.71 L 273.87,245.24 L 274.62,245.17 L 275.94,245.12 L 276.57,245.12 L 277.61,245.20 L 278.09,245.25 L 278.80,245.46 L 279.43,245.89 L 279.67,246.27 L 280.11,246.73 L 280.31,246.91 L 280.60,246.98 L 280.72,246.96 L 280.75,246.64 L 280.72,246.43 L 280.38,245.75 L 280.07,245.22 L 281.86,247.70 L 283.00,249.28 L 283.43,249.90 L 284.21,251.04 L 284.47,251.47 L 284.93,252.23 L 285.05,252.50 L 285.22,252.97 L 285.21,253.13 L 285.12,253.38 L 284.99,253.45 L 284.27,253.61 L 283.65,253.65 L 281.55,253.91 L 280.05,254.18 L 279.50,254.32 L 277.87,254.72 L 277.12,254.87 L 277.18,254.77 L 277.53,254.66 L 277.80,253.99 L 277.87,253.61 L 277.70,252.71 L 277.56,252.27 L 277.05,251.52 L 276.03,251.00 L 275.88,251.00 L 275.61,251.54 L 275.48,251.89 L 275.28,253.07 L 275.19,253.73 L 275.07,255.44 L 275.00,258.50 L 275.00,252.75 M 301.94,243.68 L 301.97,244.46 L 302.00,246.11 L 302.00,247.08 L 301.94,250.19 L 301.80,251.56 L 301.67,251.98 L 301.35,252.65 L 301.09,252.80 L 300.50,253.00 L 300.08,253.00 L 297.47,253.25 L 296.29,253.73 L 295.93,254.21 L 295.33,255.33 L 295.19,256.22 L 295.07,257.16 L 295.04,257.72 L 295.00,258.91 L 295.00,259.61 L 294.98,261.06 L 294.94,261.70 L 294.85,262.93 L 294.78,263.42 L 294.63,264.30 L 294.54,264.58 L 294.35,265.00 L 294.25,265.00 L 294.11,264.76 L 294.04,264.37 L 294.01,264.07 L 293.92,262.61 L 293.91,261.55 L 293.92,259.22 L 293.96,257.81 L 294.07,254.87 L 294.16,253.25 L 294.24,251.77 L 294.26,251.89 L 294.30,252.06 L 294.39,252.02 L 294.43,251.94 L 294.55,251.39 L 294.74,250.01 L 294.86,249.05 L 295.38,247.32 L 295.53,246.94 L 295.84,246.34 L 296.01,246.07 L 296.33,245.77 L 296.65,245.57 L 297.82,245.24 L 299.75,245.02 L 300.52,245.01 L 301.45,244.54 L 301.92,243.30 M 276.10,260.40 L 276.06,261.72 L 276.00,264.49 L 276.00,264.21 L 276.07,261.19 L 276.12,259.80 L 276.16,259.26 M 148.97,244.30 L 149.00,246.00 L 149.00,252.87 L 145.75,253.19 L 143.87,253.47 L 143.09,253.83 L 142.87,254.24 L 142.52,255.25 L 142.43,256.13 L 142.34,257.09 L 142.31,257.69 L 142.24,258.97 L 142.20,259.75 L 142.00,263.91 L 141.79,258.35 L 141.50,250.70 L 139.71,254.47 L 139.33,255.28 L 138.84,256.40 L 138.64,256.89 L 138.53,257.40 L 138.49,257.29 L 138.50,257.06 L 138.57,256.54 L 138.66,256.19 L 138.77,255.23 L 138.65,254.70 L 138.49,254.47 L 138.11,254.05 L 137.80,253.87 L 137.11,253.52 L 136.65,253.36 L 134.12,252.50 L 137.16,245.25 L 137.26,245.00 L 144.32,245.00 L 146.16,244.94 L 146.96,244.89 L 147.97,244.67 L 148.39,244.53 L 148.80,244.09 L 148.95,243.83 L 148.96,243.79 M 230.07,244.76 L 231.64,245.16 L 232.43,245.35 L 234.39,245.47 L 237.00,245.28 L 237.34,245.20 L 238.40,245.07 L 238.98,245.01 L 239.71,244.96 L 238.86,245.27 L 237.96,245.89 L 236.29,247.27 L 235.65,248.16 L 234.49,250.10 L 234.13,251.27 L 233.55,253.24 L 233.29,254.28 L 232.81,256.31 L 232.69,257.00 L 232.45,258.40 L 232.34,258.86 L 232.31,258.85 L 232.25,258.66 L 232.22,258.33 L 232.17,257.49 L 232.14,256.82 L 231.57,254.97 L 230.80,253.98 L 230.30,253.66 L 229.23,253.13 L 228.66,253.09 L 227.53,253.17 L 227.01,253.49 L 226.46,253.68 L 226.20,253.59 L 226.13,253.45 L 225.98,252.64 L 226.11,251.96 L 226.49,250.43 L 226.86,249.50 L 227.70,247.55 L 228.29,246.52 L 229.72,244.61 M 139.79,257.53 L 139.66,257.58 L 139.79,257.53 M 396.93,250.89 L 396.78,251.94 L 396.62,252.25 L 396.25,252.75 L 395.94,252.87 L 395.25,253.01 L 394.75,253.02 L 392.82,253.24 L 391.67,253.56 L 391.35,253.77 L 390.70,254.43 L 390.40,255.02 L 389.86,256.31 L 389.74,257.00 L 389.55,257.36 L 389.42,256.96 L 389.37,256.49 L 389.27,255.36 L 389.23,254.56 L 389.15,252.82 L 389.14,251.75 L 389.06,247.27 L 389.08,247.41 L 389.25,247.58 L 389.36,247.61 L 389.74,247.35 L 390.64,246.50 L 391.17,245.97 L 392.47,245.44 L 393.15,245.26 L 394.64,245.45 L 395.30,245.61 L 396.32,245.57 L 397.00,245.02 L 397.00,248.50 M 259.62,245.09 L 260.22,246.23 L 261.33,248.60 L 261.72,249.87 L 262.40,252.47 L 262.54,253.80 L 262.65,255.11 L 262.68,255.74 L 262.67,255.92 L 262.63,256.20 L 262.58,256.19 L 262.48,256.06 L 262.41,255.84 L 261.59,254.44 L 260.79,253.80 L 260.31,253.63 L 259.28,253.40 L 258.73,253.45 L 257.61,253.68 L 257.05,253.97 L 256.10,254.36 L 255.64,254.36 L 255.46,254.21 L 255.14,253.81 L 255.01,253.44 L 254.77,252.58 L 254.64,251.95 L 253.39,248.64 L 252.08,246.83 L 251.22,246.14 L 249.37,244.92 L 249.34,244.91 L 250.27,244.94 L 251.19,244.97 L 252.94,245.05 L 255.21,245.18 L 256.32,245.26 L 257.79,245.31 L 258.41,245.32 L 259.04,245.17 L 259.27,245.07 L 259.23,244.64 L 259.09,244.38 M 315.20,244.99 L 315.69,244.98 L 316.48,244.95 L 317.21,244.91 L 318.01,244.72 L 318.32,244.60 L 318.44,244.19 L 318.43,243.95 L 318.05,243.25 L 317.46,242.24 L 317.65,242.48 L 318.13,243.12 L 319.12,244.47 L 319.69,245.27 L 324.89,252.50 L 322.28,253.39 L 319.87,253.76 L 318.44,253.51 L 317.85,253.14 L 316.43,252.33 L 315.71,252.00 L 315.58,252.00 L 315.31,252.21 L 315.18,252.56 L 314.91,253.38 L 314.82,253.90 L 314.61,254.82 L 314.44,255.16 L 314.32,255.20 L 314.07,255.18 L 313.89,255.05 L 313.48,254.70 L 313.21,254.40 L 311.72,253.41 L 310.50,253.00 L 309.96,253.00 L 308.91,252.78 L 308.45,252.31 L 308.32,251.79 L 308.19,251.23 L 308.15,250.85 L 308.08,250.04 L 308.06,249.53 L 308.02,248.44 L 308.01,247.77 L 308.00,246.35 L 308.00,245.00 L 314.16,245.00 M 348.20,243.50 L 348.57,244.17 L 348.80,244.48 L 349.55,244.93 L 351.25,245.54 L 351.85,245.72 L 352.78,245.92 L 353.21,246.00 L 353.84,246.01 L 354.12,245.99 L 354.50,245.80 L 354.82,245.29 L 354.87,245.08 L 355.00,245.01 L 355.00,248.96 L 355.08,251.36 L 355.23,252.53 L 355.36,252.93 L 355.67,253.64 L 355.90,253.86 L 356.41,254.22 L 356.75,254.31 L 357.61,254.57 L 357.65,254.65 L 357.48,254.76 L 357.00,254.76 L 356.12,254.67 L 355.31,254.54 L 354.84,254.44 L 352.78,253.99 L 351.75,253.70 L 348.00,252.65 L 348.00,241.98 L 348.11,243.03 M 207.34,244.00 L 207.39,244.00 L 206.91,244.00 L 204.44,244.16 L 202.99,244.42 L 202.37,244.62 L 201.22,245.06 L 200.76,245.34 L 199.92,245.93 L 199.63,246.27 L 199.13,246.99 L 199.01,247.39 L 198.87,248.21 L 198.94,248.65 L 199.18,249.54 L 199.45,250.01 L 200.09,250.95 L 200.57,251.43 L 201.34,252.28 L 201.55,252.64 L 201.47,252.75 L 201.21,252.92 L 200.88,252.96 L 200.11,253.00 L 199.51,253.00 L 197.92,253.11 L 197.11,253.28 L 195.56,253.70 L 195.07,253.96 L 193.53,254.51 L 192.82,254.37 L 192.60,254.01 L 192.22,253.06 L 192.13,252.24 L 192.05,251.36 L 192.03,250.82 L 192.00,249.68 L 192.00,249.01 L 192.23,246.47 L 192.62,244.94 L 192.75,244.65 L 192.79,244.71 L 193.56,244.95 L 195.61,245.32 L 196.62,245.49 L 198.73,245.46 L 199.22,245.43 L 200.09,245.29 L 201.07,244.96 L 201.88,244.53 L 203.99,244.08 L 205.08,243.92 M 119.75,247.29 L 120.41,248.96 L 120.67,249.64 L 121.13,250.90 L 121.29,251.40 L 121.58,252.30 L 121.66,252.63 L 121.77,253.21 L 121.77,253.41 L 121.73,253.73 L 121.65,253.80 L 121.19,253.90 L 120.77,253.74 L 119.34,253.60 L 118.32,253.80 L 117.94,254.04 L 116.72,254.34 L 116.01,254.06 L 115.78,253.70 L 115.24,253.00 L 115.00,253.00 L 114.53,253.23 L 114.22,253.70 L 113.28,254.34 L 112.49,254.30 L 112.06,254.04 L 110.69,253.59 L 109.71,253.56 L 109.34,253.70 L 108.69,253.58 L 108.38,253.01 L 108.28,252.43 L 108.10,251.06 L 108.06,250.01 L 108.02,248.89 L 108.01,248.24 L 108.00,246.85 L 108.00,245.50 L 114.25,245.50 L 115.63,245.49 L 116.29,245.48 L 117.38,245.46 L 117.88,245.45 L 118.56,245.42 L 118.84,245.41 L 118.98,245.38 M 177.35,245.20 L 178.38,248.08 L 178.99,249.81 L 179.23,250.52 L 179.66,251.82 L 179.80,252.26 L 180.01,252.98 L 180.00,253.05 L 179.73,253.27 L 179.30,253.41 L 178.99,253.47 L 177.50,253.67 L 176.56,253.70 L 174.73,253.66 L 173.88,253.48 L 173.60,253.29 L 173.10,252.81 L 172.93,252.42 L 172.62,251.53 L 172.48,250.90 L 171.74,248.81 L 171.15,248.12 L 170.82,248.12 L 170.14,248.37 L 169.78,248.84 L 169.06,250.02 L 168.71,250.96 L 168.25,252.09 L 168.01,252.48 L 167.51,253.16 L 167.19,253.36 L 166.49,253.69 L 166.02,253.75 L 164.98,253.83 L 164.28,253.80 L 162.20,253.64 L 161.79,253.48 L 161.68,253.33 L 161.51,252.98 L 161.51,252.70 L 161.57,252.07 L 161.68,251.62 L 161.97,250.63 L 162.21,249.98 L 162.73,248.54 L 163.08,247.63 L 163.84,245.68 L 164.30,244.47 L 164.68,243.50 L 164.66,244.04 L 164.69,244.28 L 165.03,244.55 L 166.00,244.81 L 166.51,244.90 L 167.68,245.47 L 169.10,246.62 L 169.38,246.96 L 169.79,247.37 L 169.98,247.54 L 170.29,247.61 L 170.44,247.61 L 170.72,247.35 L 171.22,246.56 L 171.47,246.13 L 172.56,245.46 L 173.16,245.18 L 174.55,245.00 L 175.26,245.00 L 176.16,244.97 L 176.53,244.93 L 176.82,244.60 L 176.90,244.37 L 176.69,243.46 L 176.23,242.12 M 220.65,246.55 L 220.93,247.72 L 220.79,248.08 L 220.34,248.67 L 219.81,248.81 L 218.56,249.00 L 217.62,249.00 L 215.94,248.87 L 215.01,248.64 L 214.62,248.44 L 213.87,247.99 L 213.54,247.67 L 212.90,246.96 L 212.83,246.86 L 212.86,246.91 L 213.05,247.13 L 213.38,247.28 L 213.54,247.30 L 213.89,247.06 L 214.54,246.27 L 214.90,245.78 L 215.97,245.26 L 216.54,245.09 L 217.85,245.25 L 218.46,245.41 L 219.26,245.54 L 219.59,245.56 L 219.87,245.35 L 219.94,245.19 L 219.76,244.59 M 340.99,251.32 L 340.96,252.58 L 340.90,254.96 L 340.85,255.92 L 340.75,257.64 L 340.69,258.17 L 340.63,258.65 L 340.60,258.79 L 340.53,259.00 L 340.50,259.00 L 340.15,258.26 L 340.00,257.17 L 340.00,256.47 L 339.87,255.21 L 339.62,254.57 L 339.39,254.34 L 338.87,253.92 L 338.47,253.76 L 337.60,253.47 L 337.00,253.35 L 334.00,252.75 L 334.00,242.20 L 334.08,243.23 L 334.15,243.69 L 334.39,244.30 L 334.54,244.57 L 334.99,244.85 L 335.96,245.00 L 336.50,245.00 L 337.72,245.43 L 339.21,246.46 L 339.57,246.86 L 340.19,247.51 L 340.75,247.96 L 340.78,247.97 L 340.85,247.58 L 340.88,247.33 L 340.93,246.52 L 340.95,246.07 L 340.98,244.94 L 340.99,244.34 L 341.00,243.00 L 341.00,248.50 M 212.19,245.93 L 212.38,246.23 L 211.91,245.66 M 219.48,243.97 L 219.64,244.30 L 219.25,243.52 M 199.03,239.14 L 197.98,239.53 L 196.15,240.63 L 193.88,242.61 L 194.09,242.36 L 195.08,241.27 L 195.69,240.80 L 196.98,239.94 L 197.74,239.59 L 199.32,238.94 L 200.23,238.71 L 200.95,238.55 M 296.50,238.13 L 296.11,238.24 L 295.60,238.78 L 295.37,239.13 L 295.06,240.36 L 294.76,242.44 L 294.78,242.16 L 294.82,241.36 L 294.86,240.61 L 294.88,240.34 L 294.90,239.87 L 294.91,239.75 L 295.11,238.95 L 295.41,238.55 L 295.66,238.41 L 296.20,238.17 L 296.57,238.10 L 297.38,238.00 L 297.39,238.00 M 237.64,239.10 L 236.33,239.50 L 233.89,240.65 L 232.04,241.91 L 233.60,240.60 L 235.00,239.93 L 237.96,238.78 L 239.70,238.50 L 240.11,238.45 M 110.12,238.04 L 109.70,238.06 L 109.14,238.13 L 108.52,238.49 L 108.26,238.72 L 108.07,239.60 L 108.00,241.74 L 108.00,237.89 M 253.15,239.37 L 253.80,239.66 L 254.97,240.28 L 253.36,239.50 L 252.81,239.27 M 139.41,240.20 L 139.43,240.15 L 139.45,240.12 M 175.51,240.12 L 175.20,239.47 L 174.95,239.04 L 174.33,238.52 L 173.99,238.30 L 172.99,238.10 L 172.41,238.07 L 174.70,237.90 M 139.95,239.34 L 140.07,239.16 L 140.21,239.01 M 213.63,238.98 L 214.28,239.28 L 213.37,238.92 M 300.97,238.98 L 301.09,239.24 L 301.06,239.20 L 300.80,238.86 M 211.04,238.37 L 212.85,238.80 L 210.80,238.35 M 300.02,238.33 L 300.49,238.65 L 299.85,238.30 M 142.07,238.12 L 141.53,238.20 L 140.72,238.60 L 140.68,238.63 L 141.17,238.24 L 141.76,238.12 L 143.05,238.00 L 143.26,238.00 M 146.67,238.27 L 147.31,238.52 L 147.44,238.63 L 146.46,238.25 M 202.45,238.28 L 201.55,238.42 L 202.10,238.30 L 203.14,238.18 L 204.18,238.09 M 140.96,261.82 L 140.94,261.27 L 140.89,260.25 L 140.86,259.84 L 140.78,259.08 L 140.72,258.79 L 140.48,257.86 L 140.29,257.68 L 140.18,257.63 L 140.25,257.65 L 140.46,257.80 L 140.72,258.68 L 140.78,258.96 L 140.86,259.71 L 140.89,260.12 L 140.94,261.15 L 140.96,261.70 L 140.99,263.04 L 141.00,265.45 L 140.99,263.13 M 273.60,238.26 L 274.64,238.76 L 275.11,239.16 L 273.90,238.47 L 271.88,238.00 L 271.92,238.00 M 310.26,238.01 L 309.42,238.09 L 308.99,238.16 L 308.47,238.53 L 308.26,238.76 L 308.08,239.58 L 308.00,241.50 L 308.00,238.00 M 336.67,238.00 L 335.55,238.08 L 335.06,238.15 L 334.50,238.50 L 334.27,238.73 L 334.08,239.55 L 334.00,241.50 L 334.00,238.00 M 271.21,238.00 L 270.30,238.10 L 269.91,238.18 L 269.44,238.58 L 269.24,238.84 L 269.07,239.74 L 269.00,241.85 L 269.00,238.00 Z" fill="rgb(212,94,2)"/>
    <path d="M 512.00,512.00 L 0.00,512.00 L 0.00,0.00 L 512.00,0.00 M 82.91,214.00 L 78.00,218.91 L 78.00,293.09 L 80.45,295.55 L 82.91,298.00 L 257.00,298.00 L 431.09,298.00 L 433.55,295.55 L 436.00,293.09 L 436.00,218.91 L 433.55,216.45 L 431.09,214.00 M 289.44,216.91 L 294.79,216.92 L 305.35,216.94 L 310.60,216.95 L 320.88,216.97 L 325.98,216.99 L 335.90,217.02 L 340.81,217.04 L 350.29,217.08 L 354.97,217.10 L 363.93,217.14 L 368.34,217.17 L 376.68,217.22 L 380.77,217.25 L 388.43,217.31 L 392.16,217.34 L 399.04,217.40 L 402.37,217.44 L 408.39,217.51 L 411.28,217.55 L 416.35,217.63 L 418.76,217.67 L 422.80,217.76 L 423.74,217.78 L 425.41,217.82 L 426.22,217.85 L 427.61,217.89 L 428.26,217.92 L 429.36,217.97 L 429.86,217.99 L 430.65,218.04 L 431.00,218.07 L 431.47,218.12 L 431.80,218.20 L 431.91,218.31 L 432.10,219.31 L 432.20,219.94 L 432.36,221.87 L 432.45,222.94 L 432.59,225.67 L 432.65,227.12 L 432.77,230.50 L 432.82,232.26 L 432.91,236.15 L 432.95,238.15 L 433.01,242.42 L 433.06,246.77 L 433.09,256.00 L 433.09,260.62 L 433.01,269.58 L 432.98,271.75 L 432.91,275.85 L 432.87,277.85 L 432.77,281.50 L 432.71,283.26 L 432.59,286.33 L 432.52,287.78 L 432.36,290.13 L 432.28,291.20 L 432.10,292.69 L 431.80,293.80 L 431.77,293.83 L 431.47,293.88 L 431.28,293.91 L 430.65,293.96 L 430.30,293.98 L 429.36,294.03 L 428.85,294.06 L 427.61,294.11 L 426.95,294.13 L 425.41,294.18 L 424.61,294.20 L 422.80,294.24 L 420.91,294.29 L 416.35,294.37 L 413.94,294.41 L 408.39,294.49 L 405.50,294.53 L 399.04,294.60 L 395.71,294.63 L 388.43,294.69 L 384.70,294.73 L 376.68,294.78 L 372.59,294.81 L 363.93,294.86 L 359.53,294.88 L 350.29,294.92 L 345.62,294.95 L 335.90,294.98 L 330.99,295.00 L 320.88,295.03 L 315.78,295.04 L 305.35,295.06 L 300.10,295.07 L 289.44,295.09 L 278.74,295.10 L 257.00,295.11 L 246.13,295.11 L 224.56,295.09 L 219.21,295.08 L 208.65,295.06 L 203.40,295.05 L 193.12,295.03 L 188.02,295.01 L 178.10,294.98 L 173.19,294.96 L 163.71,294.92 L 159.03,294.90 L 150.07,294.86 L 145.66,294.83 L 137.32,294.78 L 133.23,294.75 L 125.57,294.69 L 121.84,294.66 L 114.96,294.60 L 111.63,294.56 L 105.61,294.49 L 102.72,294.45 L 97.65,294.37 L 95.24,294.33 L 91.20,294.24 L 90.26,294.22 L 88.59,294.18 L 87.78,294.15 L 86.39,294.11 L 85.74,294.08 L 84.64,294.03 L 84.14,294.01 L 83.35,293.96 L 83.00,293.93 L 82.53,293.88 L 82.34,293.85 L 82.20,293.80 L 82.09,293.69 L 81.90,292.69 L 81.80,292.06 L 81.64,290.13 L 81.55,289.06 L 81.41,286.33 L 81.35,284.88 L 81.23,281.50 L 81.18,279.74 L 81.09,275.85 L 81.05,273.85 L 80.99,269.58 L 80.94,265.23 L 80.91,256.00 L 80.91,251.38 L 80.99,242.42 L 81.02,240.25 L 81.09,236.15 L 81.13,234.15 L 81.23,230.50 L 81.29,228.74 L 81.41,225.67 L 81.48,224.22 L 81.64,221.87 L 81.72,220.80 L 81.90,219.31 L 82.20,218.20 L 82.23,218.17 L 82.53,218.12 L 82.72,218.09 L 83.35,218.04 L 83.70,218.02 L 84.64,217.97 L 85.15,217.94 L 86.39,217.89 L 87.05,217.87 L 88.59,217.82 L 89.39,217.80 L 91.20,217.76 L 93.09,217.71 L 97.65,217.63 L 100.06,217.59 L 105.61,217.51 L 108.50,217.47 L 114.96,217.40 L 118.29,217.37 L 125.57,217.31 L 129.30,217.27 L 137.32,217.22 L 141.41,217.19 L 150.07,217.14 L 154.47,217.12 L 163.71,217.08 L 168.38,217.05 L 178.10,217.02 L 183.01,217.00 L 193.12,216.97 L 198.22,216.96 L 208.65,216.94 L 213.90,216.93 L 224.56,216.91 L 235.26,216.90 L 257.00,216.89 L 267.87,216.89 M 420.75,266.34 L 420.46,266.51 L 419.55,267.02 L 419.05,267.30 L 417.76,268.02 L 417.07,268.40 L 415.46,269.29 L 414.63,269.75 L 412.75,270.78 L 410.83,271.84 L 406.44,274.26 L 399.50,278.05 L 397.16,279.33 L 392.74,281.76 L 390.61,282.94 L 386.91,285.00 L 386.05,285.48 L 384.54,286.33 L 383.82,286.73 L 382.63,287.41 L 382.09,287.73 L 381.27,288.21 L 380.53,288.66 L 380.32,288.81 L 380.15,289.05 L 380.12,289.16 L 380.37,289.35 L 380.56,289.44 L 381.33,289.58 L 381.78,289.65 L 383.14,289.76 L 383.91,289.80 L 385.96,289.88 L 387.08,289.91 L 389.92,289.95 L 391.44,289.97 L 395.14,289.99 L 401.78,290.00 L 425.00,290.00 L 425.00,263.92 M 191.92,266.31 L 191.64,266.48 L 191.25,266.97 L 191.00,267.94 L 191.00,268.68 L 191.70,270.29 L 192.14,271.11 L 193.57,272.72 L 194.35,273.51 L 196.28,274.90 L 199.50,276.50 L 200.73,276.93 L 202.93,277.50 L 204.00,277.73 L 206.00,277.89 L 206.99,277.92 L 208.97,277.67 L 209.97,277.50 L 212.10,276.86 L 213.19,276.50 L 215.13,275.51 L 216.06,274.98 L 217.65,273.69 L 218.40,273.01 L 219.59,271.46 L 220.89,268.88 L 221.14,268.17 L 221.40,267.23 L 221.48,266.83 L 221.27,266.37 L 221.09,266.19 L 220.24,266.05 L 218.06,266.00 L 217.32,266.00 L 216.18,266.09 L 215.67,266.16 L 214.92,266.41 L 214.59,266.57 L 214.14,267.02 L 213.71,267.99 L 213.56,268.57 L 212.88,269.52 L 212.49,269.97 L 211.42,270.65 L 210.85,270.95 L 209.50,271.36 L 208.80,271.52 L 207.30,271.64 L 206.54,271.67 L 204.99,271.50 L 204.22,271.38 L 202.74,270.93 L 202.02,270.67 L 200.74,269.92 L 199.15,268.46 L 198.53,267.67 L 196.83,266.62 L 195.94,266.19 L 194.14,265.89 L 193.28,265.83 M 228.37,268.75 L 228.92,269.82 L 230.40,271.68 L 231.19,272.57 L 233.08,274.07 L 234.07,274.78 L 236.27,275.89 L 237.40,276.39 L 239.81,277.09 L 241.04,277.38 L 243.56,277.64 L 244.82,277.71 L 247.35,277.50 L 248.60,277.34 L 251.03,276.64 L 252.23,276.23 L 254.47,275.02 L 255.40,274.44 L 257.11,273.00 L 257.92,272.25 L 259.22,270.68 L 259.79,269.91 L 260.45,268.53 L 260.57,268.20 L 260.64,267.65 L 260.48,266.97 L 260.36,266.77 L 260.22,266.68 L 260.38,266.71 L 260.63,266.75 L 261.05,266.82 L 261.14,266.84 L 261.53,266.62 L 261.78,266.18 L 261.89,265.84 L 262.32,264.22 L 262.46,263.16 L 262.70,260.94 L 262.72,259.86 L 262.67,257.76 L 262.50,257.00 L 261.88,255.15 L 261.34,254.24 L 261.59,254.44 L 262.41,255.84 L 262.48,256.06 L 262.58,256.19 L 262.63,256.20 L 262.67,255.92 L 262.68,255.74 L 262.65,255.11 L 262.54,253.80 L 262.40,252.47 L 261.72,249.87 L 261.33,248.60 L 260.22,246.23 L 259.62,245.09 L 258.15,243.11 L 255.63,240.74 L 255.04,240.32 L 253.80,239.66 L 253.15,239.37 L 251.67,238.93 L 250.88,238.73 L 248.99,238.47 L 245.50,238.22 L 244.44,238.17 L 242.46,238.22 L 241.49,238.27 L 239.70,238.50 L 237.96,238.78 L 235.00,239.93 L 233.60,240.60 L 231.25,242.58 L 228.29,246.52 L 227.70,247.55 L 226.86,249.50 L 226.49,250.43 L 226.11,251.96 L 225.98,252.64 L 226.13,253.45 L 226.20,253.59 L 226.46,253.68 L 227.01,253.49 L 227.53,253.17 L 228.66,253.09 L 229.23,253.13 L 230.30,253.66 L 230.43,253.74 L 230.15,253.61 L 229.06,253.19 L 228.51,253.16 L 227.44,253.23 L 227.01,253.49 L 226.63,254.16 L 226.42,254.96 L 226.34,255.49 L 226.06,257.90 L 226.02,259.27 L 226.01,262.03 L 226.12,263.13 L 226.24,264.17 L 226.33,264.55 L 226.53,265.20 L 226.67,265.33 L 226.95,265.51 L 227.22,265.59 L 227.85,265.74 L 228.25,265.80 L 230.08,266.00 L 226.95,266.00 M 391.77,266.10 L 391.30,266.18 L 390.68,266.57 L 390.41,266.83 L 390.07,267.70 L 389.64,269.75 L 389.50,270.62 L 389.28,272.06 L 389.18,272.74 L 389.06,273.82 L 389.02,274.33 L 389.04,275.11 L 389.07,275.46 L 389.25,275.99 L 389.36,276.22 L 389.71,276.54 L 389.91,276.68 L 390.47,276.85 L 393.00,277.00 L 397.00,277.00 L 397.00,259.50 L 396.99,257.48 L 396.97,256.37 L 396.94,255.92 L 396.81,254.40 L 396.66,253.97 L 396.30,253.30 L 395.99,253.17 L 395.28,253.01 L 394.75,253.02 L 392.84,253.24 L 391.70,253.56 L 391.39,253.77 L 390.87,254.38 L 390.54,255.01 L 390.38,255.42 L 389.81,257.25 L 389.62,258.32 L 389.30,260.50 L 389.27,261.51 L 389.31,263.41 L 389.51,264.04 L 389.78,264.71 L 389.98,264.96 L 390.44,265.41 L 390.76,265.56 L 391.47,265.83 L 391.93,265.90 L 392.94,266.00 L 392.85,266.00 M 113.42,265.64 L 113.61,265.29 L 113.90,264.44 L 113.95,263.67 L 113.99,262.84 L 113.99,262.32 L 114.00,261.21 L 114.00,260.54 L 113.92,257.87 L 113.76,256.53 L 113.63,256.04 L 113.32,255.17 L 113.09,254.87 L 112.59,254.34 L 112.51,254.30 L 113.28,254.34 L 114.22,253.70 L 114.53,253.23 L 115.00,253.00 L 115.24,253.00 L 115.78,253.70 L 116.01,254.06 L 116.72,254.34 L 117.94,254.04 L 118.00,254.00 L 117.36,254.82 L 117.26,255.67 L 117.38,256.32 L 117.74,257.78 L 118.12,258.82 L 118.52,259.92 L 118.77,260.56 L 119.31,261.89 L 119.63,262.66 L 120.15,263.80 L 120.41,264.23 L 120.96,265.00 L 121.26,265.26 L 121.88,265.71 L 122.24,265.83 L 122.84,265.96 L 122.21,266.01 L 121.56,266.14 L 121.52,266.19 L 121.59,266.70 L 121.66,267.00 L 121.92,267.94 L 122.08,268.45 L 122.50,269.68 L 123.25,271.75 L 123.69,272.89 L 124.40,274.49 L 124.74,275.20 L 125.39,276.09 L 125.73,276.46 L 126.50,276.82 L 128.00,277.00 L 128.59,277.00 L 129.50,276.82 L 129.92,276.69 L 130.61,276.09 L 130.94,275.71 L 131.60,274.49 L 131.94,273.79 L 132.75,271.75 L 133.02,271.03 L 133.51,269.69 L 133.74,269.05 L 134.10,267.96 L 134.26,267.46 L 134.46,266.75 L 134.53,266.23 L 134.48,266.18 L 133.88,266.09 L 133.51,266.05 L 132.40,265.98 L 131.20,265.92 L 128.05,265.88 L 126.47,265.87 L 124.24,265.91 L 125.42,265.78 L 126.15,265.33 L 126.24,264.86 L 126.29,264.35 L 126.25,264.02 L 126.12,263.30 L 126.00,262.85 L 125.71,261.89 L 125.51,261.31 L 125.06,260.07 L 124.78,259.34 L 123.25,256.15 L 122.17,254.63 L 121.61,254.19 L 121.03,253.84 L 121.19,253.90 L 121.65,253.80 L 121.73,253.73 L 121.77,253.41 L 121.77,253.21 L 121.66,252.63 L 121.58,252.30 L 121.29,251.40 L 121.13,250.90 L 120.67,249.64 L 120.41,248.96 L 119.75,247.29 L 118.54,244.27 L 118.25,243.57 L 117.77,242.41 L 117.54,241.87 L 117.13,241.00 L 116.73,240.19 L 115.96,239.25 L 115.54,238.85 L 114.46,238.48 L 112.10,238.19 L 108.00,237.89 L 108.00,246.85 L 108.01,248.24 L 108.02,248.89 L 108.06,250.01 L 108.10,251.06 L 108.28,252.43 L 108.38,253.01 L 108.69,253.58 L 109.33,253.70 L 109.23,253.72 L 108.91,254.18 L 108.60,254.69 L 108.49,255.05 L 108.28,255.82 L 108.21,256.31 L 108.08,257.35 L 108.05,257.98 L 108.00,259.31 L 108.00,260.08 L 108.00,261.47 L 108.01,262.03 L 108.02,263.08 L 108.05,263.50 L 108.19,264.89 L 108.38,265.26 L 108.85,265.81 L 109.27,265.91 L 110.25,266.00 L 110.26,266.00 L 109.28,266.09 L 108.86,266.18 L 108.39,266.71 L 108.20,267.06 L 108.05,268.34 L 108.03,268.73 L 108.01,269.70 L 108.00,271.50 L 108.00,272.18 L 108.01,273.30 L 108.01,273.82 L 108.05,274.66 L 108.10,275.43 L 108.39,276.29 L 108.58,276.64 L 109.28,276.91 L 111.00,277.00 L 111.74,277.00 L 112.72,276.91 L 113.14,276.82 L 113.61,276.29 L 113.80,275.94 L 113.95,274.66 L 113.97,274.27 L 113.99,273.30 L 114.00,272.78 L 114.00,271.50 L 114.00,270.82 L 113.99,269.70 L 113.99,269.18 L 113.95,268.34 L 113.90,267.57 L 113.61,266.71 L 113.42,266.36 L 112.72,266.09 L 111.00,266.00 L 112.72,265.91 M 170.65,238.20 L 169.67,238.27 L 168.31,238.48 L 167.71,238.63 L 166.84,239.26 L 166.44,239.66 L 165.69,241.08 L 165.49,241.50 L 165.06,242.54 L 164.30,244.47 L 163.84,245.68 L 163.08,247.63 L 162.73,248.54 L 162.21,249.98 L 161.97,250.63 L 161.68,251.62 L 161.57,252.07 L 161.51,252.70 L 161.51,252.98 L 161.68,253.33 L 161.79,253.48 L 162.20,253.64 L 162.94,253.70 L 162.15,253.97 L 161.67,254.42 L 160.74,255.52 L 160.28,256.38 L 159.35,258.32 L 158.84,259.66 L 158.07,261.70 L 157.67,262.79 L 157.53,263.23 L 157.30,264.03 L 157.24,264.34 L 157.16,264.90 L 157.19,265.10 L 157.48,265.75 L 157.90,265.91 L 158.44,266.04 L 157.74,266.16 L 157.32,266.29 L 156.65,266.84 L 156.33,267.19 L 155.74,268.32 L 154.73,270.88 L 154.26,272.23 L 153.51,274.53 L 153.35,275.04 L 153.14,275.80 L 153.00,276.44 L 153.00,276.54 L 153.29,276.68 L 153.47,276.75 L 154.07,276.83 L 156.66,276.81 L 157.47,276.74 L 158.65,276.52 L 159.17,276.39 L 159.93,275.90 L 160.28,275.60 L 160.84,274.66 L 161.11,274.11 L 161.68,272.53 L 162.11,271.29 L 162.52,269.41 L 162.66,268.57 L 162.45,267.40 L 162.26,266.90 L 161.67,266.51 L 161.70,266.51 L 163.20,266.64 L 164.03,266.68 L 167.51,266.82 L 169.37,266.83 L 173.12,266.80 L 174.88,266.73 L 178.28,266.53 L 178.44,266.51 L 178.23,266.82 L 178.17,267.02 L 178.20,267.58 L 178.23,267.89 L 178.43,268.70 L 178.55,269.14 L 178.90,270.26 L 179.59,272.32 L 179.97,273.44 L 180.57,274.94 L 180.86,275.59 L 181.50,276.34 L 181.85,276.64 L 182.82,276.90 L 184.98,277.00 L 188.77,277.00 L 186.74,271.50 L 186.51,270.85 L 186.09,269.78 L 185.90,269.27 L 185.54,268.46 L 185.20,267.70 L 184.52,266.81 L 184.16,266.45 L 183.26,266.13 L 182.20,266.06 L 184.77,265.75 L 182.65,259.93 L 181.08,256.36 L 180.01,254.70 L 179.43,254.20 L 178.44,253.55 L 178.99,253.47 L 179.30,253.41 L 179.73,253.27 L 180.00,253.05 L 180.01,252.98 L 179.80,252.26 L 179.66,251.82 L 179.23,250.52 L 178.99,249.81 L 178.38,248.08 L 177.35,245.20 L 174.70,237.90 M 270.28,266.09 L 269.86,266.18 L 269.39,266.71 L 269.20,267.06 L 269.05,268.34 L 269.03,268.73 L 269.01,269.70 L 269.00,271.50 L 269.00,277.00 L 276.00,277.00 L 276.00,264.49 L 276.06,261.72 L 276.10,260.40 L 276.22,258.21 L 276.29,257.20 L 276.46,255.82 L 276.50,255.54 L 276.60,255.16 L 276.75,254.92 L 276.96,254.90 L 277.87,254.72 L 279.50,254.32 L 280.05,254.18 L 280.65,254.07 L 280.57,254.13 L 280.00,254.63 L 280.00,254.90 L 280.31,255.63 L 280.79,256.48 L 281.14,257.04 L 281.91,258.24 L 282.37,258.92 L 283.34,260.34 L 283.87,261.09 L 287.75,266.50 L 289.26,266.43 L 288.74,266.60 L 288.66,266.68 L 288.78,267.21 L 288.89,267.53 L 289.35,268.46 L 289.62,268.96 L 290.34,270.14 L 291.66,272.10 L 292.42,273.15 L 293.61,274.64 L 294.18,275.30 L 295.17,276.13 L 295.66,276.48 L 296.70,276.83 L 298.59,277.00 L 302.00,277.00 L 302.00,266.00 L 298.48,266.00 L 302.00,265.84 L 302.00,259.42 L 301.99,257.52 L 301.96,256.46 L 301.94,256.03 L 301.81,254.53 L 301.68,254.09 L 301.35,253.37 L 301.10,253.21 L 300.50,253.00 L 300.50,253.00 L 301.09,252.80 L 301.35,252.65 L 301.67,251.98 L 301.80,251.56 L 301.94,250.19 L 302.00,247.08 L 302.00,246.11 L 301.97,244.46 L 301.94,243.68 L 301.85,242.38 L 301.80,241.78 L 301.63,240.79 L 301.53,240.34 L 301.26,239.63 L 300.97,238.98 L 300.02,238.33 L 297.89,238.00 L 297.38,238.00 L 296.57,238.10 L 296.20,238.17 L 295.66,238.41 L 295.41,238.55 L 295.11,238.95 L 294.91,239.75 L 294.90,239.87 L 294.88,240.34 L 294.86,240.61 L 294.82,241.36 L 294.78,242.16 L 294.65,244.44 L 294.59,245.66 L 294.42,248.55 L 294.16,253.25 L 294.07,254.87 L 293.96,257.81 L 293.92,259.22 L 293.91,261.55 L 293.92,262.61 L 294.01,264.07 L 294.04,264.37 L 294.11,264.76 L 294.19,264.90 L 294.14,265.00 L 294.00,265.00 L 293.29,264.69 L 293.00,264.24 L 293.00,263.96 L 292.73,263.11 L 292.30,262.29 L 292.00,261.79 L 290.56,259.60 L 289.67,258.44 L 287.85,256.13 L 287.04,255.23 L 286.25,254.40 L 285.92,254.11 L 285.32,253.61 L 285.11,253.53 L 284.83,253.49 L 284.99,253.45 L 285.12,253.38 L 285.21,253.13 L 285.22,252.97 L 285.05,252.50 L 284.93,252.23 L 284.47,251.47 L 284.21,251.04 L 283.43,249.90 L 283.00,249.28 L 281.86,247.70 L 279.73,244.75 L 279.21,244.04 L 278.31,242.83 L 277.88,242.26 L 277.12,241.30 L 276.39,240.40 L 275.20,239.25 L 274.64,238.76 L 273.60,238.26 L 271.92,238.00 L 269.00,238.00 L 269.00,253.95 L 270.54,253.64 L 269.83,254.19 L 269.47,254.85 L 269.34,255.36 L 269.13,256.50 L 269.08,257.28 L 269.00,258.99 L 269.00,260.11 L 269.00,261.49 L 269.01,262.05 L 269.02,263.09 L 269.05,263.51 L 269.19,264.89 L 269.38,265.26 L 269.85,265.81 L 270.27,265.91 L 271.25,266.00 L 271.26,266.00 M 314.68,257.57 L 314.14,255.72 L 313.72,255.05 L 313.18,254.38 L 313.21,254.40 L 313.48,254.70 L 313.89,255.05 L 314.07,255.18 L 314.32,255.20 L 314.44,255.16 L 314.61,254.82 L 314.82,253.90 L 314.91,253.38 L 315.18,252.56 L 315.31,252.21 L 315.58,252.00 L 315.71,252.00 L 316.43,252.33 L 317.85,253.14 L 318.44,253.51 L 319.87,253.76 L 322.28,253.39 L 324.89,252.50 L 319.69,245.27 L 319.12,244.47 L 318.13,243.12 L 317.65,242.48 L 316.84,241.44 L 316.45,240.95 L 315.76,240.16 L 315.43,239.80 L 314.83,239.25 L 314.24,238.74 L 313.14,238.26 L 311.25,238.02 L 308.00,238.00 L 308.00,246.35 L 308.01,247.77 L 308.02,248.44 L 308.06,249.53 L 308.08,250.04 L 308.15,250.85 L 308.19,251.23 L 308.32,251.79 L 308.45,252.31 L 308.91,252.78 L 309.96,253.00 L 309.93,253.00 L 308.91,253.21 L 308.46,253.64 L 308.32,254.09 L 308.11,255.18 L 308.06,256.06 L 308.02,257.00 L 308.01,257.57 L 308.00,258.78 L 308.00,277.00 L 315.00,277.00 L 315.00,261.07 M 334.00,238.00 L 334.00,252.75 L 335.55,253.06 L 334.88,253.20 L 334.48,253.56 L 334.35,253.89 L 334.13,254.68 L 334.08,255.27 L 334.00,256.59 L 334.00,257.50 L 333.73,260.68 L 333.55,261.42 L 333.44,261.64 L 333.21,262.00 L 333.09,262.00 L 332.58,261.78 L 332.11,261.44 L 331.83,261.19 L 330.56,259.98 L 329.85,259.20 L 328.41,257.54 L 327.76,256.69 L 326.55,255.02 L 326.17,254.34 L 325.59,253.64 L 325.11,253.34 L 324.79,253.28 L 324.10,253.19 L 323.67,253.22 L 322.73,253.34 L 322.14,253.47 L 318.98,254.16 L 320.74,257.15 L 321.63,258.56 L 322.35,259.64 L 322.75,260.19 L 324.39,262.44 L 325.11,263.32 L 326.24,264.67 L 326.73,265.11 L 327.69,265.84 L 328.29,266.02 L 329.39,266.23 L 327.13,266.30 L 330.81,271.61 L 331.60,272.75 L 332.84,274.36 L 333.42,275.07 L 334.42,275.98 L 334.92,276.36 L 335.94,276.75 L 337.75,276.96 L 341.00,277.00 L 341.00,265.89 L 338.01,265.98 L 341.25,265.82 L 340.59,260.20 L 340.33,258.65 L 340.50,259.00 L 340.53,259.00 L 340.60,258.79 L 340.63,258.65 L 340.69,258.17 L 340.75,257.64 L 340.85,255.92 L 340.90,254.96 L 340.96,252.58 L 340.99,251.32 L 341.00,248.50 L 341.00,238.00 M 354.22,265.74 L 354.46,265.54 L 354.83,265.04 L 354.91,264.63 L 355.00,263.69 L 355.00,260.00 L 364.00,260.00 L 366.92,259.99 L 368.51,259.98 L 369.14,259.96 L 370.29,259.91 L 370.73,259.86 L 371.53,259.76 L 371.81,259.68 L 372.68,259.30 L 372.84,258.97 L 373.00,258.18 L 373.00,257.59 L 372.81,256.22 L 372.31,255.63 L 371.69,255.45 L 370.99,255.27 L 370.51,255.21 L 369.46,255.08 L 368.78,255.02 L 367.31,254.91 L 366.40,254.86 L 364.44,254.76 L 363.25,254.70 L 359.25,254.45 L 356.69,254.25 L 356.41,254.22 L 355.90,253.86 L 355.67,253.64 L 355.36,252.93 L 355.23,252.53 L 355.08,251.36 L 355.00,248.96 L 355.00,244.08 L 364.25,243.79 L 365.39,243.75 L 367.27,243.69 L 368.14,243.65 L 369.54,243.58 L 370.19,243.54 L 371.19,243.43 L 371.64,243.37 L 372.30,243.21 L 372.88,243.04 L 373.34,242.44 L 373.50,241.00 L 373.50,238.50 L 348.00,237.94 L 348.00,252.65 L 351.60,253.66 L 351.13,253.58 L 350.75,253.49 L 348.00,252.77 L 348.00,277.00 L 374.00,277.00 L 374.00,271.00 L 363.32,271.00 L 361.37,270.99 L 360.47,270.99 L 359.02,270.96 L 358.35,270.94 L 357.33,270.87 L 356.87,270.82 L 356.20,270.68 L 355.90,270.61 L 355.51,270.39 L 355.34,270.26 L 355.15,269.94 L 355.00,268.50 L 355.00,267.95 L 354.88,267.19 L 354.80,266.85 L 354.40,266.43 L 354.15,266.25 L 353.34,266.08 L 351.50,266.00 L 353.41,265.92 M 205.30,238.00 L 203.14,238.18 L 202.10,238.30 L 200.23,238.71 L 199.32,238.94 L 197.74,239.59 L 196.98,239.94 L 195.69,240.80 L 195.08,241.27 L 194.09,242.36 L 193.63,242.94 L 192.93,244.25 L 192.62,244.94 L 192.23,246.47 L 192.00,249.01 L 192.00,249.68 L 192.03,250.82 L 192.05,251.36 L 192.13,252.24 L 192.22,253.06 L 192.60,254.01 L 192.82,254.37 L 193.53,254.51 L 194.39,254.21 L 194.24,254.37 L 194.00,254.76 L 194.00,254.99 L 194.22,255.56 L 194.57,255.96 L 194.85,256.18 L 196.20,257.08 L 197.22,257.55 L 199.47,258.51 L 200.86,258.98 L 203.83,259.93 L 205.53,260.37 L 210.22,262.05 L 211.48,262.69 L 211.95,263.00 L 212.79,263.63 L 213.00,263.92 L 214.18,265.11 L 215.05,265.44 L 215.96,265.74 L 216.49,265.83 L 217.61,265.96 L 218.25,265.96 L 220.69,265.93 L 221.59,265.74 L 221.73,265.46 L 221.82,265.15 L 221.80,264.93 L 221.71,264.44 L 221.60,264.12 L 221.35,263.41 L 221.17,262.97 L 220.78,262.02 L 220.54,261.43 L 218.95,258.85 L 217.44,257.49 L 216.34,256.93 L 215.18,256.38 L 214.49,256.13 L 213.03,255.63 L 212.18,255.39 L 210.38,254.92 L 209.34,254.69 L 207.17,254.22 L 205.92,253.98 L 201.29,253.34 L 198.59,253.23 L 197.51,253.32 L 196.34,253.49 L 197.11,253.28 L 197.92,253.11 L 199.51,253.00 L 200.11,253.00 L 200.88,252.96 L 201.21,252.92 L 201.47,252.75 L 201.55,252.64 L 201.34,252.28 L 200.57,251.43 L 200.09,250.95 L 199.45,250.01 L 199.18,249.54 L 198.94,248.65 L 198.87,248.21 L 199.01,247.39 L 199.13,246.99 L 199.63,246.27 L 199.92,245.93 L 200.76,245.34 L 201.22,245.06 L 202.37,244.62 L 202.99,244.42 L 204.44,244.16 L 206.91,244.00 L 207.71,244.00 L 208.97,244.11 L 209.55,244.19 L 210.47,244.51 L 210.90,244.69 L 211.61,245.27 L 212.59,246.50 L 212.90,246.96 L 213.54,247.67 L 213.87,247.99 L 214.62,248.44 L 215.01,248.64 L 215.94,248.87 L 217.62,249.00 L 218.56,249.00 L 219.81,248.81 L 220.34,248.67 L 220.79,248.08 L 220.93,247.72 L 220.65,246.55 L 219.48,243.97 L 218.96,242.96 L 217.51,241.34 L 216.72,240.59 L 214.71,239.48 L 213.63,238.98 L 211.04,238.37 L 206.48,238.00 M 171.74,248.81 L 172.48,250.90 L 172.62,251.53 L 172.93,252.42 L 173.10,252.81 L 173.60,253.29 L 173.88,253.48 L 174.73,253.66 L 175.41,253.67 L 174.51,254.73 L 174.42,255.96 L 174.64,256.85 L 175.11,259.02 L 175.34,260.22 L 175.38,260.50 L 175.04,260.91 L 174.46,261.18 L 174.03,261.30 L 173.08,261.52 L 172.50,261.61 L 171.28,261.77 L 170.61,261.81 L 165.73,262.12 L 166.36,258.18 L 166.61,256.14 L 166.62,255.19 L 166.52,254.86 L 166.28,254.31 L 166.04,254.14 L 165.50,253.84 L 165.34,253.80 L 166.02,253.75 L 166.49,253.69 L 167.19,253.36 L 167.51,253.16 L 168.01,252.48 L 168.25,252.09 L 168.71,250.96 L 169.06,250.02 L 169.78,248.84 L 170.14,248.37 L 170.82,248.12 L 171.15,248.12 M 275.00,259.50 L 274.97,257.26 L 274.91,256.04 L 274.86,255.54 L 274.73,254.64 L 274.63,254.30 L 274.41,253.69 L 274.25,253.48 L 273.91,253.13 L 273.69,253.05 L 273.61,253.03 L 275.00,252.75 M 391.75,238.00 L 388.73,238.01 L 387.31,238.02 L 385.01,238.05 L 383.94,238.07 L 382.26,238.14 L 381.48,238.18 L 380.31,238.29 L 379.78,238.36 L 379.02,238.54 L 378.68,238.64 L 378.22,238.89 L 377.50,239.99 L 377.25,240.78 L 377.21,241.96 L 377.27,242.48 L 377.98,243.19 L 378.43,243.49 L 380.02,243.82 L 380.48,243.88 L 381.59,243.96 L 383.56,244.00 L 389.00,244.00 L 389.14,251.75 L 389.15,252.82 L 389.23,254.56 L 389.27,255.36 L 389.37,256.49 L 389.42,256.96 L 389.55,257.36 L 389.74,257.00 L 389.86,256.31 L 390.40,255.02 L 390.70,254.43 L 391.35,253.77 L 391.67,253.56 L 392.82,253.24 L 394.75,253.02 L 395.25,253.01 L 395.94,252.87 L 396.25,252.75 L 396.62,252.25 L 396.78,251.94 L 396.93,250.89 L 397.00,248.50 L 397.00,244.00 L 409.00,244.00 L 409.00,238.00 M 232.14,256.82 L 232.16,257.20 L 232.11,256.97 L 232.05,256.55 M 338.47,253.76 L 338.87,253.92 L 339.39,254.34 L 339.62,254.57 L 339.87,255.21 L 340.00,256.47 L 340.00,256.67 L 339.48,255.03 L 339.11,254.49 L 338.46,253.75 M 138.77,255.23 L 138.68,256.03 L 138.71,255.63 L 138.70,254.90 M 138.49,254.47 L 138.65,254.70 L 138.68,254.81 L 138.56,254.58 L 138.41,254.38 M 110.69,253.59 L 112.06,254.04 L 112.40,254.25 L 112.25,254.17 L 110.41,253.58 M 230.80,253.98 L 230.81,253.99 L 230.79,253.98 M 136.65,253.36 L 137.11,253.52 L 137.80,253.87 L 137.85,253.89 L 136.55,253.33 M 109.98,253.57 L 109.35,253.69 L 109.71,253.56 M 86.00,234.67 L 86.02,236.72 L 86.03,237.70 L 86.06,239.39 L 86.09,240.20 L 86.15,241.56 L 86.18,242.20 L 86.27,243.25 L 86.32,243.74 L 86.44,244.50 L 86.51,244.85 L 86.66,245.35 L 87.25,245.98 L 87.34,245.98 L 87.97,245.72 L 88.36,245.56 L 89.55,244.99 L 90.21,244.67 L 91.89,243.83 L 92.78,243.38 L 94.89,242.31 L 95.99,241.74 L 98.45,240.46 L 99.72,239.79 L 102.47,238.34 L 105.28,236.85 L 111.50,233.50 L 134.50,221.03 L 86.00,221.00 M 233.46,261.87 L 232.44,258.45 L 232.45,258.40 L 232.69,257.00 L 232.81,256.31 L 233.29,254.28 L 233.55,253.24 L 234.13,251.27 L 234.49,250.10 L 235.65,248.16 L 236.29,247.27 L 237.96,245.89 L 238.86,245.27 L 241.00,244.48 L 244.68,244.00 L 245.97,244.00 L 248.27,244.55 L 249.37,244.92 L 251.22,246.14 L 252.08,246.83 L 253.39,248.64 L 254.64,251.95 L 254.77,252.58 L 255.01,253.44 L 255.14,253.81 L 255.46,254.21 L 255.64,254.36 L 256.10,254.36 L 257.05,253.97 L 257.61,253.68 L 257.98,253.60 L 257.87,253.68 L 257.22,254.28 L 256.93,254.71 L 256.39,255.65 L 256.19,256.25 L 255.83,257.54 L 255.73,258.31 L 255.17,261.76 L 254.95,262.78 L 254.84,263.20 L 254.63,263.95 L 254.53,264.18 L 254.34,265.03 L 254.45,265.45 L 254.65,265.61 L 255.14,265.89 L 255.56,265.99 L 255.84,266.05 L 255.55,266.07 L 253.99,266.50 L 253.64,266.63 L 253.11,266.96 L 252.62,267.55 L 252.54,267.76 L 252.11,268.26 L 251.85,268.52 L 251.14,269.08 L 248.43,270.59 L 247.39,271.03 L 245.22,271.38 L 244.14,271.48 L 242.01,271.17 L 240.96,270.94 L 239.02,270.02 L 236.47,267.96 L 235.87,267.31 L 234.17,266.49 L 230.82,266.00 L 234.91,266.00 M 149.00,246.00 L 148.97,244.30 L 148.95,243.50 L 148.85,242.18 L 148.79,241.57 L 148.60,240.60 L 148.50,240.15 L 148.19,239.47 L 148.01,239.16 L 147.56,238.71 L 147.31,238.52 L 146.67,238.27 L 143.99,238.00 L 143.05,238.00 L 141.76,238.12 L 141.17,238.24 L 140.29,238.93 L 140.07,239.16 L 139.65,239.79 L 139.43,240.15 L 138.97,241.08 L 138.72,241.59 L 138.16,242.87 L 137.16,245.25 L 134.12,252.50 L 136.08,253.17 L 135.20,253.22 L 134.75,253.59 L 134.29,254.02 L 134.06,254.34 L 133.59,255.03 L 133.34,255.48 L 132.83,256.44 L 132.54,257.04 L 131.96,258.31 L 131.63,259.07 L 130.61,261.46 L 130.01,262.90 L 129.77,263.50 L 129.34,264.59 L 129.21,264.96 L 129.00,265.56 L 129.00,265.63 L 129.09,265.75 L 129.26,265.80 L 129.66,265.87 L 129.95,265.89 L 131.35,265.90 L 132.24,265.81 L 134.04,265.49 L 134.92,265.08 L 135.27,264.69 L 135.94,263.77 L 136.28,263.04 L 136.97,261.36 L 137.40,260.16 L 138.33,257.38 L 138.67,256.08 L 138.66,256.19 L 138.57,256.54 L 138.50,257.06 L 138.49,257.29 L 138.59,257.58 L 138.67,257.69 L 138.95,257.75 L 139.57,257.61 L 139.86,257.50 L 140.29,257.68 L 140.48,257.86 L 140.72,258.79 L 140.78,259.08 L 140.86,259.84 L 140.89,260.25 L 140.94,261.27 L 140.96,261.82 L 140.99,263.13 L 141.00,265.45 L 141.00,266.78 L 141.03,269.02 L 141.04,270.07 L 141.13,271.78 L 141.18,272.58 L 141.34,273.84 L 141.43,274.41 L 141.70,275.28 L 141.85,275.66 L 142.25,276.20 L 142.47,276.43 L 143.02,276.69 L 143.32,276.80 L 144.05,276.86 L 145.38,276.80 L 146.13,276.73 L 147.14,276.53 L 147.58,276.39 L 148.11,275.82 L 148.33,275.46 L 148.57,274.22 L 148.62,273.85 L 148.69,272.93 L 148.73,272.44 L 148.80,271.25 L 149.10,266.00 L 149.00,266.00 Z" fill="rgb(224,254,0)"/>
    <path d="M 159.75,266.28 L 158.93,266.16 L 157.90,265.91 L 157.48,265.75 L 157.19,265.10 L 157.16,264.90 L 157.24,264.34 L 157.30,264.03 L 157.53,263.23 L 157.67,262.79 L 158.07,261.70 L 158.84,259.66 L 159.35,258.32 L 160.28,256.38 L 160.74,255.52 L 161.67,254.42 L 162.15,253.97 L 163.22,253.60 L 165.10,253.74 L 165.50,253.84 L 166.04,254.14 L 166.28,254.31 L 166.52,254.86 L 166.62,255.19 L 166.61,256.14 L 166.36,258.18 L 165.73,262.12 L 170.61,261.81 L 171.28,261.77 L 172.50,261.61 L 173.08,261.52 L 174.03,261.30 L 174.46,261.18 L 175.04,260.91 L 175.38,260.50 L 175.34,260.23 L 175.11,259.02 L 174.64,256.85 L 174.42,255.96 L 174.51,254.73 L 175.41,253.67 L 176.20,253.37 L 177.58,253.33 L 178.24,253.42 L 179.43,254.20 L 180.01,254.70 L 181.08,256.36 L 182.65,259.93 L 184.77,265.75 L 179.64,266.37 L 178.28,266.53 L 174.88,266.73 L 173.12,266.80 L 169.37,266.83 L 167.51,266.82 L 164.03,266.68 L 163.20,266.64 L 161.70,266.51 L 160.98,266.45 M 257.17,266.27 L 256.51,266.19 L 255.56,265.99 L 255.14,265.89 L 254.65,265.61 L 254.45,265.45 L 254.34,265.03 L 254.53,264.18 L 254.63,263.95 L 254.84,263.20 L 254.95,262.78 L 255.17,261.76 L 255.73,258.31 L 255.83,257.54 L 256.19,256.25 L 256.39,255.65 L 256.93,254.71 L 257.22,254.28 L 257.87,253.68 L 258.21,253.43 L 258.93,253.20 L 259.28,253.13 L 260.00,253.27 L 260.36,253.39 L 261.02,253.91 L 261.33,254.23 L 261.88,255.15 L 262.50,257.00 L 262.67,257.76 L 262.72,259.86 L 262.70,260.94 L 262.46,263.16 L 262.32,264.22 L 261.89,265.84 L 261.78,266.18 L 261.53,266.62 L 261.14,266.84 L 261.05,266.82 L 260.63,266.75 L 260.38,266.71 L 259.71,266.61 L 258.99,266.50 M 283.87,261.09 L 283.34,260.34 L 282.37,258.92 L 281.91,258.24 L 281.14,257.04 L 280.79,256.48 L 280.31,255.63 L 280.00,254.90 L 280.00,254.63 L 280.57,254.13 L 280.92,253.89 L 281.94,253.55 L 282.48,253.40 L 283.62,253.30 L 285.11,253.53 L 285.32,253.61 L 285.92,254.11 L 286.25,254.40 L 287.04,255.23 L 287.85,256.13 L 289.67,258.44 L 290.56,259.60 L 292.00,261.79 L 292.30,262.29 L 292.73,263.11 L 293.00,263.96 L 293.00,264.24 L 293.29,264.69 L 294.00,265.00 L 294.14,265.00 L 294.39,264.57 L 294.51,264.30 L 294.71,263.42 L 294.80,262.93 L 294.92,261.70 L 295.00,259.61 L 295.00,258.91 L 295.04,257.72 L 295.07,257.16 L 295.19,256.22 L 295.33,255.33 L 295.93,254.21 L 296.29,253.73 L 297.47,253.25 L 300.08,253.00 L 300.50,253.00 L 301.10,253.21 L 301.35,253.37 L 301.68,254.09 L 301.81,254.53 L 301.94,256.03 L 301.96,256.46 L 301.99,257.52 L 302.00,259.42 L 302.00,265.84 L 294.87,266.17 L 287.75,266.50 L 283.87,261.09 M 325.11,263.32 L 324.39,262.44 L 322.75,260.19 L 322.35,259.64 L 321.63,258.56 L 320.74,257.15 L 318.98,254.16 L 322.14,253.47 L 322.73,253.34 L 323.67,253.22 L 324.10,253.19 L 324.79,253.28 L 325.11,253.34 L 325.59,253.64 L 326.17,254.34 L 326.55,255.02 L 327.76,256.69 L 328.41,257.54 L 329.85,259.20 L 330.56,259.98 L 331.83,261.19 L 332.11,261.44 L 332.58,261.78 L 333.09,262.00 L 333.21,262.00 L 333.44,261.64 L 333.55,261.42 L 333.73,260.68 L 334.00,257.50 L 334.00,256.59 L 334.08,255.27 L 334.13,254.68 L 334.35,253.89 L 334.48,253.56 L 334.88,253.20 L 335.75,253.02 L 336.55,253.02 L 337.76,253.35 L 338.31,253.58 L 339.11,254.49 L 339.48,255.03 L 340.00,256.68 L 340.59,260.20 L 341.25,265.82 L 334.49,266.16 L 333.67,266.20 L 332.31,266.26 L 331.67,266.28 L 330.61,266.29 L 329.63,266.28 L 328.29,266.02 L 327.69,265.84 L 326.73,265.11 L 326.24,264.67 M 108.00,260.08 L 108.00,259.31 L 108.05,257.98 L 108.08,257.35 L 108.21,256.31 L 108.28,255.82 L 108.49,255.05 L 108.60,254.69 L 108.91,254.18 L 109.23,253.72 L 110.21,253.52 L 112.25,254.17 L 112.59,254.34 L 113.09,254.87 L 113.32,255.17 L 113.63,256.04 L 113.76,256.53 L 113.92,257.87 L 114.00,260.54 L 114.00,261.21 L 113.99,262.32 L 113.99,262.84 L 113.95,263.67 L 113.90,264.44 L 113.61,265.29 L 113.42,265.64 L 112.72,265.91 L 111.00,266.00 L 110.25,266.00 L 109.27,265.91 L 108.85,265.81 L 108.38,265.26 L 108.19,264.89 L 108.05,263.50 L 108.02,263.08 L 108.01,262.03 L 108.00,261.47 M 119.63,262.66 L 119.31,261.89 L 118.77,260.56 L 118.52,259.92 L 118.12,258.82 L 117.74,257.78 L 117.38,256.32 L 117.26,255.67 L 117.36,254.82 L 118.00,254.00 L 118.63,253.61 L 119.85,253.46 L 120.45,253.50 L 121.61,254.19 L 122.17,254.63 L 123.25,256.15 L 124.78,259.34 L 125.06,260.07 L 125.51,261.31 L 125.71,261.89 L 126.00,262.85 L 126.12,263.30 L 126.25,264.02 L 126.29,264.35 L 126.24,264.86 L 126.15,265.33 L 125.42,265.78 L 123.45,266.00 L 123.00,266.00 L 122.24,265.83 L 121.88,265.71 L 121.26,265.26 L 120.96,265.00 L 120.41,264.23 L 120.15,263.80 M 129.00,265.63 L 129.00,265.56 L 129.21,264.96 L 129.34,264.59 L 129.77,263.50 L 130.01,262.90 L 130.61,261.46 L 131.63,259.07 L 131.96,258.31 L 132.54,257.04 L 132.83,256.44 L 133.34,255.48 L 133.59,255.03 L 134.06,254.34 L 134.29,254.02 L 134.75,253.59 L 135.20,253.22 L 136.17,253.16 L 137.91,253.92 L 138.21,254.11 L 138.56,254.58 L 138.70,254.85 L 138.71,255.63 L 138.67,256.08 L 138.33,257.38 L 137.40,260.16 L 136.97,261.36 L 136.28,263.04 L 135.94,263.77 L 135.27,264.69 L 134.92,265.08 L 134.04,265.49 L 132.24,265.81 L 131.35,265.90 L 129.95,265.89 L 129.66,265.87 L 129.26,265.80 L 129.09,265.75 M 142.20,259.75 L 142.24,258.97 L 142.31,257.69 L 142.34,257.09 L 142.43,256.13 L 142.52,255.25 L 142.87,254.24 L 143.09,253.83 L 143.87,253.47 L 145.75,253.19 L 149.00,252.87 L 149.00,259.44 L 149.00,266.00 L 145.45,266.00 L 141.90,266.00 L 142.20,259.75 M 213.00,263.92 L 212.79,263.63 L 211.95,263.00 L 211.48,262.69 L 210.22,262.05 L 205.53,260.37 L 203.83,259.93 L 200.86,258.98 L 199.47,258.51 L 197.22,257.55 L 196.20,257.08 L 194.85,256.18 L 194.57,255.96 L 194.22,255.56 L 194.00,254.99 L 194.00,254.76 L 194.24,254.37 L 194.40,254.19 L 194.94,253.89 L 195.55,253.60 L 197.51,253.32 L 198.59,253.23 L 201.29,253.34 L 205.92,253.98 L 207.17,254.22 L 209.34,254.69 L 210.38,254.92 L 212.18,255.39 L 213.03,255.63 L 214.49,256.13 L 215.18,256.38 L 216.34,256.93 L 217.44,257.49 L 218.95,258.85 L 220.54,261.43 L 220.78,262.02 L 221.17,262.97 L 221.35,263.41 L 221.60,264.12 L 221.71,264.44 L 221.80,264.93 L 221.82,265.15 L 221.73,265.46 L 221.59,265.74 L 220.69,265.93 L 218.25,265.96 L 217.61,265.96 L 216.49,265.83 L 215.96,265.74 L 215.05,265.44 L 214.18,265.11 M 226.67,265.33 L 226.53,265.20 L 226.33,264.55 L 226.24,264.17 L 226.12,263.13 L 226.01,262.03 L 226.02,259.27 L 226.06,257.90 L 226.34,255.49 L 226.42,254.96 L 226.63,254.16 L 227.01,253.49 L 227.44,253.23 L 228.51,253.16 L 229.06,253.19 L 230.15,253.61 L 230.66,253.86 L 231.46,254.61 L 232.00,255.94 L 232.00,256.19 L 232.11,256.97 L 232.19,257.39 L 232.43,258.43 L 233.46,261.87 L 234.91,266.00 L 231.12,266.00 L 230.08,266.00 L 228.25,265.80 L 227.85,265.74 L 227.22,265.59 L 226.95,265.51 M 269.00,260.11 L 269.00,258.99 L 269.08,257.28 L 269.13,256.50 L 269.34,255.36 L 269.47,254.85 L 269.83,254.19 L 270.58,253.61 L 271.56,253.23 L 272.92,252.96 L 273.21,252.94 L 273.69,253.05 L 273.91,253.13 L 274.25,253.48 L 274.41,253.69 L 274.63,254.30 L 274.73,254.64 L 274.86,255.54 L 274.91,256.04 L 274.97,257.26 L 275.00,259.50 L 275.00,266.00 L 272.00,266.00 L 271.25,266.00 L 270.27,265.91 L 269.85,265.81 L 269.38,265.26 L 269.19,264.89 L 269.05,263.51 L 269.02,263.09 L 269.01,262.05 L 269.00,261.49 M 308.00,259.50 L 308.00,258.78 L 308.01,257.57 L 308.02,257.00 L 308.06,256.06 L 308.11,255.18 L 308.32,254.09 L 308.46,253.64 L 308.91,253.21 L 309.93,253.00 L 310.76,253.00 L 312.13,253.51 L 312.76,253.86 L 313.72,255.05 L 314.14,255.72 L 314.68,257.57 L 315.00,261.07 L 315.00,266.00 L 311.50,266.00 L 308.00,266.00 L 308.00,259.50 M 348.00,259.38 L 348.00,252.77 L 350.75,253.49 L 351.13,253.58 L 352.59,253.80 L 353.41,253.91 L 355.56,254.14 L 356.69,254.25 L 359.25,254.45 L 363.25,254.70 L 364.44,254.76 L 366.40,254.86 L 367.31,254.91 L 368.78,255.02 L 369.46,255.08 L 370.51,255.21 L 370.99,255.27 L 371.69,255.45 L 372.31,255.63 L 372.81,256.22 L 373.00,257.59 L 373.00,258.18 L 372.84,258.97 L 372.68,259.30 L 371.81,259.68 L 371.53,259.76 L 370.73,259.86 L 370.29,259.91 L 369.14,259.96 L 368.51,259.98 L 366.92,259.99 L 364.00,260.00 L 355.00,260.00 L 355.00,263.00 L 355.00,263.69 L 354.91,264.63 L 354.83,265.04 L 354.46,265.54 L 354.22,265.74 L 353.41,265.92 L 351.50,266.00 L 348.00,266.00 L 348.00,259.38 M 389.51,264.04 L 389.31,263.41 L 389.27,261.51 L 389.30,260.50 L 389.62,258.32 L 389.81,257.25 L 390.38,255.42 L 390.54,255.01 L 390.87,254.38 L 391.39,253.77 L 391.70,253.56 L 392.84,253.24 L 394.75,253.02 L 395.28,253.01 L 395.99,253.17 L 396.30,253.30 L 396.66,253.97 L 396.81,254.40 L 396.94,255.92 L 396.97,256.37 L 396.99,257.48 L 397.00,259.50 L 397.00,266.00 L 393.57,266.00 L 392.94,266.00 L 391.93,265.90 L 391.47,265.83 L 390.76,265.56 L 390.44,265.41 L 389.98,264.96 L 389.78,264.71 Z" fill="rgb(241,26,8)"/>
  </g>
</svg>